<svg width="60" height="60" viewBox="0 0 60 60" fill="none" xmlns="http://www.w3.org/2000/svg">
<circle cx="30" cy="30" r="30" fill="#FEE500"/>
<path d="M30.0867 14.4789C20.7531 14.4789 13.226 20.5005 13.226 27.8109C13.226 32.5559 16.3573 36.7109 21.0542 39.0834L19.4645 45.0209C19.4345 45.1099 19.4299 45.2054 19.4512 45.2968C19.4724 45.3883 19.5187 45.4721 19.5849 45.5387C19.6814 45.6238 19.8055 45.6708 19.9342 45.6711C20.0408 45.6626 20.142 45.6204 20.2232 45.5507L27.0639 40.9382C28.0736 41.0776 29.0915 41.1499 30.1108 41.1549C39.4324 41.1549 46.9716 35.1332 46.9716 27.8109C46.9716 20.4885 39.4083 14.4789 30.0867 14.4789Z" fill="#392020"/>
<path d="M19.1267 25.7032H17.2841C17.0557 25.7098 16.8301 25.6513 16.6338 25.5346C16.5466 25.48 16.4716 25.4079 16.4136 25.3229C16.3555 25.2379 16.3157 25.1419 16.2965 25.0408C16.2907 24.9767 16.2907 24.9123 16.2965 24.8482C16.2908 24.7282 16.3141 24.6086 16.3644 24.4996C16.4147 24.3906 16.4906 24.2954 16.5856 24.2219C16.7955 24.0698 17.049 23.9895 17.3082 23.993H22.8602C23.0904 23.9849 23.3175 24.048 23.5105 24.1737C23.5998 24.2259 23.6763 24.2973 23.7346 24.3827C23.793 24.4681 23.8316 24.5654 23.8477 24.6675C23.8536 24.7276 23.8536 24.7881 23.8477 24.8482C23.8534 24.9698 23.8302 25.0911 23.7799 25.202C23.7297 25.313 23.6539 25.4104 23.5587 25.4864C23.3539 25.6382 23.1029 25.7149 22.8481 25.7032H21.0657V32.0381C21.073 32.173 21.0521 32.3079 21.0044 32.4344C20.9567 32.5609 20.8833 32.6761 20.7887 32.7727C20.6981 32.865 20.5891 32.9374 20.4688 32.9851C20.3485 33.0328 20.2195 33.0548 20.0902 33.0497C19.864 33.0561 19.6426 32.9838 19.4639 32.845C19.2938 32.7094 19.1784 32.5169 19.1388 32.303C19.1269 32.2151 19.1269 32.126 19.1388 32.0381L19.1267 25.7032Z" fill="#FEE500"/>
<path d="M24.3793 24.4627C24.4323 24.2645 24.5567 24.0929 24.7286 23.981C24.9117 23.8771 25.1204 23.8271 25.3308 23.8364H25.7884C26.0116 23.8284 26.2326 23.8827 26.4267 23.993C26.6324 24.1313 26.7786 24.342 26.8362 24.5831L29.2449 31.3877C29.3073 31.5652 29.3596 31.7462 29.4014 31.9297C29.4055 32.0059 29.4055 32.0822 29.4014 32.1585C29.4055 32.2758 29.3839 32.3927 29.3381 32.5009C29.2924 32.609 29.2236 32.7059 29.1365 32.7847C29.0521 32.8712 28.9508 32.9394 28.8389 32.985C28.727 33.0306 28.6069 33.0526 28.4861 33.0497C28.3004 33.0681 28.1138 33.0236 27.9565 32.9231C27.7992 32.8226 27.6803 32.672 27.619 32.4957L27.1132 31.0144H23.9458L23.44 32.4957C23.3801 32.6755 23.2598 32.829 23.0995 32.93C22.9392 33.031 22.7488 33.0733 22.5608 33.0497C22.3571 33.055 22.1576 32.9913 21.9947 32.869C21.836 32.7428 21.7289 32.5629 21.6937 32.3633C21.6873 32.2952 21.6873 32.2266 21.6937 32.1585C21.673 32.0389 21.673 31.9168 21.6937 31.7972C21.6937 31.6648 21.778 31.5201 21.8261 31.3877L24.3793 24.4627ZM25.5837 26.0405L24.4395 29.6535H26.7157L25.5837 26.0405Z" fill="#FEE500"/>
<path d="M29.6772 24.8483C29.665 24.5781 29.7603 24.3139 29.9422 24.1137C30.0347 24.0204 30.1457 23.9475 30.2681 23.8998C30.3905 23.8521 30.5215 23.8305 30.6528 23.8366C30.8784 23.8339 31.0985 23.906 31.279 24.0414C31.4463 24.1826 31.5574 24.3791 31.5921 24.5953C31.604 24.6792 31.604 24.7644 31.5921 24.8483V31.1832H34.9041C35.1336 31.1802 35.3593 31.2427 35.5544 31.3637C35.6421 31.4178 35.7174 31.4897 35.7755 31.5748C35.8336 31.6599 35.8732 31.7562 35.8916 31.8575C35.8916 31.8575 35.8916 31.978 35.8916 32.0382C35.8974 32.1581 35.8741 32.2776 35.8238 32.3866C35.7734 32.4956 35.6976 32.591 35.6026 32.6645C35.3926 32.8165 35.1392 32.8967 34.88 32.8932H30.8093C30.5501 32.9099 30.2924 32.8424 30.0747 32.7006C29.8799 32.555 29.7502 32.3388 29.7134 32.0985C29.7045 31.9661 29.7045 31.8333 29.7134 31.7009L29.6772 24.8483Z" fill="#FEE500"/>
<path d="M36.1086 24.8483C36.1014 24.5788 36.196 24.3165 36.3736 24.1137C36.5541 23.9497 36.7856 23.8528 37.0291 23.8397C37.2727 23.8265 37.5133 23.8978 37.7104 24.0414C37.8813 24.1814 37.9966 24.3778 38.0356 24.5953C38.0415 24.6795 38.0415 24.7641 38.0356 24.8483V27.7989L41.0825 24.2822C41.1999 24.1622 41.3246 24.0497 41.4559 23.9451C41.5796 23.8714 41.7214 23.8338 41.8654 23.8366C42.0759 23.8354 42.2817 23.8985 42.4555 24.0173C42.5374 24.0724 42.6073 24.1435 42.6611 24.2263C42.7149 24.3091 42.7515 24.4018 42.7686 24.499C42.7735 24.5229 42.7735 24.5475 42.7686 24.5713C42.7628 24.5991 42.7628 24.6278 42.7686 24.6556C42.7682 24.7823 42.735 24.9068 42.6723 25.0169C42.6084 25.1335 42.5316 25.2425 42.4435 25.342L40.4442 27.534L42.8529 31.2674V31.3878C42.978 31.5604 43.0755 31.7515 43.142 31.954V32.0141C43.1559 32.1536 43.1358 32.2945 43.0833 32.4245C43.0309 32.5546 42.9477 32.6699 42.8409 32.7608C42.64 32.9126 42.3942 32.9932 42.1424 32.9897C41.9751 32.9966 41.8089 32.9591 41.6606 32.8812C41.5002 32.7736 41.3681 32.6291 41.2752 32.4597L39.0352 28.8467L37.9633 29.9668V31.9779C37.9705 32.2474 37.8759 32.5097 37.6984 32.7125C37.6032 32.8056 37.49 32.8782 37.3657 32.9259C37.2414 32.9735 37.1087 32.9952 36.9758 32.9897C36.7535 32.9943 36.5365 32.9219 36.3615 32.7849C36.1914 32.6493 36.076 32.4569 36.0364 32.243C36.0245 32.1551 36.0245 32.0658 36.0364 31.9779L36.1086 24.8483Z" fill="#FEE500"/>
</svg>
