<svg width="24" height="25" viewBox="0 0 24 25" fill="none" xmlns="http://www.w3.org/2000/svg">
<path d="M17.9997 14.8231C17.4088 14.827 16.8262 14.9628 16.2937 15.2206C15.7611 15.4784 15.2919 15.8518 14.9197 16.3141L9.81966 13.9466C10.0595 13.2069 10.0595 12.4095 9.81966 11.6698L14.9197 9.30228C15.5213 10.0337 16.36 10.5274 17.2878 10.6964C18.2156 10.8654 19.1729 10.6988 19.9906 10.226C20.8084 9.75319 21.434 9.00456 21.7572 8.11223C22.0804 7.21991 22.0803 6.24125 21.757 5.34898C21.4336 4.45671 20.8078 3.7082 19.99 3.23553C19.1722 2.76286 18.2149 2.59643 17.2871 2.76561C16.3593 2.93479 15.5207 3.42871 14.9192 4.16019C14.3177 4.89167 13.992 5.81369 13.9997 6.76353C14.0027 7.00353 14.0261 7.24284 14.0697 7.47881L8.78966 9.9269C8.22674 9.37238 7.51391 8.99755 6.74047 8.84937C5.96703 8.70118 5.16738 8.78624 4.44171 9.09388C3.71604 9.40151 3.09662 9.91805 2.66106 10.5788C2.2255 11.2395 1.99316 12.015 1.99316 12.8082C1.99316 13.6013 2.2255 14.3769 2.66106 15.0376C3.09662 15.6983 3.71604 16.2149 4.44171 16.5225C5.16738 16.8301 5.96703 16.9152 6.74047 16.767C7.51391 16.6188 8.22674 16.244 8.78966 15.6895L14.0697 18.1376C14.0261 18.3735 14.0027 18.6128 13.9997 18.8528C13.9997 19.6499 14.2343 20.429 14.6738 21.0917C15.1133 21.7544 15.738 22.2709 16.4689 22.5759C17.1998 22.8809 18.0041 22.9607 18.78 22.8052C19.5559 22.6497 20.2687 22.2659 20.8281 21.7023C21.3875 21.1388 21.7685 20.4207 21.9228 19.639C22.0771 18.8573 21.9979 18.0471 21.6952 17.3107C21.3924 16.5744 20.8797 15.945 20.2219 15.5022C19.5641 15.0594 18.7908 14.8231 17.9997 14.8231ZM17.9997 4.74864C18.3952 4.74864 18.7819 4.86681 19.1108 5.08821C19.4397 5.30961 19.696 5.62429 19.8474 5.99246C19.9988 6.36064 20.0384 6.76576 19.9612 7.15661C19.8841 7.54746 19.6936 7.90648 19.4139 8.18827C19.1342 8.47005 18.7778 8.66195 18.3898 8.7397C18.0019 8.81744 17.5997 8.77754 17.2343 8.62504C16.8688 8.47254 16.5565 8.21428 16.3367 7.88294C16.117 7.55159 15.9997 7.16203 15.9997 6.76353C15.9997 6.22915 16.2104 5.71665 16.5854 5.33879C16.9605 4.96092 17.4692 4.74864 17.9997 4.74864ZM5.99966 14.8231C5.6041 14.8231 5.21742 14.7049 4.88852 14.4835C4.55962 14.2621 4.30328 13.9474 4.1519 13.5793C4.00053 13.2111 3.96092 12.806 4.03809 12.4151C4.11526 12.0243 4.30574 11.6652 4.58545 11.3834C4.86515 11.1017 5.22152 10.9098 5.60948 10.832C5.99744 10.7543 6.39958 10.7942 6.76503 10.9467C7.13048 11.0992 7.44284 11.3574 7.6626 11.6888C7.88236 12.0201 7.99966 12.4097 7.99966 12.8082C7.99966 13.3426 7.78895 13.8551 7.41388 14.2329C7.0388 14.6108 6.5301 14.8231 5.99966 14.8231ZM17.9997 20.8677C17.6041 20.8677 17.2174 20.7496 16.8885 20.5282C16.5596 20.3068 16.3033 19.9921 16.1519 19.6239C16.0005 19.2557 15.9609 18.8506 16.0381 18.4598C16.1153 18.0689 16.3057 17.7099 16.5854 17.4281C16.8652 17.1463 17.2215 16.9544 17.6095 16.8767C17.9974 16.7989 18.3996 16.8388 18.765 16.9913C19.1305 17.1438 19.4428 17.4021 19.6626 17.7334C19.8824 18.0648 19.9997 18.4543 19.9997 18.8528C19.9997 19.3872 19.7889 19.8997 19.4139 20.2776C19.0388 20.6555 18.5301 20.8677 17.9997 20.8677Z" fill="white"/>
</svg>
