<svg width="32" height="32" viewBox="0 0 32 32" fill="none" xmlns="http://www.w3.org/2000/svg">
<rect x="8.84113" y="13.1157" width="2.57477" height="2.57477" rx="1.28738" fill="#464646"/>
<rect x="14.7839" y="13.1157" width="2.57477" height="2.57477" rx="1.28738" fill="#464646"/>
<rect x="21.0257" y="13.1157" width="2.57477" height="2.57477" rx="1.28738" fill="#464646"/>
<path fill-rule="evenodd" clip-rule="evenodd" d="M9.78278 5.05931C8.89137 5.11757 8.30424 5.23 7.81881 5.42164C6.26506 6.03507 5.03507 7.26506 4.42164 8.81881C4.23 9.30424 4.11757 9.89137 4.05931 10.7828C4.0005 11.6826 4 12.8212 4 14.4031C4 15.985 4.0005 17.1235 4.05931 18.0234C4.11757 18.9148 4.23 19.502 4.42164 19.9874C5.03507 21.5411 6.26506 22.7711 7.81881 23.3845C8.09641 23.4941 8.40797 23.578 8.78983 23.6404C9.32581 23.7281 9.69385 24.2275 9.61885 24.7654L9.61936 24.7659L10.1243 27.0468L10.7976 24.7659C10.7985 24.763 10.7983 24.7624 10.7982 24.7636C10.8195 24.2245 11.2646 23.7994 11.8041 23.803C12.2858 23.8062 12.8147 23.8062 13.4031 23.8062H18.3911C19.973 23.8062 21.1115 23.8057 22.0114 23.7469C22.9028 23.6886 23.49 23.5762 23.9754 23.3845C25.5291 22.7711 26.7591 21.5411 27.3725 19.9874C27.5642 19.502 27.6766 18.9148 27.7349 18.0234C27.7937 17.1235 27.7942 15.985 27.7942 14.4031C27.7942 12.8212 27.7937 11.6826 27.7349 10.7828C27.6766 9.89137 27.5642 9.30424 27.3725 8.81881C26.7591 7.26506 25.5291 6.03507 23.9754 5.42164C23.49 5.23 22.9028 5.11757 22.0114 5.05931C21.1115 5.0005 19.973 5 18.3911 5H13.4031C11.8212 5 10.6826 5.0005 9.78278 5.05931ZM13.3675 3H13.4031H18.3911H18.4267C19.9654 3 21.1691 2.99999 22.1419 3.06357C23.1305 3.12819 23.9503 3.26152 24.7098 3.56138C26.7785 4.3781 28.4161 6.01571 29.2328 8.08437C29.5327 8.84389 29.666 9.66365 29.7306 10.6523C29.7942 11.6251 29.7942 12.8288 29.7942 14.3675V14.4031V14.4387C29.7942 15.9774 29.7942 17.1811 29.7306 18.1539C29.666 19.1425 29.5327 19.9623 29.2328 20.7218C28.4161 22.7905 26.7785 24.4281 24.7098 25.2448C23.9503 25.5447 23.1305 25.678 22.1419 25.7426C21.1691 25.8062 19.9654 25.8062 18.4267 25.8062H18.3911H13.4031H13.401C13.1141 25.8062 12.8392 25.8062 12.5759 25.8058L12.0425 27.613C11.4576 29.5946 8.61818 29.4964 8.1716 27.4791L7.72362 25.4556C7.50458 25.3965 7.29229 25.3269 7.08437 25.2448C5.01571 24.4281 3.3781 22.7905 2.56138 20.7218C2.26152 19.9623 2.12819 19.1425 2.06357 18.1539C1.99999 17.1811 2 15.9774 2 14.4387V14.4031V14.3675C2 12.8288 1.99999 11.6251 2.06357 10.6523C2.12819 9.66365 2.26152 8.84389 2.56138 8.08437C3.3781 6.01571 5.01571 4.3781 7.08437 3.56138C7.84389 3.26152 8.66365 3.12819 9.65234 3.06357C10.6251 2.99999 11.8288 3 13.3675 3Z" fill="#464646"/>
</svg>
