<svg width="459" height="365" viewBox="0 0 459 365" fill="none" xmlns="http://www.w3.org/2000/svg">
<path d="M285.999 348.023C285.999 348.023 272.436 360.34 262.912 355.056L268.951 364.442L293.171 354.113L285.987 348.023H285.999Z" fill="#22DDD3"/>
<path d="M22.8146 86.9394L0.570068 69.8911L3.07383 84.5866L22.0722 93.96L22.8146 86.9394Z" fill="#FFCC33"/>
<path d="M440.075 118.872L458.344 97.5962L443.523 99.2821L433.117 117.727L440.075 118.872Z" fill="#5EBAAE"/>
<path d="M128.602 58.7688C125.796 47.2188 119.04 40.9405 113.239 37.7573L109.641 42.9662C109.641 42.9662 120.851 52.9309 119.807 61.0209L128.602 58.7688Z" fill="#6699FF"/>
<path d="M212.535 2.51611C202.935 9.52414 199.714 18.1678 198.997 24.748L205.174 26.0817C205.174 26.0817 210.106 11.9147 217.97 9.77577L212.522 2.51611H212.535Z" fill="#FF9999"/>
<path d="M50.5068 26.4468C50.5068 26.4468 53.2497 47.1815 34.3519 49.4965L33.8486 41.9475C33.8486 41.9475 44.2789 41.1674 41.1209 30.3094L50.5068 26.4468Z" fill="#22DDD3"/>
<path d="M431.91 0C431.91 0 434.652 20.7347 415.755 23.0497L415.251 15.5007C415.251 15.5007 425.682 14.7206 422.524 3.86259L431.91 0V0Z" fill="#EF2E2E"/>
<path d="M344.467 59.574C344.467 59.574 323.732 56.8312 326.412 37.9712L333.835 39.4558C333.835 39.4558 331.872 49.7351 343.171 49.5086L344.454 59.574H344.467Z" fill="#FFCC33"/>
</svg>
