<svg width="79" height="79" viewBox="0 0 79 79" fill="none" xmlns="http://www.w3.org/2000/svg">
<path d="M72.0454 46.4548C72.0454 64.4273 57.4728 79 39.5003 79C21.5278 79 6.95508 64.4273 6.95508 46.4548C6.95508 28.4823 33.7586 2.48283 33.7586 2.48283C36.9186 -0.578423 42.0819 -0.578423 45.2419 2.48283C45.2419 2.48283 72.0454 28.4823 72.0454 46.4548Z" fill="#EC6C16"/>
<path d="M39.4625 44.6719H26.4937V46.2812H31.9781V47.3281C29.4547 47.5078 27.9781 48.3984 27.9781 49.875C27.9781 51.5234 29.8453 52.4453 32.9625 52.4375C36.0328 52.4453 37.9 51.5234 37.9156 49.875C37.9 48.4062 36.4312 47.5156 33.9625 47.3359V46.2812H39.4625V44.6719ZM27.0719 42.5781L27.7281 44.1406C30.4234 43.8906 32.2125 42.8672 32.9625 41.4922C33.7203 42.875 35.525 43.8828 38.2125 44.1406L38.9156 42.5781C36.2125 42.3438 34.7672 41.3828 34.4234 40.3906H38.2906V38.8281H27.6812V40.3906H31.5172C31.1578 41.375 29.7047 42.3438 27.0719 42.5781ZM30.0094 49.875C30.0016 49.1562 30.9937 48.8125 32.9625 48.7969C34.8922 48.8125 35.9078 49.1562 35.9156 49.875C35.9078 50.5625 34.8922 50.9375 32.9625 50.9375C30.9937 50.9375 30.0016 50.5625 30.0094 49.875ZM50.8031 38.2188H48.7875V48.4062H50.8031V43.8438H52.725V42.2031H50.8031V38.2188ZM39.4281 45.4375L40.2562 47.0156C44.5219 45.8125 46.9203 43.125 46.9281 39.2812H40.0531V40.9062H44.7328C44.4203 42.9062 42.6156 44.5547 39.4281 45.4375ZM41.5531 52.1875H51.2875V50.5938H43.5687V47.3594H41.5531V52.1875Z" fill="white"/>
</svg>
