<svg width="79" height="79" viewBox="0 0 79 79" fill="none" xmlns="http://www.w3.org/2000/svg">
<path d="M72.0454 46.4548C72.0454 64.4273 57.4728 79 39.5003 79C21.5278 79 6.95508 64.4273 6.95508 46.4548C6.95508 28.4823 33.7586 2.48283 33.7586 2.48283C36.9186 -0.578423 42.0819 -0.578423 45.2419 2.48283C45.2419 2.48283 72.0454 28.4823 72.0454 46.4548Z" fill="#F7D134"/>
<path d="M32.2125 39.5469V38.7969H30.1344V39.5469C30.1344 41.1172 29.0797 42.625 26.6812 43.1875L27.6187 44.7344C29.3609 44.2969 30.5484 43.3281 31.1969 42.0625C31.8375 43.2109 33.0016 44.0625 34.6969 44.4688L35.6031 42.9062C33.2359 42.3906 32.2125 41.0391 32.2125 39.5469ZM26.525 45.6406L26.775 47.2656C27.8062 47.2656 28.9859 47.2578 30.2281 47.2031V52.0156H32.2125V47.0859C33.4 46.9844 34.6031 46.8359 35.775 46.6094L35.65 45.1719C32.6187 45.6094 29.0797 45.6406 26.525 45.6406ZM36.5094 52.4375H38.4781V38.2344H36.5094V52.4375ZM46.0062 38.4062C42.8578 38.4141 40.8187 39.4453 40.8187 41.1719C40.8187 42.8672 42.8578 43.8828 46.0062 43.875C49.1703 43.8828 51.1703 42.8672 51.1781 41.1719C51.1703 39.4453 49.1703 38.4141 46.0062 38.4062ZM39.5219 46.2031H45.0062V47.4375H41.0219V52.2812H50.9437V47.4375H46.9906V46.2031H52.4906V44.6094H39.5219V46.2031ZM42.8969 41.1719C42.8812 40.3516 44.0141 39.9297 46.0062 39.9375C47.9672 39.9297 49.1156 40.3516 49.1156 41.1719C49.1156 41.9531 47.9672 42.3594 46.0062 42.3594C44.0141 42.3594 42.8812 41.9531 42.8969 41.1719ZM42.9906 50.6875V49.0156H48.9906V50.6875H42.9906Z" fill="white"/>
</svg>
