<svg width="79" height="79" viewBox="0 0 79 79" fill="none" xmlns="http://www.w3.org/2000/svg">
<path d="M72.0454 46.4548C72.0454 64.4273 57.4728 79 39.5003 79C21.5278 79 6.95508 64.4273 6.95508 46.4548C6.95508 28.4823 33.7586 2.48283 33.7586 2.48283C36.9186 -0.578423 42.0819 -0.578423 45.2419 2.48283C45.2419 2.48283 72.0454 28.4823 72.0454 46.4548Z" fill="#41BFED"/>
<path d="M24.4016 39.2188C22.2453 39.2188 20.6984 41.1797 20.7141 44.2812C20.6984 47.4062 22.2453 49.3594 24.4016 49.3594C26.3859 49.3594 27.8547 47.6875 28.0656 44.9531H30.5109V52.4688H32.4797V38.2188H30.5109V43.3594H28.0422C27.7609 40.7969 26.3234 39.2188 24.4016 39.2188ZM22.6203 44.2812C22.6125 42.1719 23.3391 41.0156 24.4016 41.0156C25.4719 41.0156 26.1828 42.1719 26.1828 44.2812C26.1828 46.3984 25.4719 47.5547 24.4016 47.5469C23.3391 47.5547 22.6125 46.3984 22.6203 44.2812ZM45.4922 38.2188H43.5078V41.2344H41.1172V42.8594H43.5078V45.0938H41.0703V46.7344H43.5078V52.4688H45.4922V38.2188ZM33.9766 40.9844H38.4141V43.3281H34.0078V49.2812H35.1328C37.3203 49.2891 39.1328 49.2422 41.2578 48.9062L41.1016 47.2812C39.3047 47.5547 37.75 47.6328 35.9922 47.6484V44.875H40.3672V39.4062H33.9766V40.9844ZM53.0203 38.4062C49.8719 38.4141 47.8328 39.4453 47.8328 41.1719C47.8328 42.8672 49.8719 43.8828 53.0203 43.875C56.1844 43.8828 58.1844 42.8672 58.1922 41.1719C58.1844 39.4453 56.1844 38.4141 53.0203 38.4062ZM46.5359 46.2031H52.0203V47.4375H48.0359V52.2812H57.9578V47.4375H54.0047V46.2031H59.5047V44.6094H46.5359V46.2031ZM49.9109 41.1719C49.8953 40.3516 51.0281 39.9297 53.0203 39.9375C54.9812 39.9297 56.1297 40.3516 56.1297 41.1719C56.1297 41.9531 54.9812 42.3594 53.0203 42.3594C51.0281 42.3594 49.8953 41.9531 49.9109 41.1719ZM50.0047 50.6875V49.0156H56.0047V50.6875H50.0047Z" fill="white"/>
</svg>
