<svg width="79" height="79" viewBox="0 0 79 79" fill="none" xmlns="http://www.w3.org/2000/svg">
<path d="M72.0454 46.4548C72.0454 64.4273 57.4728 79 39.5003 79C21.5278 79 6.95508 64.4273 6.95508 46.4548C6.95508 28.4823 33.7586 2.48283 33.7586 2.48283C36.9186 -0.578423 42.0819 -0.578423 45.2419 2.48283C45.2419 2.48283 72.0454 28.4823 72.0454 46.4548Z" fill="#FC3434"/>
<path d="M39.4625 45.7344H26.4937V47.3594H31.9781V51.4531H33.9469V47.3594H39.4625V45.7344ZM27.15 43.4062L27.8687 44.9688C30.2984 44.6953 32.0484 43.7188 32.9781 42.4141C33.9 43.7031 35.6422 44.6953 38.0562 44.9688L38.775 43.4062C35.8297 43.0781 34.2281 41.6719 34.0094 40.4219H38.275V38.8594H33.9469V37.2344H31.9781V38.8594H27.6656V40.4219H31.9469C31.7047 41.6875 30.1031 43.0781 27.15 43.4062ZM44.7562 40.5625V40.4531H47.6312V38.8906H44.7875V37.3125H42.7719V38.8906H39.9125V40.4531H42.7719V40.5625C42.7719 42.2969 41.7406 44.0234 39.4281 44.7188L40.3969 46.2812C42.0453 45.7656 43.1703 44.7109 43.8031 43.375C44.4437 44.6094 45.5687 45.5859 47.1625 46.0469L48.1156 44.5C45.8031 43.7969 44.7641 42.1641 44.7562 40.5625ZM42.0687 51.1875H51.85V49.5938H44.0687V46.875H42.0687V51.1875ZM47.1625 42.9844H49.5219V47.7812H51.5062V37.2344H49.5219V41.375H47.1625V42.9844Z" fill="white"/>
</svg>
