<svg width="329" height="380" viewBox="0 0 329 380" fill="none" xmlns="http://www.w3.org/2000/svg">
<mask id="mask0_313_4725" style="mask-type:alpha" maskUnits="userSpaceOnUse" x="0" y="0" width="329" height="380">
<rect width="329" height="380" fill="white"/>
</mask>
<g mask="url(#mask0_313_4725)">
<path d="M318.573 205.506C318.573 189.763 305.793 177 290.029 177C274.264 177 261.484 189.763 261.484 205.506V243.494C261.484 259.237 274.264 272 290.029 272C305.793 272 318.573 259.237 318.573 243.494V205.506Z" fill="#CFE869"/>
<path d="M234.348 233.71C219.534 228.326 203.154 235.953 197.763 250.747C192.371 265.541 200.009 281.899 214.823 287.284L250.568 300.276C265.382 305.661 281.762 298.033 287.153 283.239C292.545 268.445 284.907 252.087 270.093 246.703L234.348 233.71Z" fill="#CFE869"/>
<path d="M365.266 287.28C380.079 281.896 387.717 265.538 382.326 250.744C376.934 235.95 360.554 228.322 345.74 233.707L309.995 246.7C295.181 252.084 287.543 268.442 292.935 283.236C298.327 298.03 314.707 305.658 329.521 300.273L365.266 287.28Z" fill="#CFE869"/>
<path d="M333.759 291.271C325.877 277.637 308.419 272.965 294.767 280.837C281.114 288.709 276.437 306.143 284.319 319.777L303.339 352.675C311.221 366.31 328.678 370.981 342.331 363.109C355.983 355.238 360.661 337.804 352.779 324.169L333.759 291.271Z" fill="#CFE869"/>
<path d="M295.713 319.777C303.595 306.143 298.917 288.709 285.265 280.837C271.612 272.965 254.155 277.637 246.273 291.271L227.253 324.17C219.371 337.804 224.049 355.238 237.701 363.109C251.354 370.981 268.811 366.31 276.693 352.675L295.713 319.777Z" fill="#CFE869"/>
<path d="M291.038 302.047C301.1 302.047 309.256 293.105 309.256 282.075C309.256 271.045 301.1 262.103 291.038 262.103C280.976 262.103 272.819 271.045 272.819 282.075C272.819 293.105 280.976 302.047 291.038 302.047Z" fill="#CFE869"/>
<path d="M137.644 194.522C135.17 192.088 131.188 192.123 128.75 194.601C126.312 197.079 126.343 201.062 128.817 203.496L134.789 209.37C137.263 211.804 141.246 211.769 143.683 209.291C146.121 206.813 146.091 202.83 143.616 200.396L137.644 194.522Z" fill="#CFE869"/>
<path d="M129.055 212.123C125.918 213.619 124.584 217.373 126.076 220.508C127.568 223.643 131.32 224.971 134.457 223.475L142.026 219.866C145.163 218.37 146.497 214.615 145.005 211.48C143.514 208.345 139.761 207.017 136.624 208.513L129.055 212.123Z" fill="#CFE869"/>
<path d="M157.718 199.827C159.163 196.666 157.772 192.936 154.613 191.496C151.454 190.056 147.722 191.451 146.278 194.612L142.793 202.24C141.349 205.401 142.74 209.131 145.899 210.571C149.058 212.011 152.79 210.616 154.234 207.454L157.718 199.827Z" fill="#CFE869"/>
<path d="M153.474 205.396C150.112 204.527 146.678 206.549 145.805 209.912C144.931 213.275 146.948 216.706 150.31 217.575L158.423 219.673C161.785 220.542 165.218 218.52 166.092 215.157C166.965 211.793 164.948 208.363 161.586 207.493L153.474 205.396Z" fill="#CFE869"/>
<path d="M152.072 215.784C151.148 212.437 147.684 210.477 144.336 211.406C140.987 212.335 139.022 215.801 139.947 219.148L142.177 227.225C143.102 230.572 146.565 232.532 149.914 231.603C153.262 230.675 155.227 227.208 154.303 223.861L152.072 215.784Z" fill="#CFE869"/>
<path d="M148.562 213.778C150.118 212.196 149.974 209.531 148.24 207.826C146.506 206.12 143.839 206.02 142.283 207.602C140.728 209.183 140.872 211.848 142.606 213.553C144.34 215.259 147.006 215.359 148.562 213.778Z" fill="#CFE869"/>
<path d="M42.7279 137.745C41.2615 129.602 33.4814 124.187 25.3506 125.651C17.2197 127.115 11.8172 134.904 13.2836 143.047L16.822 162.697C18.2884 170.84 26.0685 176.255 34.1993 174.791C42.3302 173.326 47.7327 165.538 46.2663 157.395L42.7279 137.745Z" fill="#EC6C16"/>
<path d="M1.82284 159.63C-6.31917 158.221 -14.0569 163.687 -15.4598 171.841C-16.8627 179.994 -11.3996 187.745 -3.25758 189.155L16.3888 192.556C24.5308 193.965 32.2685 188.498 33.6714 180.345C35.0743 172.192 29.6112 164.44 21.4692 163.031L1.82284 159.63Z" fill="#EC6C16"/>
<path d="M74.3244 175.151C81.4634 170.99 83.8792 161.819 79.7203 154.668C75.5614 147.516 66.4027 145.092 59.2638 149.253L42.0379 159.293C34.8989 163.454 32.4831 172.625 36.642 179.777C40.8009 186.928 49.9596 189.352 57.0985 185.191L74.3244 175.151Z" fill="#EC6C16"/>
<path d="M32.825 167.158C17.1846 169.974 6.79852 184.947 9.61931 200.612C12.4401 216.276 27.3969 226.685 43.0373 223.869C58.6776 221.053 69.0637 206.08 66.2429 190.415C63.4222 174.751 48.4654 164.341 32.825 167.158ZM38.7757 200.203C36.1129 200.683 33.5478 198.898 33.0676 196.231C32.5873 193.564 34.3685 190.996 37.0313 190.517C39.6942 190.037 42.2592 191.822 42.7395 194.489C43.2197 197.156 41.4386 199.724 38.7757 200.203Z" fill="#EC6C16"/>
<path d="M189.162 337.196C188.844 335.431 187.158 334.257 185.396 334.575C183.633 334.892 182.462 336.58 182.78 338.345L183.547 342.604C183.865 344.369 185.551 345.542 187.314 345.225C189.076 344.908 190.247 343.22 189.929 341.455L189.162 337.196Z" fill="#EC6C16"/>
<path d="M180.296 341.939C178.532 341.634 176.855 342.819 176.551 344.586C176.246 346.353 177.431 348.033 179.195 348.338L183.453 349.075C185.218 349.381 186.895 348.196 187.199 346.429C187.503 344.662 186.319 342.982 184.554 342.676L180.296 341.939Z" fill="#EC6C16"/>
<path d="M196.01 345.303C197.558 344.401 198.081 342.414 197.18 340.864C196.278 339.314 194.293 338.788 192.746 339.69L189.012 341.866C187.465 342.768 186.942 344.756 187.843 346.306C188.744 347.856 190.729 348.381 192.277 347.479L196.01 345.303Z" fill="#EC6C16"/>
<path d="M187.016 343.571C183.626 344.181 181.375 347.426 181.986 350.821C182.598 354.217 185.839 356.473 189.229 355.862C192.619 355.252 194.87 352.007 194.259 348.611C193.647 345.216 190.406 342.96 187.016 343.571ZM188.306 350.733C187.728 350.837 187.172 350.45 187.068 349.872C186.964 349.294 187.35 348.737 187.927 348.633C188.505 348.53 189.061 348.916 189.165 349.494C189.269 350.073 188.883 350.629 188.306 350.733Z" fill="#EC6C16"/>
<path d="M77.0989 391.726C67.3176 387.845 64.6399 374.159 71.1481 361.141L86.8527 329.745C93.3609 316.727 106.555 309.352 116.356 313.26C126.138 317.14 128.815 330.826 122.307 343.844L106.602 375.24C100.094 388.259 86.8998 395.634 77.0989 391.726Z" fill="#41BFED"/>
<path d="M37.845 336.008C37.4835 325.491 48.9254 315.51 63.4223 313.771L98.3674 309.567C112.845 307.801 124.878 314.938 125.24 325.454C125.601 335.971 114.159 345.952 99.6624 347.691L64.6894 351.914C50.2122 353.68 38.1786 346.544 37.8171 336.027L37.845 336.008Z" fill="#41BFED"/>
<path d="M38.596 344.413C44.4474 352.719 55.9162 354.713 64.2123 348.869C72.5085 343.024 74.4903 331.553 68.639 323.247C62.7876 314.942 51.3188 312.947 43.0226 318.792C34.7265 324.636 32.7446 336.107 38.596 344.413Z" fill="#41BFED"/>
<path d="M69.24 387.91C75.0914 396.216 86.5602 398.211 94.8563 392.366C103.152 386.521 105.134 375.05 99.283 366.745C93.4316 358.439 81.9628 356.444 73.6666 362.289C65.3705 368.134 63.3886 379.605 69.24 387.91Z" fill="#41BFED"/>
<path d="M41.8356 319.711C41.8356 319.711 45.1687 316.57 51.1332 315.624C57.0976 314.679 62.4899 313.927 62.4899 313.927L66.2575 327.681L46.4377 328.493L41.8356 319.711Z" fill="#41BFED"/>
<path d="M46.0524 350.557C46.0524 350.557 49.8442 352.27 54.1382 352.209C58.4322 352.148 61.4888 352.165 61.4888 352.165L63.4418 345.112L48.4119 347.81L46.0999 350.566L46.0524 350.557Z" fill="#41BFED"/>
<path d="M65.8713 377.091C65.8713 377.091 65.8495 374.101 66.9175 371.177C67.9856 368.254 70.1886 363.153 70.1886 363.153L77.1248 366.783L69.7714 378.602L65.8434 377.111L65.8713 377.091Z" fill="#41BFED"/>
<path d="M90.8437 394.484C90.8437 394.484 95.6267 392.867 98.8882 388.44C102.15 384.013 105.845 376.651 105.845 376.651L104.758 373.45L91.0408 384.701L90.8437 394.484Z" fill="#41BFED"/>
<path d="M277.751 127.728C277.006 130.608 273.26 131.84 269.379 130.47L260.02 127.166C256.139 125.797 253.607 122.354 254.36 119.467C255.105 116.587 258.851 115.355 262.732 116.724L272.091 120.029C275.972 121.398 278.504 124.841 277.751 127.728Z" fill="#41BFED"/>
<path d="M263.496 140.696C260.559 141.166 257.357 138.306 256.361 134.3L253.955 124.643C252.952 120.644 254.532 117.017 257.469 116.547C260.407 116.076 263.609 118.936 264.605 122.943L267.017 132.606C268.021 136.606 266.441 140.232 263.503 140.703L263.496 140.696Z" fill="#41BFED"/>
<path d="M265.828 140.19C267.953 138.257 268.11 134.969 266.18 132.847C264.249 130.724 260.961 130.571 258.836 132.504C256.711 134.437 256.554 137.725 258.485 139.847C260.416 141.97 263.703 142.123 265.828 140.19Z" fill="#41BFED"/>
<path d="M276.957 130.067C279.082 128.134 279.239 124.846 277.308 122.723C275.377 120.601 272.089 120.447 269.964 122.38C267.839 124.314 267.682 127.601 269.613 129.724C271.544 131.846 274.832 132 276.957 130.067Z" fill="#41BFED"/>
<path d="M258.784 140.148C258.784 140.148 257.786 139.323 257.312 137.683C256.837 136.043 256.437 134.556 256.437 134.556L260.163 133.017L261.087 138.549L258.784 140.148Z" fill="#41BFED"/>
<path d="M267.29 137.883C267.29 137.883 267.638 136.759 267.47 135.556C267.302 134.354 267.2 133.495 267.2 133.495L265.152 133.195L266.437 137.317L267.291 137.869L267.29 137.883Z" fill="#41BFED"/>
<path d="M274.039 131.391C274.039 131.391 273.201 131.502 272.343 131.305C271.486 131.108 269.977 130.669 269.977 130.669L270.753 128.596L274.326 130.244L274.046 131.398L274.039 131.391Z" fill="#41BFED"/>
<path d="M278.043 123.775C278.043 123.775 277.422 122.49 276.065 121.73C274.709 120.97 272.513 120.192 272.513 120.192L271.654 120.609L275.291 124.063L278.043 123.775Z" fill="#41BFED"/>
<path d="M183.766 102.223C176.156 102.033 170.962 93.3929 172.18 82.907L175.126 57.6165C176.345 47.1306 183.503 38.8093 191.133 39.0136C198.743 39.2038 203.937 47.8435 202.718 58.3294L199.773 83.6199C198.554 94.1058 191.396 102.427 183.766 102.223Z" fill="#F7D134"/>
<path d="M143.332 74.1492C140.494 67.0855 145.817 57.4302 155.251 52.6175L177.986 41.0068C187.399 36.18 197.343 38.0213 200.181 45.085C203.019 52.1486 197.695 61.8039 188.262 66.6167L165.513 78.2477C156.1 83.0745 146.155 81.2332 143.318 74.1695L143.332 74.1492Z" fill="#F7D134"/>
<path d="M145.914 79.6792C151.941 83.864 160.235 82.3491 164.438 76.2956C168.641 70.2421 167.162 61.9423 161.135 57.7575C155.107 53.5727 146.814 55.0876 142.611 61.1412C138.408 67.1947 139.887 75.4945 145.914 79.6792Z" fill="#F7D134"/>
<path d="M177.48 101.596C183.507 105.78 191.801 104.266 196.004 98.212C200.207 92.1585 198.728 83.8587 192.7 79.6739C186.673 75.4891 178.38 77.004 174.177 83.0575C169.974 89.1111 171.453 97.4108 177.48 101.596Z" fill="#F7D134"/>
<path d="M142.03 62.0641C142.03 62.0641 143.523 59.0923 147.348 56.9555C151.172 54.8187 154.655 52.9572 154.655 52.9572L160.607 61.3697L147.325 66.8855L142.03 62.0641Z" fill="#F7D134"/>
<path d="M152.501 81.9921C152.501 81.9921 155.502 82.2073 158.408 81.0906C161.314 79.9738 163.398 79.2203 163.398 79.2203L162.988 73.9327L153.429 79.532L152.535 81.9858L152.501 81.9921Z" fill="#F7D134"/>
<path d="M172.522 95.0791C172.522 95.0791 171.77 93.0502 171.776 90.794C171.782 88.5378 172.024 84.5163 172.024 84.5163L177.637 85.2489L175.547 95.1302L172.508 95.0995L172.522 95.0791Z" fill="#F7D134"/>
<path d="M193.795 100.657C193.795 100.657 196.651 98.36 197.778 94.5317C198.906 90.7034 199.605 84.7694 199.605 84.7694L198.077 82.8645L191.518 93.9528L193.795 100.657Z" fill="#F7D134"/>
</g>
</svg>
