<svg width="1920" height="624" viewBox="0 0 1920 624" fill="none" xmlns="http://www.w3.org/2000/svg">
<mask id="mask0_1073_5884" style="mask-type:alpha" maskUnits="userSpaceOnUse" x="0" y="0" width="1920" height="624">
<rect width="1920" height="624" fill="white"/>
</mask>
<g mask="url(#mask0_1073_5884)">
<path d="M1902.86 327.247C1902.86 301.376 1881.86 280.402 1855.96 280.402C1830.05 280.402 1809.05 301.376 1809.05 327.247V389.675C1809.05 415.547 1830.05 436.52 1855.96 436.52C1881.86 436.52 1902.86 415.547 1902.86 389.675V327.247Z" fill="#CFE869"/>
<path d="M1764.45 373.596C1740.11 364.748 1713.19 377.283 1704.33 401.594C1695.47 425.906 1708.02 452.788 1732.37 461.636L1791.11 482.988C1815.45 491.836 1842.37 479.301 1851.23 454.99C1860.09 430.678 1847.54 403.797 1823.2 394.948L1764.45 373.596Z" fill="#CFE869"/>
<path d="M1979.6 461.63C2003.94 452.781 2016.49 425.9 2007.63 401.588C1998.77 377.277 1971.85 364.742 1947.51 373.59L1888.77 394.942C1864.42 403.79 1851.87 430.672 1860.73 454.984C1869.59 479.295 1896.51 491.83 1920.85 482.981L1979.6 461.63Z" fill="#CFE869"/>
<path d="M1927.82 468.188C1914.87 445.782 1886.18 438.106 1863.74 451.041C1841.31 463.977 1833.62 492.627 1846.57 515.033L1877.83 569.097C1890.78 591.502 1919.47 599.179 1941.91 586.243C1964.34 573.307 1972.03 544.657 1959.08 522.252L1927.82 468.188Z" fill="#CFE869"/>
<path d="M1865.3 515.033C1878.25 492.627 1870.56 463.977 1848.13 451.042C1825.69 438.106 1797.01 445.782 1784.05 468.188L1752.8 522.252C1739.84 544.657 1747.53 573.307 1769.97 586.243C1792.4 599.179 1821.09 591.502 1834.04 569.097L1865.3 515.033Z" fill="#CFE869"/>
<path d="M1857.62 485.896C1874.15 485.896 1887.56 471.202 1887.56 453.076C1887.56 434.949 1874.15 420.255 1857.62 420.255C1841.08 420.255 1827.68 434.949 1827.68 453.076C1827.68 471.202 1841.08 485.896 1857.62 485.896Z" fill="#CFE869"/>
<path d="M243.705 399.095C256.049 383.788 253.63 361.359 238.302 348.998C222.974 336.637 200.542 339.026 188.198 354.333L158.412 391.269C146.068 406.576 148.487 429.006 163.815 441.366C179.143 453.727 201.575 451.338 213.919 436.031L243.705 399.095Z" fill="#CFE869"/>
<path d="M139.699 360.48C129.518 343.629 107.611 338.202 90.7686 348.359C73.9266 358.516 68.5272 380.409 78.7087 397.26L103.276 437.919C113.458 454.77 135.365 460.196 152.207 450.04C169.049 439.883 174.448 417.99 164.267 401.139L139.699 360.48Z" fill="#CFE869"/>
<path d="M224.985 515.214C243.61 521.594 263.863 511.678 270.22 493.067C276.577 474.455 266.632 454.195 248.006 447.816L203.064 432.421C184.439 426.042 164.187 435.958 157.829 454.569C151.472 473.181 161.417 493.44 180.043 499.82L224.985 515.214Z" fill="#CFE869"/>
<path d="M191.223 494.39C194.249 474.954 180.938 456.724 161.492 453.673C142.046 450.622 123.828 463.905 120.802 483.342L113.499 530.242C110.473 549.679 123.784 567.909 143.23 570.96C162.676 574.011 180.894 560.727 183.92 541.29L191.223 494.39Z" fill="#CFE869"/>
<path d="M131.881 492.277C150.235 485.201 159.357 464.582 152.254 446.224C145.152 427.866 124.516 418.72 106.161 425.796L61.8736 442.87C43.5195 449.947 34.398 470.565 41.5003 488.923C48.6025 507.282 69.239 516.428 87.5931 509.351L131.881 492.277Z" fill="#CFE869"/>
<path d="M141.238 471.373C151.021 479.262 165.963 476.964 174.612 466.239C183.26 455.514 182.34 440.425 172.557 432.536C162.774 424.646 147.833 426.945 139.184 437.67C130.536 448.394 131.455 463.484 141.238 471.373Z" fill="#CFE869"/>
<path d="M1605.54 339.196C1601.47 335.196 1594.93 335.254 1590.92 339.327C1586.92 343.399 1586.97 349.943 1591.04 353.943L1600.85 363.596C1604.92 367.597 1611.46 367.538 1615.47 363.466C1619.47 359.394 1619.42 352.85 1615.35 348.849L1605.54 339.196Z" fill="#CFE869"/>
<path d="M1591.42 368.119C1586.27 370.578 1584.08 376.747 1586.53 381.899C1588.98 387.051 1595.15 389.235 1600.3 386.776L1612.74 380.844C1617.89 378.385 1620.09 372.216 1617.64 367.064C1615.18 361.912 1609.02 359.729 1603.86 362.187L1591.42 368.119Z" fill="#CFE869"/>
<path d="M1638.53 347.913C1640.9 342.718 1638.62 336.588 1633.42 334.222C1628.23 331.856 1622.1 334.149 1619.73 339.344L1614 351.879C1611.63 357.074 1613.91 363.203 1619.1 365.569C1624.29 367.936 1630.43 365.643 1632.8 360.448L1638.53 347.913Z" fill="#CFE869"/>
<path d="M1631.55 357.066C1626.03 355.637 1620.38 358.96 1618.95 364.487C1617.51 370.014 1620.83 375.652 1626.35 377.08L1639.68 380.527C1645.21 381.955 1650.85 378.632 1652.29 373.105C1653.72 367.579 1650.41 361.94 1644.88 360.512L1631.55 357.066Z" fill="#CFE869"/>
<path d="M1629.25 374.137C1627.73 368.636 1622.04 365.415 1616.54 366.941C1611.03 368.468 1607.8 374.164 1609.32 379.665L1612.99 392.937C1614.51 398.438 1620.2 401.659 1625.7 400.133C1631.2 398.606 1634.43 392.91 1632.91 387.409L1629.25 374.137Z" fill="#CFE869"/>
<path d="M1623.48 370.84C1626.04 368.241 1625.8 363.862 1622.95 361.059C1620.1 358.256 1615.72 358.091 1613.16 360.69C1610.61 363.289 1610.84 367.669 1613.69 370.471C1616.54 373.274 1620.92 373.439 1623.48 370.84Z" fill="#CFE869"/>
<path d="M1449.56 245.892C1447.15 232.509 1434.36 223.611 1421 226.017C1407.64 228.423 1398.76 241.223 1401.17 254.605L1406.99 286.896C1409.4 300.278 1422.18 309.177 1435.54 306.77C1448.91 304.364 1457.78 291.565 1455.37 278.183L1449.56 245.892Z" fill="#EC6C16"/>
<path d="M1382.34 281.857C1368.96 279.541 1356.24 288.525 1353.94 301.923C1351.63 315.321 1360.61 328.06 1373.99 330.376L1406.27 335.965C1419.65 338.281 1432.37 329.297 1434.68 315.899C1436.98 302.5 1428 289.761 1414.62 287.445L1382.34 281.857Z" fill="#EC6C16"/>
<path d="M1501.48 307.363C1513.21 300.525 1517.18 285.455 1510.35 273.702C1503.52 261.95 1488.46 257.966 1476.73 264.804L1448.42 281.304C1436.69 288.142 1432.72 303.213 1439.56 314.965C1446.39 326.717 1461.44 330.701 1473.17 323.863L1501.48 307.363Z" fill="#EC6C16"/>
<path d="M1433.29 294.228C1407.58 298.857 1390.52 323.462 1395.15 349.204C1399.79 374.947 1424.37 392.053 1450.07 387.424C1475.77 382.796 1492.84 358.19 1488.2 332.448C1483.57 306.706 1458.99 289.6 1433.29 294.228ZM1443.06 348.534C1438.69 349.322 1434.47 346.388 1433.68 342.005C1432.9 337.623 1435.82 333.403 1440.2 332.615C1444.57 331.827 1448.79 334.761 1449.58 339.143C1450.37 343.526 1447.44 347.746 1443.06 348.534Z" fill="#EC6C16"/>
<path d="M91.3884 117.273C95.6945 102.901 87.5517 87.7638 73.201 83.4644C58.8503 79.165 43.7261 87.3312 39.4201 101.704L29.0298 136.385C24.7238 150.758 32.8666 165.895 47.2173 170.194C61.5679 174.494 76.6922 166.328 80.9982 151.955L91.3884 117.273Z" fill="#EC6C16"/>
<path d="M7.28721 119.125C-4.72527 110.169 -21.7224 112.666 -30.677 124.702C-39.6315 136.737 -37.1526 153.754 -25.1401 162.71L3.84549 184.32C15.858 193.276 32.8551 190.78 41.8097 178.744C50.7642 166.709 48.2853 149.692 36.2728 140.736L7.28721 119.125Z" fill="#EC6C16"/>
<path d="M111.815 203.68C126.773 202.804 138.2 189.953 137.338 174.977C136.476 160 123.652 148.569 108.694 149.445L72.6006 151.558C57.6426 152.434 46.2155 165.285 47.0774 180.261C47.9392 195.238 60.7638 206.669 75.7217 205.793L111.815 203.68Z" fill="#EC6C16"/>
<path d="M51.2548 156.723C23.6499 148.452 -5.42555 164.151 -13.7086 191.799C-21.9916 219.446 -6.33754 248.546 21.2673 256.816C48.8721 265.087 77.9476 249.388 86.2306 221.74C94.5136 194.092 78.8596 164.993 51.2548 156.723ZM33.781 215.047C29.0811 213.639 26.3965 208.649 27.8067 203.942C29.2169 199.235 34.2033 196.542 38.9032 197.95C43.603 199.358 46.2876 204.349 44.8774 209.056C43.4672 213.763 38.4808 216.456 33.781 215.047Z" fill="#EC6C16"/>
<path d="M1690.2 573.658C1689.68 570.758 1686.91 568.829 1684.01 569.351C1681.12 569.872 1679.19 572.646 1679.71 575.547L1680.97 582.545C1681.5 585.446 1684.27 587.374 1687.16 586.853C1690.06 586.331 1691.98 583.557 1691.46 580.657L1690.2 573.658Z" fill="#EC6C16"/>
<path d="M1675.63 581.452C1672.73 580.95 1669.97 582.898 1669.48 585.802C1668.98 588.705 1670.92 591.467 1673.82 591.968L1680.82 593.18C1683.72 593.682 1686.47 591.735 1686.97 588.831C1687.47 585.927 1685.53 583.166 1682.63 582.664L1675.63 581.452Z" fill="#EC6C16"/>
<path d="M1701.45 586.98C1704 585.498 1704.86 582.232 1703.38 579.684C1701.89 577.137 1698.63 576.274 1696.09 577.756L1689.95 581.332C1687.41 582.814 1686.55 586.08 1688.03 588.628C1689.51 591.175 1692.78 592.038 1695.32 590.556L1701.45 586.98Z" fill="#EC6C16"/>
<path d="M1686.67 584.134C1681.1 585.137 1677.4 590.47 1678.41 596.05C1679.41 601.629 1684.74 605.337 1690.31 604.333C1695.88 603.33 1699.58 597.997 1698.57 592.418C1697.57 586.839 1692.24 583.131 1686.67 584.134ZM1688.79 595.904C1687.84 596.075 1686.93 595.439 1686.76 594.489C1686.59 593.54 1687.22 592.625 1688.17 592.454C1689.12 592.283 1690.03 592.919 1690.2 593.869C1690.37 594.819 1689.74 595.734 1688.79 595.904Z" fill="#EC6C16"/>
<path d="M502.675 441.636C498.298 440.289 493.659 442.74 492.314 447.11C490.969 451.48 493.427 456.114 497.804 457.462L508.365 460.712C512.742 462.059 517.38 459.609 518.725 455.238C520.07 450.868 517.612 446.234 513.236 444.887L502.675 441.636Z" fill="#EC6C16"/>
<path d="M503.046 467.309C500.285 470.955 501.008 476.148 504.661 478.909C508.314 481.669 513.513 480.952 516.274 477.306L522.936 468.509C525.697 464.863 524.974 459.67 521.321 456.909C517.668 454.149 512.469 454.866 509.708 458.512L503.046 467.309Z" fill="#EC6C16"/>
<path d="M529.091 435.6C528.858 431.033 524.962 427.516 520.389 427.745C515.816 427.974 512.298 431.862 512.531 436.429L513.094 447.449C513.327 452.017 517.223 455.534 521.796 455.305C526.369 455.076 529.887 451.188 529.654 446.621L529.091 435.6Z" fill="#EC6C16"/>
<path d="M514.619 453.978C512.032 462.384 516.757 471.294 525.176 473.885C533.595 476.476 542.512 471.765 545.099 463.359C547.687 454.953 542.962 446.043 534.542 443.452C526.123 440.86 517.206 445.571 514.619 453.978ZM532.38 459.444C531.939 460.875 530.41 461.683 528.977 461.242C527.543 460.801 526.733 459.273 527.174 457.842C527.614 456.41 529.143 455.603 530.577 456.044C532.01 456.485 532.82 458.013 532.38 459.444Z" fill="#EC6C16"/>
<path d="M1506.04 663.268C1489.97 656.891 1485.57 634.401 1496.26 613.007L1522.07 561.413C1532.77 540.019 1554.45 527.899 1570.56 534.321C1586.63 540.698 1591.03 563.189 1580.33 584.582L1554.53 636.176C1543.83 657.57 1522.15 669.69 1506.04 663.268Z" fill="#41BFED"/>
<path d="M1441.53 571.704C1440.94 554.422 1459.74 538.019 1483.56 535.163L1540.99 528.254C1564.78 525.352 1584.56 537.079 1585.15 554.362C1585.75 571.644 1566.94 588.047 1543.12 590.903L1485.65 597.844C1461.86 600.746 1442.08 589.019 1441.49 571.736L1441.53 571.704Z" fill="#41BFED"/>
<path d="M1442.77 585.518C1452.38 599.167 1471.23 602.445 1484.86 592.841C1498.5 583.236 1501.75 564.385 1492.14 550.736C1482.52 537.087 1463.67 533.809 1450.04 543.414C1436.41 553.018 1433.15 571.869 1442.77 585.518Z" fill="#41BFED"/>
<path d="M1493.13 656.999C1502.74 670.648 1521.59 673.926 1535.22 664.321C1548.86 654.716 1552.11 635.865 1542.5 622.216C1532.88 608.568 1514.03 605.289 1500.4 614.894C1486.77 624.499 1483.51 643.35 1493.13 656.999Z" fill="#41BFED"/>
<path d="M1448.09 544.925C1448.09 544.925 1453.57 539.763 1463.37 538.209C1473.17 536.655 1482.03 535.42 1482.03 535.42L1488.23 558.021L1455.66 559.356L1448.09 544.925Z" fill="#41BFED"/>
<path d="M1455.02 595.614C1455.02 595.614 1461.25 598.428 1468.31 598.328C1475.36 598.228 1480.39 598.257 1480.39 598.257L1483.6 586.665L1458.9 591.099L1455.1 595.628L1455.02 595.614Z" fill="#41BFED"/>
<path d="M1487.59 639.22C1487.59 639.22 1487.55 634.305 1489.31 629.501C1491.06 624.697 1494.69 616.315 1494.69 616.315L1506.08 622.28L1494 641.702L1487.54 639.252L1487.59 639.22Z" fill="#41BFED"/>
<path d="M393.164 369.847C384.167 366.277 381.704 353.689 387.69 341.714L402.136 312.835C408.122 300.86 420.259 294.076 429.274 297.671C438.271 301.24 440.734 313.829 434.748 325.804L420.302 354.683C414.316 366.657 402.179 373.441 393.164 369.847Z" fill="#41BFED"/>
<path d="M357.055 318.596C356.722 308.923 367.247 299.741 380.582 298.143L412.725 294.276C426.042 292.651 437.111 299.215 437.443 308.889C437.776 318.562 427.251 327.744 413.916 329.343L381.747 333.227C368.43 334.852 357.362 328.288 357.029 318.614L357.055 318.596Z" fill="#41BFED"/>
<path d="M357.748 326.328C363.13 333.968 373.679 335.803 381.31 330.427C388.941 325.051 390.764 314.499 385.382 306.859C380 299.22 369.451 297.385 361.819 302.761C354.188 308.137 352.365 318.688 357.748 326.328Z" fill="#41BFED"/>
<path d="M385.933 366.339C391.316 373.979 401.865 375.814 409.496 370.437C417.127 365.061 418.95 354.51 413.568 346.87C408.185 339.23 397.636 337.395 390.005 342.772C382.374 348.148 380.551 358.699 385.933 366.339Z" fill="#41BFED"/>
<path d="M360.728 303.608C360.728 303.608 363.794 300.718 369.28 299.848C374.766 298.979 379.726 298.287 379.726 298.287L383.192 310.938L364.961 311.685L360.728 303.608Z" fill="#41BFED"/>
<path d="M364.605 331.979C364.605 331.979 368.093 333.554 372.043 333.498C375.993 333.442 378.804 333.458 378.804 333.458L380.601 326.97L366.776 329.452L364.649 331.987L364.605 331.979Z" fill="#41BFED"/>
<path d="M382.835 356.387C382.835 356.387 382.815 353.636 383.798 350.947C384.78 348.258 386.806 343.566 386.806 343.566L393.187 346.905L386.423 357.777L382.81 356.405L382.835 356.387Z" fill="#41BFED"/>
<path d="M405.807 372.384C405.807 372.384 410.206 370.898 413.206 366.825C416.206 362.753 419.605 355.981 419.605 355.981L418.605 353.037L405.988 363.386L405.807 372.384Z" fill="#41BFED"/>
<path d="M1835.78 229.432C1834.56 234.165 1828.4 236.189 1822.02 233.939L1806.64 228.509C1800.27 226.259 1796.1 220.601 1797.34 215.857C1798.57 211.123 1804.72 209.099 1811.1 211.349L1826.48 216.78C1832.86 219.03 1837.02 224.688 1835.78 229.432Z" fill="#41BFED"/>
<path d="M1812.36 250.741C1807.53 251.514 1802.27 246.814 1800.63 240.231L1796.68 224.362C1795.03 217.789 1797.63 211.829 1802.45 211.056C1807.28 210.283 1812.54 214.983 1814.18 221.567L1818.14 237.447C1819.79 244.02 1817.2 249.98 1812.37 250.753L1812.36 250.741Z" fill="#41BFED"/>
<path d="M1816.19 249.91C1819.68 246.734 1819.94 241.331 1816.76 237.843C1813.59 234.355 1808.19 234.103 1804.7 237.279C1801.2 240.456 1800.95 245.859 1804.12 249.347C1807.29 252.835 1812.69 253.087 1816.19 249.91Z" fill="#41BFED"/>
<path d="M1834.48 233.275C1837.97 230.098 1838.23 224.695 1835.05 221.207C1831.88 217.719 1826.48 217.467 1822.98 220.644C1819.49 223.82 1819.23 229.223 1822.41 232.711C1825.58 236.199 1830.98 236.451 1834.48 233.275Z" fill="#41BFED"/>
<path d="M1804.61 249.84C1804.61 249.84 1802.97 248.485 1802.19 245.79C1801.41 243.094 1800.75 240.651 1800.75 240.651L1806.88 238.121L1808.4 247.212L1804.61 249.84Z" fill="#41BFED"/>
<path d="M1818.59 246.118C1818.59 246.118 1819.16 244.271 1818.89 242.295C1818.61 240.319 1818.44 238.908 1818.44 238.908L1815.08 238.415L1817.19 245.189L1818.59 246.096L1818.59 246.118Z" fill="#41BFED"/>
<path d="M1829.68 235.45C1829.68 235.45 1828.3 235.633 1826.89 235.309C1825.48 234.985 1823.01 234.263 1823.01 234.263L1824.28 230.856L1830.15 233.565L1829.69 235.462L1829.68 235.45Z" fill="#41BFED"/>
<path d="M1836.26 222.936C1836.26 222.936 1835.24 220.824 1833.01 219.575C1830.78 218.327 1827.17 217.048 1827.17 217.048L1825.76 217.733L1831.74 223.409L1836.26 222.936Z" fill="#41BFED"/>
<path d="M1703.14 188.834C1690.63 188.521 1682.1 174.323 1684.1 157.091L1688.94 115.53C1690.94 98.2985 1702.71 84.6237 1715.25 84.9595C1727.75 85.2721 1736.29 99.47 1734.28 116.702L1729.44 158.263C1727.44 175.495 1715.68 189.169 1703.14 188.834Z" fill="#F7D134"/>
<path d="M1636.69 142.7C1632.03 131.092 1640.78 115.225 1656.28 107.316L1693.64 88.2353C1709.11 80.3032 1725.45 83.3291 1730.12 94.9371C1734.78 106.545 1726.03 122.412 1710.53 130.321L1673.14 149.435C1657.67 157.367 1641.33 154.341 1636.67 142.733L1636.69 142.7Z" fill="#F7D134"/>
<path d="M1640.94 151.788C1650.84 158.665 1664.47 156.176 1671.38 146.228C1678.28 136.28 1675.85 122.641 1665.95 115.763C1656.04 108.886 1642.41 111.376 1635.51 121.324C1628.6 131.272 1631.03 144.911 1640.94 151.788Z" fill="#F7D134"/>
<path d="M1692.81 187.804C1702.72 194.681 1716.34 192.192 1723.25 182.244C1730.16 172.296 1727.73 158.656 1717.82 151.779C1707.92 144.902 1694.29 147.392 1687.38 157.34C1680.48 167.288 1682.91 180.927 1692.81 187.804Z" fill="#F7D134"/>
<path d="M1634.55 122.84C1634.55 122.84 1637.01 117.956 1643.29 114.445C1649.58 110.933 1655.3 107.874 1655.3 107.874L1665.08 121.699L1643.25 130.763L1634.55 122.84Z" fill="#F7D134"/>
<path d="M1651.76 155.588C1651.76 155.588 1656.69 155.942 1661.47 154.107C1666.24 152.271 1669.67 151.033 1669.67 151.033L1668.99 142.344L1653.28 151.545L1651.82 155.578L1651.76 155.588Z" fill="#F7D134"/>
<path d="M1684.66 177.095C1684.66 177.095 1683.43 173.761 1683.44 170.053C1683.45 166.345 1683.84 159.736 1683.84 159.736L1693.07 160.94L1689.63 177.179L1684.64 177.128L1684.66 177.095Z" fill="#F7D134"/>
<path d="M1719.62 186.261C1719.62 186.261 1724.31 182.486 1726.17 176.195C1728.02 169.904 1729.17 160.152 1729.17 160.152L1726.66 157.021L1715.88 175.243L1719.62 186.261Z" fill="#F7D134"/>
<path d="M283.847 210.165C282.543 206.618 277.645 205.828 272.901 208.413L261.46 214.649C256.716 217.234 253.939 222.2 255.253 225.755C256.557 229.302 261.455 230.092 266.199 227.508L277.64 221.271C282.384 218.686 285.161 213.72 283.847 210.165Z" fill="#F7D134"/>
<path d="M264.175 196.503C260.396 196.521 256.698 200.88 255.937 206.245L254.097 219.179C253.326 224.538 255.78 228.868 259.559 228.85C263.339 228.832 267.037 224.474 267.798 219.108L269.645 206.164C270.416 200.805 267.962 196.475 264.183 196.493L264.175 196.503Z" fill="#F7D134"/>
<path d="M267.192 196.66C270.125 198.696 270.735 202.893 268.555 206.033C266.374 209.173 262.229 210.068 259.297 208.032C256.364 205.995 255.754 201.799 257.934 198.659C260.114 195.519 264.259 194.624 267.192 196.66Z" fill="#F7D134"/>
<path d="M282.549 207.324C285.482 209.36 286.092 213.557 283.912 216.697C281.732 219.837 277.587 220.732 274.654 218.696C271.721 216.659 271.111 212.463 273.291 209.323C275.472 206.183 279.617 205.288 282.549 207.324Z" fill="#F7D134"/>
<path d="M258.275 198.208C258.275 198.208 257.114 199.481 256.718 201.692C256.322 203.902 256.001 205.9 256.001 205.9L260.913 207.09L261.391 199.777L258.275 198.208Z" fill="#F7D134"/>
<path d="M269.33 199.318C269.33 199.318 269.91 200.691 269.848 202.273C269.786 203.856 269.763 204.982 269.763 204.982L267.208 205.803L268.319 200.227L269.332 199.336L269.33 199.318Z" fill="#F7D134"/>
<path d="M278.69 206.238C278.69 206.238 277.615 206.273 276.553 206.709C275.492 207.144 273.636 208.029 273.636 208.029L274.877 210.532L279.197 207.653L278.698 206.228L278.69 206.238Z" fill="#F7D134"/>
<path d="M284.712 215.187C284.712 215.187 284.086 216.972 282.463 218.237C280.84 219.503 278.157 220.97 278.157 220.97L277.016 220.615L281.191 215.4L284.712 215.187Z" fill="#F7D134"/>
<path d="M480.725 578.263C482.62 590.628 470.148 601.532 452.833 602.597L411.07 605.154C393.754 606.219 378.221 597.049 376.342 584.647C374.447 572.282 386.919 561.378 404.234 560.313L445.998 557.756C463.313 556.691 478.846 565.861 480.725 578.263Z" fill="#F7D134"/>
<path d="M447.018 651.799C436.413 658.434 419.253 652.619 408.737 638.753L383.373 605.337C372.839 591.508 372.939 574.888 383.543 568.253C394.148 561.617 411.308 567.433 421.825 581.299L447.226 614.731C457.759 628.561 457.66 645.18 447.055 651.816L447.018 651.799Z" fill="#F7D134"/>
<path d="M455.217 646.021C460.242 635.06 455.39 622.083 444.381 617.036C433.372 611.99 420.374 616.785 415.349 627.747C410.325 638.709 415.177 651.686 426.186 656.732C437.195 661.778 450.193 656.983 455.217 646.021Z" fill="#F7D134"/>
<path d="M481.53 588.613C486.554 577.651 481.703 564.674 470.693 559.628C459.684 554.582 446.686 559.377 441.662 570.339C436.638 581.3 441.489 594.277 452.499 599.324C463.508 604.37 476.506 599.574 481.53 588.613Z" fill="#F7D134"/>
<path d="M457.05 634.697C457.05 634.697 456.53 629.78 453.882 625.403C451.234 621.025 449.412 617.873 449.412 617.873L440.977 620.067L452.802 633.909L457.03 634.644L457.05 634.697Z" fill="#F7D134"/>
<path d="M472.424 598.52C472.424 598.52 469.359 600.324 465.708 600.967C462.056 601.611 455.481 602.384 455.481 602.384L455.041 593.093L471.63 593.612L472.461 598.537L472.424 598.52Z" fill="#F7D134"/>
<path d="M475.287 562.493C475.287 562.493 470.745 558.539 464.225 557.824C457.706 557.108 447.905 557.695 447.905 557.695L445.266 560.719L465.101 568.117L475.287 562.493Z" fill="#F7D134"/>
</g>
</svg>
