<svg width="196" height="40" viewBox="0 0 196 40" fill="none" xmlns="http://www.w3.org/2000/svg">
<path d="M191.075 37.4955C187.5 39.5792 182.332 37.5201 179.533 32.8842L172.785 21.7013C169.986 17.0654 170.624 11.628 174.212 9.54435C177.787 7.46066 182.956 9.51969 185.755 14.1556L192.502 25.3385C195.301 29.9744 194.664 35.4118 191.075 37.4955Z" fill="#41BFED"/>
<path d="M163.402 37.4892C159.827 35.4055 159.19 29.9435 162.002 25.2953L168.778 14.0754C171.577 9.42712 176.759 7.35576 180.334 9.43946C183.909 11.5232 184.546 16.9851 181.734 21.6334L174.958 32.8533C172.159 37.5015 166.977 39.5729 163.402 37.4892Z" fill="#41BFED"/>
<path d="M166.367 39.0198C170.492 39.0198 173.835 36.0444 173.835 32.3741C173.835 28.7039 170.492 25.7285 166.367 25.7285C162.243 25.7285 158.898 28.7039 158.898 32.3741C158.898 36.0444 162.243 39.0198 166.367 39.0198Z" fill="#41BFED"/>
<path d="M187.951 39.0198C192.076 39.0198 195.419 36.0444 195.419 32.3741C195.419 28.7039 192.076 25.7285 187.951 25.7285C183.827 25.7285 180.482 28.7039 180.482 32.3741C180.482 36.0444 183.827 39.0198 187.951 39.0198Z" fill="#41BFED"/>
<path d="M158.927 32.9208C158.927 32.9208 158.663 31.281 159.744 29.3206C160.825 27.3602 161.836 25.6094 161.836 25.6094L167.282 27.3602L162.917 33.3893L158.941 32.9331L158.927 32.9208Z" fill="#41BFED"/>
<path d="M170.134 38.099C170.134 38.099 171.589 37.3346 172.572 36.0523C173.556 34.77 174.277 33.8699 174.277 33.8699L172.392 31.8232L169.773 36.829L170.148 38.0867L170.134 38.099Z" fill="#41BFED"/>
<path d="M183.597 37.7692C183.597 37.7692 182.599 37.1528 181.879 36.228C181.158 35.3033 179.98 33.5895 179.98 33.5895L182.807 32.2949L185.01 36.9308L183.597 37.7816V37.7692Z" fill="#41BFED"/>
<path d="M195.201 34.0078C195.201 34.0078 195.782 32.257 195.075 30.3705C194.369 28.4841 192.789 25.8579 192.789 25.8579L191.473 25.5127L191.999 31.9117L195.201 34.0078Z" fill="#41BFED"/>
<path d="M88.5343 37.4955C84.9594 39.5792 79.791 37.5201 76.9921 32.8842L70.2441 21.7013C67.4452 17.0654 68.0825 11.628 71.6713 9.54435C75.2462 7.46066 80.4145 9.51969 83.2135 14.1556L89.9615 25.3385C92.7604 29.9744 92.123 35.4118 88.5343 37.4955Z" fill="#F7D134"/>
<path d="M60.8765 37.4892C57.3016 35.4055 56.6642 29.9435 59.477 25.2953L66.2527 14.0754C69.0516 9.42712 74.2338 7.35576 77.8087 9.43946C81.3836 11.5232 82.021 16.9851 79.2082 21.6334L72.4325 32.8533C69.6336 37.5015 64.4514 39.5729 60.8765 37.4892Z" fill="#F7D134"/>
<path d="M63.8454 39.0198C67.9701 39.0198 71.3139 36.0444 71.3139 32.3741C71.3139 28.7039 67.9701 25.7285 63.8454 25.7285C59.7207 25.7285 56.377 28.7039 56.377 32.3741C56.377 36.0444 59.7207 39.0198 63.8454 39.0198Z" fill="#F7D134"/>
<path d="M85.4353 39.0198C89.56 39.0198 92.9038 36.0444 92.9038 32.3741C92.9038 28.7039 89.56 25.7285 85.4353 25.7285C81.3106 25.7285 77.9668 28.7039 77.9668 32.3741C77.9668 36.0444 81.3106 39.0198 85.4353 39.0198Z" fill="#F7D134"/>
<path d="M56.4052 32.9208C56.4052 32.9208 56.1419 31.281 57.2227 29.3206C58.3035 27.3602 59.315 25.6094 59.315 25.6094L64.7605 27.3602L60.3958 33.3893L56.4191 32.9331L56.4052 32.9208Z" fill="#F7D134"/>
<path d="M67.6122 38.099C67.6122 38.099 69.0671 37.3346 70.0509 36.0523C71.0347 34.77 71.7552 33.8699 71.7552 33.8699L69.8708 31.8232L67.252 36.829L67.6261 38.0867L67.6122 38.099Z" fill="#F7D134"/>
<path d="M81.0559 37.7692C81.0559 37.7692 80.0583 37.1528 79.3377 36.228C78.6172 35.3033 77.4395 33.5895 77.4395 33.5895L80.2661 32.2949L82.4693 36.9308L81.0559 37.7816V37.7692Z" fill="#F7D134"/>
<path d="M92.6726 34.0078C92.6726 34.0078 93.2546 32.257 92.5479 30.3705C91.8413 28.4841 90.2617 25.8579 90.2617 25.8579L88.9453 25.5127L89.4719 31.9117L92.6726 34.0078Z" fill="#F7D134"/>
<path d="M29.5425 5.93052C29.5425 2.65518 26.5586 0 22.8777 0C19.1968 0 16.2129 2.65518 16.2129 5.93052V13.8338C16.2129 17.1091 19.1968 19.7643 22.8777 19.7643C26.5586 19.7643 29.5425 17.1091 29.5425 13.8338V5.93052Z" fill="#CFE869"/>
<path d="M9.88169 11.8007C6.42279 10.6804 2.59823 12.2674 1.3393 15.3452C0.0803659 18.423 1.86378 21.8261 5.32267 22.9464L13.6688 25.6495C17.1277 26.7696 20.9523 25.1828 22.2113 22.105C23.4701 19.0272 21.6867 15.624 18.2279 14.5037L9.88169 11.8007Z" fill="#CFE869"/>
<path d="M40.4544 22.9464C43.9133 21.8262 45.6968 18.423 44.4378 15.3452C43.1788 12.2674 39.3544 10.6804 35.8955 11.8007L27.5493 14.5038C24.0904 15.6239 22.307 19.0271 23.5658 22.105C24.8248 25.1828 28.6494 26.7697 32.1083 25.6495L40.4544 22.9464Z" fill="#CFE869"/>
<path d="M33.1077 23.7729C31.2673 20.9363 27.1911 19.9645 24.0034 21.6021C20.8158 23.2399 19.7235 26.8669 21.564 29.7034L26.0049 36.5479C27.8453 39.3843 31.9214 40.3563 35.1091 38.7185C38.2969 37.0809 39.3891 33.4538 37.5486 30.6174L33.1077 23.7729Z" fill="#CFE869"/>
<path d="M24.2068 29.7035C26.0473 26.8669 24.9552 23.2398 21.7674 21.6022C18.5797 19.9645 14.5035 20.9364 12.6631 23.7729L8.22215 30.6173C6.38172 33.4539 7.47392 37.0808 10.6616 38.7186C13.8495 40.3562 17.9255 39.3844 19.7659 36.5478L24.2068 29.7035Z" fill="#CFE869"/>
<path d="M23.1074 26.0201C25.4568 26.0201 27.3612 24.1598 27.3612 21.865C27.3612 19.5702 25.4568 17.71 23.1074 17.71C20.758 17.71 18.8535 19.5702 18.8535 21.865C18.8535 24.1598 20.758 26.0201 23.1074 26.0201Z" fill="#CFE869"/>
<path d="M132.58 5.93052C132.58 2.65518 129.596 0 125.915 0C122.234 0 119.25 2.65518 119.25 5.93052V13.8338C119.25 17.1091 122.234 19.7643 125.915 19.7643C129.596 19.7643 132.58 17.1091 132.58 13.8338V5.93052Z" fill="#EC6C16"/>
<path d="M112.905 11.5819C109.446 10.4617 105.622 12.0486 104.363 15.1264C103.104 18.2043 104.887 21.6075 108.346 22.7276L116.692 25.4307C120.151 26.551 123.976 24.9641 125.235 21.8862C126.494 18.8084 124.71 15.4052 121.251 14.2849L112.905 11.5819Z" fill="#EC6C16"/>
<path d="M143.472 22.7149C146.931 21.5947 148.714 18.1915 147.456 15.1137C146.196 12.0359 142.372 10.449 138.913 11.5692L130.567 14.2723C127.108 15.3925 125.325 18.7957 126.583 21.8735C127.842 24.9513 131.667 26.5383 135.126 25.418L143.472 22.7149Z" fill="#EC6C16"/>
<path d="M125.915 16.6973C118.834 16.6973 113.098 21.8017 113.098 28.1021C113.098 34.4025 118.834 39.5069 125.915 39.5069C132.995 39.5069 138.732 34.4025 138.732 28.1021C138.732 21.8017 132.995 16.6973 125.915 16.6973ZM125.915 29.9885C124.709 29.9885 123.725 29.1131 123.725 28.0405C123.725 26.9678 124.709 26.0924 125.915 26.0924C127.12 26.0924 128.104 26.9678 128.104 28.0405C128.104 29.1131 127.12 29.9885 125.915 29.9885Z" fill="#EC6C16"/>
</svg>
