<svg width="101" height="49" viewBox="0 0 101 49" fill="none" xmlns="http://www.w3.org/2000/svg">
<path d="M73.7016 10.6899C72.8 11.2784 71.4984 10.6955 70.7941 9.39501L69.098 6.25039C68.3937 4.94994 68.5571 3.41407 69.4586 2.83111C70.3602 2.24255 71.6618 2.82551 72.3661 4.12595L74.0622 7.27057C74.7609 8.57102 74.6031 10.1013 73.7016 10.6899Z" fill="#41BFED"/>
<path d="M66.7383 10.6897C65.8368 10.1012 65.679 8.5653 66.3834 7.25925L68.085 4.10342C68.7894 2.79736 70.091 2.2144 70.9925 2.79736C71.8941 3.38593 72.0519 4.9218 71.3475 6.22786L69.6459 9.38369C68.9415 10.6897 67.6399 11.2727 66.7383 10.6897Z" fill="#41BFED"/>
<path d="M67.4818 11.116C68.5181 11.116 69.3582 10.2803 69.3582 9.2494C69.3582 8.21851 68.5181 7.38281 67.4818 7.38281C66.4455 7.38281 65.6055 8.21851 65.6055 9.2494C65.6055 10.2803 66.4455 11.116 67.4818 11.116Z" fill="#41BFED"/>
<path d="M72.9193 11.116C73.9556 11.116 74.7957 10.2803 74.7957 9.2494C74.7957 8.21851 73.9556 7.38281 72.9193 7.38281C71.883 7.38281 71.043 8.21851 71.043 9.2494C71.043 10.2803 71.883 11.116 72.9193 11.116Z" fill="#41BFED"/>
<path d="M65.611 9.40092C65.611 9.40092 65.5434 8.93568 65.8139 8.38635C66.0843 7.83702 66.3379 7.34375 66.3379 7.34375L67.7071 7.83702L66.6084 9.52985L65.611 9.40092Z" fill="#41BFED"/>
<path d="M68.4339 10.8575C68.4339 10.8575 68.8002 10.6445 69.0481 10.2801C69.296 9.91579 69.4763 9.66915 69.4763 9.66915L69.003 9.0918L68.3438 10.4987L68.4339 10.8575Z" fill="#41BFED"/>
<path d="M71.821 10.7629C71.821 10.7629 71.5675 10.5891 71.3872 10.3257C71.2068 10.0622 70.9082 9.58017 70.9082 9.58017L71.6182 9.21582L72.1704 10.5219L71.821 10.7629Z" fill="#41BFED"/>
<path d="M74.74 9.70918C74.74 9.70918 74.8866 9.21591 74.7119 8.6834C74.5372 8.15089 74.1371 7.41658 74.1371 7.41658L73.8047 7.32129L73.9343 9.12062L74.74 9.70918Z" fill="#41BFED"/>
<path d="M47.0492 10.6899C46.1477 11.2784 44.8461 10.6955 44.1417 9.39501L42.4457 6.25039C41.7413 4.94994 41.9047 3.41407 42.8063 2.83111C43.7078 2.24255 45.0095 2.82551 45.7138 4.12595L47.4098 7.27057C48.1086 8.57102 47.9508 10.1013 47.0492 10.6899Z" fill="#F7D134"/>
<path d="M40.086 10.6897C39.1845 10.1012 39.0267 8.5653 39.731 7.25925L41.4383 4.10342C42.1427 2.79736 43.4443 2.2144 44.3458 2.79736C45.2474 3.38593 45.4052 4.9218 44.7008 6.22786L42.9991 9.38369C42.2892 10.6897 40.9876 11.2727 40.086 10.6897Z" fill="#F7D134"/>
<path d="M40.8295 11.116C41.8658 11.116 42.7058 10.2803 42.7058 9.2494C42.7058 8.21851 41.8658 7.38281 40.8295 7.38281C39.7932 7.38281 38.9531 8.21851 38.9531 9.2494C38.9531 10.2803 39.7932 11.116 40.8295 11.116Z" fill="#F7D134"/>
<path d="M46.267 11.116C47.3033 11.116 48.1433 10.2803 48.1433 9.2494C48.1433 8.21851 47.3033 7.38281 46.267 7.38281C45.2307 7.38281 44.3906 8.21851 44.3906 9.2494C44.3906 10.2803 45.2307 11.116 46.267 11.116Z" fill="#F7D134"/>
<path d="M38.9587 9.40092C38.9587 9.40092 38.8911 8.93568 39.1615 8.38635C39.432 7.83702 39.6856 7.34375 39.6856 7.34375L41.0548 7.83702L39.956 9.52985L38.9587 9.40092Z" fill="#F7D134"/>
<path d="M41.7816 10.8575C41.7816 10.8575 42.1478 10.6445 42.3957 10.2801C42.6437 9.91579 42.824 9.66915 42.824 9.66915L42.3507 9.0918L41.6914 10.4987L41.7816 10.8575Z" fill="#F7D134"/>
<path d="M45.1687 10.7629C45.1687 10.7629 44.9151 10.5891 44.7348 10.3257C44.5545 10.0622 44.2559 9.58017 44.2559 9.58017L44.9658 9.21582L45.518 10.5219L45.1687 10.7629Z" fill="#F7D134"/>
<path d="M48.0877 9.70918C48.0877 9.70918 48.2342 9.21591 48.0595 8.6834C47.8849 8.15089 47.4848 7.41658 47.4848 7.41658L47.1523 7.32129L47.2819 9.12062L48.0877 9.70918Z" fill="#F7D134"/>
<path d="M30.894 5.56054C29.9699 5.56054 29.2148 4.81502 29.2148 3.89013V1.6704C29.2148 0.751121 29.9643 0 30.894 0C31.8181 0 32.5731 0.745516 32.5731 1.6704V3.89574C32.5731 4.81502 31.8181 5.56054 30.894 5.56054Z" fill="#CFE869"/>
<path d="M30.7257 6.21633C30.4102 7.08517 29.4466 7.52799 28.5733 7.21409L26.4715 6.45176C25.5981 6.13786 25.153 5.17934 25.4685 4.3105C25.7841 3.44167 26.7476 2.99884 27.621 3.31274L29.7227 4.07508C30.5905 4.39458 31.0413 5.3531 30.7257 6.21633Z" fill="#CFE869"/>
<path d="M31.0642 6.21633C30.7487 5.3475 31.1938 4.39458 32.0672 4.07508L34.169 3.31274C35.0423 2.99884 36.0002 3.44167 36.3214 4.3105C36.637 5.17934 36.1918 6.13225 35.3184 6.45176L33.2167 7.21409C32.3433 7.5336 31.3798 7.08517 31.0642 6.21633Z" fill="#CFE869"/>
<path d="M33.9709 10.8969C33.1707 11.3566 32.1452 11.0819 31.6775 10.286L30.5619 8.35771C30.0998 7.56175 30.3759 6.54157 31.176 6.07632C31.9762 5.61668 33.0017 5.89134 33.4694 6.68731L34.585 8.61556C35.0471 9.41713 34.771 10.4373 33.9709 10.8969Z" fill="#CFE869"/>
<path d="M27.8186 10.8969C27.0185 10.4373 26.7424 9.41713 27.2044 8.61556L28.3201 6.68731C28.7822 5.89134 29.8077 5.61668 30.6134 6.07632C31.4136 6.53596 31.6897 7.55614 31.2276 8.35771L30.1119 10.286C29.6499 11.0875 28.6187 11.3566 27.8186 10.8969Z" fill="#CFE869"/>
<path d="M30.9515 7.32059C31.5427 7.32059 32.022 6.79608 32.022 6.14906C32.022 5.50205 31.5427 4.97754 30.9515 4.97754C30.3602 4.97754 29.8809 5.50205 29.8809 6.14906C29.8809 6.79608 30.3602 7.32059 30.9515 7.32059Z" fill="#CFE869"/>
<path d="M57.2866 5.56054C56.3625 5.56054 55.6074 4.81502 55.6074 3.89013V1.6704C55.6074 0.751121 56.3568 0 57.2866 0C58.2107 0 58.9657 0.745516 58.9657 1.6704V3.89574C58.9657 4.81502 58.2163 5.56054 57.2866 5.56054Z" fill="#EC6C16"/>
<path d="M57.1183 6.15481C56.8028 7.02364 55.8392 7.46647 54.9658 7.15257L52.8641 6.39023C51.9907 6.07633 51.5456 5.11781 51.8611 4.24898C52.1767 3.38014 53.1402 2.93732 54.0136 3.25122L56.1153 4.01355C56.9887 4.33306 57.4395 5.29158 57.1183 6.15481Z" fill="#EC6C16"/>
<path d="M57.4568 6.15481C57.1413 5.28597 57.5864 4.33306 58.4598 4.01355L60.5615 3.25122C61.4349 2.93732 62.3928 3.38014 62.714 4.24898C63.0295 5.11781 62.5844 6.07073 61.711 6.39023L59.6093 7.15257C58.7359 7.46647 57.7724 7.02364 57.4568 6.15481Z" fill="#EC6C16"/>
<path d="M57.2873 4.69727C55.5067 4.69727 54.0586 6.13224 54.0586 7.90915C54.0586 9.68606 55.5011 11.121 57.2873 11.121C59.0735 11.121 60.516 9.68606 60.516 7.90915C60.516 6.13224 59.0735 4.69727 57.2873 4.69727ZM57.2873 8.43605C56.983 8.43605 56.7351 8.18942 56.7351 7.88673C56.7351 7.58404 56.983 7.3374 57.2873 7.3374C57.5916 7.3374 57.8395 7.58404 57.8395 7.88673C57.8395 8.18942 57.5916 8.43605 57.2873 8.43605Z" fill="#EC6C16"/>
<path d="M12.8693 26.8609H8.81236V28.677C8.81236 29.742 8.9645 30.723 9.26313 31.6198C9.56177 32.5167 9.95057 33.3407 10.4182 34.0862C10.9085 34.871 11.4438 35.5492 12.041 36.1154C12.6327 36.6871 13.23 37.1692 13.8272 37.5616L11.8551 39.5795C11.4043 39.2432 10.9592 38.8676 10.514 38.4584C10.0745 38.0492 9.65193 37.6008 9.2575 37.1243C8.86307 36.6479 8.50245 36.1546 8.17564 35.6389C7.84882 35.1232 7.56709 34.5963 7.34734 34.0526C7.12195 34.6131 6.84021 35.1681 6.50213 35.723C6.16405 36.2723 5.79216 36.8104 5.38646 37.3373C4.98076 37.8642 4.55816 38.3519 4.10738 38.8059C3.65661 39.26 3.20583 39.6692 2.75505 40.0223L0.726562 38.0885C1.30694 37.6961 1.89858 37.1804 2.50149 36.547C3.10441 35.9136 3.65661 35.1737 4.16373 34.3328C4.65395 33.5313 5.05401 32.6624 5.37519 31.7263C5.69637 30.7902 5.85414 29.8205 5.85414 28.8116V26.8609H1.74081V24.2824H12.8693V26.8609ZM6.00628 20.4932H8.65459V27.7129H6.00628V20.4932ZM14.5823 20.4932H17.5123V30.1344H20.1325V20.4932H23.0625V44.8766H20.1325V32.6849H17.5123V43.9797H14.5823V20.4932Z" fill="#1D1D1B"/>
<path d="M52.3125 25.432V22.9376H66.9627V25.432H52.3125ZM58.336 19.1035H60.8998V24.6753H58.336V19.1035ZM66.0217 30.247C66.0217 31.0318 65.8583 31.7661 65.5259 32.4443C65.1991 33.1226 64.7483 33.7111 64.1735 34.2156C63.6044 34.7201 62.9283 35.1125 62.1507 35.3928C61.3731 35.6786 60.5335 35.8188 59.632 35.8188C58.7304 35.8188 57.8909 35.6786 57.1133 35.3928C56.3357 35.1069 55.6595 34.7145 55.0904 34.2156C54.5213 33.7167 54.0705 33.1226 53.7381 32.4443C53.4113 31.7661 53.2422 31.0374 53.2422 30.247C53.2422 29.4567 53.4056 28.728 53.7381 28.0497C54.0649 27.3715 54.5157 26.7829 55.0904 26.2784C55.6595 25.7739 56.3357 25.3815 57.1133 25.1013C57.8909 24.8154 58.7304 24.6753 59.632 24.6753C60.5335 24.6753 61.3731 24.8154 62.1507 25.1013C62.9283 25.3871 63.6044 25.7795 64.1735 26.2784C64.7427 26.7829 65.1934 27.3715 65.5259 28.0497C65.8583 28.728 66.0217 29.4623 66.0217 30.247ZM62.7649 30.247C62.7649 29.8546 62.6804 29.4959 62.5169 29.1652C62.3535 28.8401 62.1282 28.5486 61.8408 28.2963C61.5534 28.0441 61.221 27.8479 60.8378 27.7078C60.4546 27.5676 60.0546 27.4948 59.6376 27.4948C59.1981 27.4948 58.7924 27.5676 58.4205 27.7078C58.0486 27.8479 57.7162 28.0441 57.4344 28.2963C57.1471 28.5486 56.9217 28.8345 56.7583 29.1652C56.5949 29.4903 56.5104 29.8546 56.5104 30.247C56.5104 30.6394 56.5949 30.9981 56.7583 31.3289C56.9217 31.654 57.1471 31.9454 57.4344 32.1977C57.7218 32.4499 58.0486 32.6461 58.4205 32.7863C58.7924 32.9264 59.1981 32.9993 59.6376 32.9993C60.0546 32.9993 60.4546 32.9264 60.8378 32.7863C61.221 32.6461 61.559 32.4499 61.8408 32.1977C62.1282 31.9454 62.3535 31.6596 62.5169 31.3289C62.6804 30.9981 62.7649 30.6394 62.7649 30.247ZM72.3551 46.3064H56.392V38.2011H59.4911V43.7224H72.3551V46.3064ZM76.3727 30.006H72.4002V36.9454H69.3575V20.4937H72.4002V27.4331H76.3727V30.006Z" fill="#1D1D1B"/>
<path d="M90.622 34.0862C89.326 33.4696 88.154 32.7073 87.1172 31.8048C86.0748 30.8967 85.269 29.9102 84.7055 28.8452C84.1815 30.0223 83.387 31.121 82.3277 32.1411C81.2684 33.1613 80.0287 34.0414 78.6201 34.7869L76.7324 32.4326C78.6088 31.5526 80.1245 30.3867 81.2684 28.9293C82.4516 27.455 83.0433 25.751 83.0433 23.8284V20.4932H86.2832V23.7443C86.2832 25.5772 86.858 27.1748 88.0018 28.5369C89.1457 29.8822 90.6332 30.9304 92.4532 31.6759L90.622 34.0862ZM89.5683 35.7846C90.5093 35.7846 91.4221 35.9248 92.3124 36.2107C93.2027 36.4965 93.9915 36.9001 94.6902 37.4326C95.3833 37.9595 95.9411 38.6154 96.3637 39.4001C96.7807 40.1849 96.9948 40.4539 96.9948 41.4293C96.9948 42.4046 96.7863 43.8956 96.3637 44.6804C95.9468 45.4651 95.3889 46.121 94.6902 46.6479C93.9972 47.1748 93.2027 47.584 92.3124 47.8698C91.4221 48.1557 90.5093 48.2959 89.5683 48.2959C88.6273 48.2959 87.7145 48.1557 86.8242 47.8698C85.9339 47.584 85.145 47.1804 84.4463 46.6479C83.7533 46.121 83.1954 45.4651 82.7728 44.6804C82.3559 43.8956 82.1417 43.0156 82.1417 42.0402C82.1417 41.0649 82.3502 40.1849 82.7728 39.4001C83.1898 38.6154 83.7476 37.9595 84.4463 37.4326C85.1394 36.9057 85.9339 36.4965 86.8242 36.2107C87.7145 35.9304 88.6273 35.7846 89.5683 35.7846ZM89.5683 38.621C89.0161 38.621 88.4977 38.705 88.0018 38.8788C87.5116 39.0526 87.0834 39.288 86.7115 39.5963C86.3396 39.9046 86.0522 40.2633 85.8381 40.6781C85.624 41.0929 85.5169 41.547 85.5169 42.0346C85.5169 42.5615 85.624 43.038 85.8381 43.4528C86.0522 43.8676 86.3452 44.2263 86.7115 44.5178C87.0777 44.8149 87.506 45.0391 88.0018 45.2017C88.492 45.3642 89.0161 45.4427 89.5683 45.4427C90.1205 45.4427 90.6389 45.3642 91.1347 45.2017C91.6249 45.0391 92.0532 44.8093 92.4251 44.5178C92.7913 44.2207 93.0843 43.8676 93.2984 43.4528C93.5126 43.038 93.6196 42.5615 93.6196 42.0346C93.6196 41.547 93.5126 41.0929 93.2984 40.6781C93.0843 40.2633 92.7913 39.899 92.4251 39.5963C92.0588 39.2936 91.6306 39.0526 91.1347 38.8788C90.6445 38.7107 90.1205 38.621 89.5683 38.621ZM100.922 28.1053H96.9497V34.8317H93.907V20.4932H96.9497V25.5324H100.922V28.1053Z" fill="#1D1D1B"/>
<path d="M40.7057 34.0862C39.4097 33.4696 38.2377 32.7073 37.1953 31.8048C36.1529 30.8967 35.3528 29.9102 34.7893 28.8452C34.2653 30.0223 33.4708 31.121 32.4058 32.1411C31.3465 33.1613 30.1068 34.0414 28.6982 34.7869L26.8105 32.4326C28.6869 31.5526 30.2026 30.3867 31.3465 28.9293C32.5298 27.455 33.1214 25.751 33.1214 23.8284V20.4932H36.3614V23.7443C36.3614 25.5772 36.9361 27.1748 38.0799 28.5369C39.2238 29.8822 40.7114 30.9304 42.5314 31.6759L40.7057 34.0862Z" fill="#1D1D1B"/>
<path d="M32.0781 36.6367H48.0863V46.306H45.0379V39.2152H32.0781V36.6367Z" fill="#1D1D1B"/>
<path d="M48.0818 20.4932H45.0391V34.871H48.0818V20.4932Z" fill="#1D1D1B"/>
</svg>
