<?xml version="1.0" encoding="utf-8"?>
<!-- Generator: Adobe Illustrator 26.3.0, SVG Export Plug-In . SVG Version: 6.00 Build 0)  -->
<svg version="1.1" xmlns="http://www.w3.org/2000/svg" xmlns:xlink="http://www.w3.org/1999/xlink" x="0px" y="0px"
	 viewBox="0 0 56 56" style="enable-background:new 0 0 56 56;" xml:space="preserve">
<style type="text/css">
	.st0{display:none;}
	.st1{display:inline;fill:#7F7F7F;}
	.st2{display:inline;fill:#0FBAA3;}
	.st3{display:inline;fill:none;stroke:#0FBAA3;stroke-width:2;stroke-linecap:round;stroke-linejoin:round;stroke-miterlimit:10;}
	.st4{display:inline;fill:none;stroke:#0FBAA3;stroke-width:2;stroke-miterlimit:10;}
	.st5{display:inline;fill:none;stroke:#FFFFFF;stroke-width:2;stroke-linecap:round;stroke-linejoin:round;stroke-miterlimit:10;}
	.st6{fill:none;stroke:#0FBAA3;stroke-width:2;stroke-miterlimit:10;}
	.st7{fill:none;stroke:#0FBAA3;stroke-width:2;stroke-linecap:round;stroke-linejoin:round;stroke-miterlimit:10;}
	.st8{display:inline;}
	.st9{fill:#93C01F;}
</style>
<g id="Layer_1" class="st0">
	<path class="st1" d="M14,16H2c-1.1,0-2-0.9-2-2V2c0-1.1,0.9-2,2-2h12c1.1,0,2,0.9,2,2v12C16,15.1,15.1,16,14,16z"/>
	<path class="st1" d="M14,56H2c-1.1,0-2-0.9-2-2V42c0-1.1,0.9-2,2-2h12c1.1,0,2,0.9,2,2v12C16,55.1,15.1,56,14,56z"/>
	<path class="st1" d="M54,16H42c-1.1,0-2-0.9-2-2V2c0-1.1,0.9-2,2-2h12c1.1,0,2,0.9,2,2v12C56,15.1,55.1,16,54,16z"/>
	<circle class="st2" cx="48" cy="48" r="8"/>
</g>
<g id="Layer_2" class="st0">
	<path class="st2" d="M35.85,5.04c1.34,0,2.81,0.36,3.92,0.97c3.09,1.69,6.25,4.56,6.34,7.17c0.02,0.64,0.35,1.23,0.88,1.59
		c3.4,2.29,7.01,5.97,6.9,9.43c-0.11,3.66-1.22,4.89-2.3,6.09l-0.14,0.15c-0.55,0.61-0.67,1.5-0.3,2.23
		c0.85,1.71,0.82,5.85-1.81,7.47c-0.87,0.54-1.4,0.6-1.73,0.6c-0.87,0-1.9-0.56-3.38-1.52c-0.33-0.21-0.71-0.32-1.09-0.32
		c-0.2,0-0.4,0.03-0.6,0.09c-0.57,0.18-1.03,0.6-1.25,1.15c-0.49,1.21-2.02,1.3-2.48,1.3c-0.85,0-1.69-0.25-2.25-0.68
		c-1.49-1.13-1.49-1.73-1.49-2.42c0-0.59-0.26-1.15-0.71-1.53c-0.36-0.31-0.82-0.47-1.29-0.47c-0.11,0-0.22,0.01-0.33,0.03
		c-0.26,0.04-0.53,0.07-0.8,0.07c-2.67,0-4.92-2.04-4.92-3.33c0-0.57-0.24-1.1-0.66-1.48c-0.37-0.33-0.85-0.52-1.34-0.52
		c-0.07,0-0.13,0-0.2,0.01c-0.27,0.03-0.54,0.04-0.8,0.04c-3.47,0-5.07-2.42-5.08-3c0.08-0.56-0.08-1.13-0.45-1.57
		c-0.36-0.44-0.9-0.69-1.46-0.71c-0.27-0.01-6.53-0.29-6.53-5.92c0-7.52,2.44-9.37,4.83-10.19c1.06-0.36,2.01-0.55,2.83-0.55
		c0.76,0,1.18,0.16,1.32,0.23c0.35,0.36,0.79,0.53,1.26,0.53c0.18,0,0.38-0.03,0.57-0.07c0.72-0.18,1.18-0.83,1.36-1.55
		c0.01-0.02,0.7-2.51,2.43-2.81c0.35-0.06,0.69-0.09,1-0.09c1.11,0,1.95,0.39,2.56,1.2c0.37,0.5,0.95,0.79,1.57,0.8
		c0.01,0,0.02,0,0.03,0c0.61,0,1.18-0.28,1.56-0.75C32.92,5.33,34.62,5.04,35.85,5.04 M35.85,3.04c-2.1,0-4.21,0.68-5.59,2.42
		c-0.68-0.91-1.93-2-4.16-2c-0.41,0-0.86,0.04-1.35,0.12c-3.09,0.54-4.03,4.3-4.03,4.3s-0.78-0.66-2.57-0.66
		c-0.9,0-2.04,0.16-3.48,0.66c-4.3,1.48-6.18,5.21-6.18,12.08c0,7.63,8.46,7.92,8.46,7.92c-0.25,1.76,2.32,5.29,7.06,5.29
		c0.32,0,0.65-0.02,0.99-0.05c0,2.55,3.31,5.33,6.92,5.33c0.38,0,0.75-0.03,1.13-0.09c0,0.94,0,2.28,2.28,4.01
		c0.93,0.71,2.2,1.08,3.45,1.08c1.82,0,3.62-0.8,4.33-2.54c1.68,1.09,3.03,1.84,4.47,1.84c0.86,0,1.76-0.27,2.78-0.9
		c3.68-2.28,3.76-7.65,2.55-10.07c1.21-1.34,2.82-2.95,2.95-7.52c0.13-4.56-4.3-8.8-7.79-11.14c-0.13-3.89-4.43-7.25-7.38-8.86
		C39.38,3.52,37.61,3.04,35.85,3.04L35.85,3.04z"/>
	<path class="st2" d="M17.18,55.94c-1.46,0-3.3-0.58-5.52-1.73c-2.26-1.42-3.54-2.95-3.87-4.57c-0.31-1.55,0.38-2.59,0.46-2.71
		c0-0.01,3.39-5.46,5.32-9.51c1.77-3.72-0.84-10.78-0.86-10.85c-0.19-0.52,0.07-1.09,0.59-1.29c0.52-0.19,1.09,0.07,1.29,0.59
		c0.12,0.32,2.93,7.93,0.8,12.41c-1.97,4.16-5.31,9.53-5.46,9.76c-0.07,0.11-1.18,1.97,2.74,4.44c3.53,1.83,4.97,1.51,5.42,1.29
		c0.41-0.2,0.49-0.55,0.49-0.59c0.01-0.04,0.02-0.11,0.03-0.15c0.11-0.35,2.7-8.63,6.13-11.48c0.03-0.03,0.06-0.05,0.09-0.07
		c3.57-2.31,7.69-3.98,7.87-4.05c0.51-0.2,1.09,0.04,1.3,0.55c0.21,0.51-0.04,1.09-0.55,1.3c-0.04,0.02-4.08,1.65-7.48,3.84
		c-2.82,2.4-5.21,9.71-5.44,10.44c-0.07,0.36-0.36,1.36-1.48,1.96C18.53,55.8,17.9,55.94,17.18,55.94z"/>
	<path class="st2" d="M20.39,37.53c-0.18,0-0.36-0.03-0.52-0.09c-0.46-0.17-1.87-0.68-1.26-6.89c0.05-0.55,0.55-0.94,1.09-0.9
		c0.55,0.05,0.95,0.54,0.9,1.09c-0.19,1.93-0.15,3.96,0.07,4.72c0.66-0.29,2.02-1.4,3.13-2.58c0.38-0.4,1.01-0.42,1.41-0.04
		s0.42,1.01,0.04,1.41C23.78,35.8,21.82,37.53,20.39,37.53z M20.76,35.7L20.76,35.7L20.76,35.7z"/>
	<path class="st2" d="M8.11,30.9c-1.74,0-3.59-0.33-5.11-1.4c-2-1.4-3.01-3.76-3.01-7.01c0-6.41,1.88-7.96,3.92-9.48
		c-0.2-4.14,1.38-7.42,4.2-8.64c2.31-1,4.43-1.36,6.75-1.13c1.13-1.99,3.24-3.13,6.02-3.22c2.04-0.06,5.48,0.92,6.55,3.91
		c0.19,0.52-0.08,1.09-0.6,1.28c-0.52,0.19-1.09-0.08-1.28-0.6c-0.71-1.97-3.2-2.64-4.61-2.59C18.62,2.1,17.08,3,16.36,4.7
		c-0.18,0.42-0.62,0.67-1.07,0.6c-2.26-0.34-4.17-0.07-6.39,0.9c-2.13,0.92-3.26,3.68-2.96,7.2c0.03,0.34-0.12,0.68-0.4,0.88
		l-0.29,0.22c-1.89,1.41-3.26,2.42-3.26,7.98c0,2.56,0.73,4.37,2.16,5.37c3.13,2.2,8.69,0.24,8.75,0.22
		c0.52-0.19,1.09,0.08,1.28,0.6c0.19,0.52-0.08,1.09-0.6,1.28C13.41,30.02,10.92,30.9,8.11,30.9z"/>
</g>
<g id="Layer_9" class="st0">
</g>
<g id="Layer_3" class="st0">
	<circle class="st3" cx="38.3" cy="26.47" r="4.79"/>
	<circle class="st3" cx="30.31" cy="38.78" r="2.73"/>
	<circle class="st3" cx="9.46" cy="28.74" r="3.68"/>
	<path class="st3" d="M47.99,14.8c-0.84,0.25-1.8,0.39-2.83,0.39c-3.22,0-5.84-1.38-5.84-3.09c0-0.8,0.58-1.53,1.52-2.07l-2.52-1.68
		c-0.48-0.32-1.09-0.42-1.65-0.26L2.92,18.69h50.89L47.99,14.8z"/>
	<path class="st3" d="M39.33,12.1c0,1.71,2.61,3.09,5.84,3.09c1.03,0,1.99-0.14,2.83-0.39l-7.15-4.78
		C39.9,10.58,39.33,11.3,39.33,12.1z"/>
	<path class="st3" d="M55.08,31.03V20.58c0-1.04-0.86-1.89-1.93-1.89H2.92c-1.07,0-1.93,0.85-1.93,1.89v23.66
		c0,1.04,0.86,1.89,1.93,1.89h5.55c-0.01-0.16-0.05-0.31-0.05-0.47c0-2.79,2.26-5.05,5.05-5.05c2.79,0,5.05,2.26,5.05,5.05
		c0,0.16-0.03,0.31-0.05,0.47h20.47c-0.07-0.27-0.11-0.54-0.11-0.83c0-1.93,1.59-3.49,3.56-3.49c1.97,0,3.56,1.56,3.56,3.49
		c0,0.29-0.05,0.56-0.11,0.83h7.29c1.07,0,1.93-0.85,1.93-1.89v-3.42c-2.76,0-5-2.19-5-4.9S52.32,31.03,55.08,31.03z"/>
	<path class="st3" d="M13.48,40.62c-2.79,0-5.05,2.26-5.05,5.05c0,0.16,0.03,0.31,0.05,0.47h10.01c0.01-0.16,0.05-0.31,0.05-0.47
		C18.54,42.88,16.27,40.62,13.48,40.62z"/>
	<ellipse class="st3" cx="30.27" cy="14.49" rx="3.24" ry="1.39"/>
</g>
<g id="Layer_4" class="st0">
	<rect x="1.02" y="29.17" class="st3" width="53.99" height="3.96"/>
	<polyline class="st3" points="2.88,33.12 5.17,44.02 15.36,44.02 17.21,37.16 21.25,37.16 22.83,44.02 33.21,44.02 35.05,37.25 
		38.57,37.25 40.59,44.02 50.79,44.02 53.25,33.12 	"/>
	<path class="st4" d="M43.13,18.52c-1.52-2.98-3.98-4.93-6.78-4.93c-2.78,0-5.23,1.92-6.75,4.87c3.65,1,6.44,5.36,6.72,10.71h0.27
		C36.86,23.9,39.57,19.61,43.13,18.52z"/>
	<path class="st4" d="M44.9,18.24c-0.61,0-1.2,0.1-1.77,0.28c-3.56,1.09-6.27,5.39-6.54,10.65h7.67h8.97
		C52.9,23.06,49.3,18.24,44.9,18.24z"/>
	<path class="st4" d="M26.06,18.57c-1.51-3.01-4-4.99-6.81-4.99c-2.78,0-5.23,1.92-6.75,4.87c3.65,1,6.44,5.36,6.72,10.71h0.46
		C19.95,23.99,22.58,19.75,26.06,18.57z"/>
	<path class="st4" d="M29.6,18.46c-0.52-0.14-1.05-0.22-1.6-0.22c-0.67,0-1.32,0.12-1.94,0.33c-3.48,1.17-6.11,5.41-6.38,10.59h7.47
		h1.29h7.87C36.04,23.82,33.25,19.46,29.6,18.46z"/>
	<path class="st4" d="M12.5,18.46c-0.52-0.14-1.05-0.22-1.6-0.22c-4.4,0-8,4.82-8.32,10.93h8.76h7.87
		C18.94,23.82,16.15,19.46,12.5,18.46z"/>
</g>
<g id="Layer_5" class="st0">
	<path class="st4" d="M1.35,26.61c0,0,0.18-9.83,5.36-12.87s6.79-4.29,8.04-5.63s4.92-6.26,11.89-6.43s11.17,4.11,13.23,7.06
		c2.06,2.95,4.11,5.36,7.51,7.33s7.78,6.08,7.06,12.33c0.08,7.86-5.72,9.65-8.13,12.24s-4.2,11.71-13.23,11.71
		s-11.35-3.93-13.41-6.79c-2.06-2.86-5.54-3.57-7.95-4.11C8.41,40.82,1.08,36,1.35,26.61z"/>
	<circle class="st2" cx="26.8" cy="25.85" r="11.41"/>
	<path class="st5" d="M24.97,34.54c0,0,3.13,0.72,5.99-0.63c2.86-1.34,4.11-4.2,4.2-5.19"/>
</g>
<g id="Layer_6" class="st0">
	<polyline class="st3" points="26.12,54.92 26.12,17.41 33.67,9.1 40.7,17.41 	"/>
	<polyline class="st3" points="3.41,17.41 10.61,9.1 33.67,9.1 	"/>
	<rect x="10.87" y="1.38" class="st3" width="22.54" height="7.71"/>
	<path class="st3" d="M29.63,39.95c0-8.08,4.92-14.65,11.07-14.94v-7.38H3.41v37.29H40.7v-0.03C34.55,54.61,29.63,48.04,29.63,39.95
		z"/>
	<path class="st3" d="M41.11,24.99c-0.14,0-0.27,0.02-0.41,0.03c-6.15,0.29-11.07,6.85-11.07,14.94c0,8.08,4.92,14.65,11.07,14.94
		c0.14,0.01,0.27,0.03,0.41,0.03c6.34,0,11.48-6.7,11.48-14.97C52.59,31.69,47.45,24.99,41.11,24.99z"/>
	<polyline class="st3" points="52.59,39.95 49.25,37.42 45.84,40.68 42.15,37.42 39.45,40.68 35.76,37.42 33.41,41.25 29.68,38.46 	
		"/>
</g>
<g id="Layer_7" class="st0">
	<path class="st3" d="M1.03,30.11c0,0,5.77-11.74,16.62-12.69s18.97,2.47,23.92,8.69c3.49-6.28,9.33-5.71,13.01-4.44
		c-5.2,4.79-4.82,8.44-4.82,8.44s0.14,5.52,4.82,8.25c-5.33,3.49-12.31-1.71-12.94-4.57c-4.31,7.42-13.26,9.96-20.05,9.52
		C14.8,42.87,5.47,40.07,1.03,30.11z"/>
	<path class="st3" d="M18.42,17.26c0,0,3.68-8.35,11.68-7.52l0.39,8.87"/>
	<path class="st3" d="M13.96,18.2c0,0,5.79,5.46,5.35,12.12s-2.98,9.19-4.7,11.22"/>
	<path class="st3" d="M18.91,26.47c0,0,5.15-1.29,8.33,3.85c-1.89,5.58-8.69,4.54-8.69,4.54"/>
	<circle class="st2" cx="11.82" cy="26.47" r="1.05"/>
</g>
<g id="Layer_8">
	<path class="st6" d="M53.3,46.37H2.46c-0.91,0-1.64-0.73-1.64-1.64v-0.18c0-0.91,0.73-1.64,1.64-1.64H53.3
		c0.91,0,1.64,0.73,1.64,1.64v0.18C54.94,45.63,54.21,46.37,53.3,46.37z"/>
	<path class="st6" d="M49.32,51.9H6.26c-2.15,0-3.9-1.74-3.9-3.9v0c0-0.91,0.73-1.64,1.64-1.64h47.57c0.91,0,1.64,0.73,1.64,1.64v0
		C53.21,50.16,51.47,51.9,49.32,51.9z"/>
	<path class="st6" d="M7.15,40.33c0,0-6.41-5.29-5.23-12.47s6.63-11.97,11.19-13s9.79-2.21,11.71-2.14s4.93,1.03,6.19,2.8"/>
	<path class="st6" d="M6.57,42.91c0,0,0.29-5.6,4.64-5.6s4.71,5.6,4.71,5.6"/>
	<path class="st7" d="M9.08,37.88c0,0-1.48-7.64,1.83-10.36c1.47,0.88,2.28,2.43,2.28,2.43s2.8-5.3,7.22-5.3
		c-0.52,4.64-5.83,9.87-5.83,9.87l9.73-1.33c0,0,3.46-0.29,4.42,2.14c0.96,2.43,0.74,2.95,0.74,2.95"/>
	<path class="st7" d="M43.16,12.05l5.23-5.01c0,0-0.81-3.17,0.74-3.39c1.55-0.22,2.5,0.66,2.5,0.66l2.43,2.58c0,0,0.88,1.25,0,2.5
		c-0.85,0.88-2.36,0.44-2.95-0.15l-4.91,5.04"/>
	<path class="st7" d="M45.08,24.13c0,0,4.05,2.87,4.2,5.3s0,9.5,0,9.5s3.02-0.07,3.61,0.88c0.59,0.96,0.44,1.84,0,2.28"/>
	
		<ellipse transform="matrix(0.727 -0.6867 0.6867 0.727 -4.4487 30.9725)" class="st7" cx="36.72" cy="21.08" rx="11.16" ry="8.62"/>
	<path class="st7" d="M26.01,42.1c0,0,0.81-3.98,4.57-3.83c2.36-3.09,4.27-2.72,4.27-2.72s2.43,0.07,3.24,2.72
		c3.17-0.96,4.71,2.14,4.79,3.83"/>
</g>
<g id="Layer_10" class="st0">
	<g class="st8">
		<path class="st9" d="M51.07,32.93C51.07,45.67,40.74,56,28,56S4.93,45.67,4.93,32.93s19-31.17,19-31.17c2.24-2.17,5.9-2.17,8.14,0
			C32.07,1.76,51.07,20.19,51.07,32.93z"/>
	</g>
</g>
</svg>
