<svg width="149" height="145" viewBox="0 0 149 145" fill="none" xmlns="http://www.w3.org/2000/svg">
<path d="M10.3086 23.1764C10.0894 23.1764 9.86686 23.1253 9.65616 23.0195L0.791705 18.5125C0.0797618 18.1509 -0.205695 17.2774 0.156224 16.5627C0.516443 15.8479 1.38641 15.5613 2.09835 15.9247L10.9628 20.4317C11.6747 20.7933 11.9602 21.6667 11.5983 22.3815C11.3434 22.8864 10.8354 23.1764 10.3086 23.1764Z" fill="#231916"/>
<path d="M18.2589 16.6445C17.7627 16.6445 17.2802 16.3886 17.0117 15.9281L11.5761 6.62238C11.1717 5.93149 11.4028 5.04272 12.091 4.63671C12.7791 4.23241 13.6644 4.46271 14.0688 5.1536L19.5044 14.4593C19.9088 15.1502 19.6777 16.0389 18.9895 16.4449C18.7601 16.5797 18.5087 16.6445 18.2606 16.6445H18.2589Z" fill="#231916"/>
<path d="M27.8149 12.8693C27.7945 12.8693 27.7741 12.8693 27.7537 12.8693C26.9568 12.8369 26.3366 12.1613 26.3689 11.3596L26.7767 1.39201C26.809 0.591939 27.4835 -0.0307137 28.2804 0.00169841C29.0773 0.0341105 29.6975 0.709646 29.6652 1.51142L29.2574 11.479C29.2251 12.2586 28.5846 12.8693 27.8149 12.8693Z" fill="#231916"/>
<path d="M88.8605 48.2117C92.8518 55.8694 99.0707 68.1707 99.0707 68.1707L104.156 80.7329L105.376 82.2068C100.179 82.9267 94.4337 83.8206 91.7864 84.5678L91.8544 84.4825C79.5933 84.8919 80.7674 92.6298 85.7137 92.1948L87.3312 90.1631C84.8301 95.0846 81.9551 101.814 82.1132 102.353C82.3511 103.167 82.2389 109.517 82.5566 113.159C82.8744 116.801 87.7 116.877 88.3422 112.817C89.1459 114.414 95.2374 121.388 97.5109 122.689C99.7843 123.991 101.15 118.699 101.15 118.699L102.476 117.173L103.072 117.863L111.379 125.475L112.407 125.216C112.672 127.884 113.128 130.241 113.906 131.593C116.647 136.355 121.194 138.96 121.194 138.96L122.278 142.548H147.552C147.552 142.548 125.876 84.8544 124.648 83.2713C122.589 80.6152 119.776 78.8615 119.776 78.8615C119.776 78.8615 95.4668 43.9623 93.02 40.6733C90.5732 37.3843 84.8675 40.5556 88.8571 48.2117H88.8605ZM109.867 87.6401L109.915 87.6964L109.767 87.7595L109.869 87.6401H109.867Z" fill="#FCE4D6"/>
<path d="M85.2516 117.33C85.204 117.33 85.1581 117.33 85.1123 117.328C82.9611 117.251 81.3181 115.59 81.1176 113.288C80.9493 111.368 80.9001 108.809 80.8576 106.55C80.8287 105.034 80.7913 103.15 80.7183 102.731C80.5806 102.243 80.5806 101.779 81.7106 98.9827C82.3477 97.4048 83.2432 95.3611 84.1675 93.3754C86.684 87.9677 88.4834 84.805 89.5113 83.9777C90.0262 83.5631 90.9845 82.7938 103.521 81.0026C109.543 80.1428 115.411 79.457 115.471 79.4502C116.264 79.3581 116.981 79.9278 117.073 80.7245C117.165 81.5212 116.597 82.2411 115.804 82.3332C104.945 83.5972 92.8638 85.4055 91.2954 86.2636C90.908 86.6371 89.5419 88.7286 86.9847 94.1755C85.0443 98.3106 83.7937 101.455 83.5728 102.29C83.668 102.911 83.6986 104.034 83.7461 106.492C83.7869 108.594 83.8379 111.211 83.9959 113.033C84.069 113.88 84.5243 114.402 85.2125 114.426C85.8582 114.448 86.6942 113.983 86.915 112.589C87.0408 111.797 87.7799 111.258 88.5683 111.385C89.3567 111.511 89.8937 112.255 89.7679 113.044C89.299 116.008 87.1257 117.328 85.2499 117.328L85.2516 117.33ZM80.7233 102.753C80.7233 102.753 80.7251 102.76 80.7267 102.763C80.7267 102.76 80.725 102.756 80.7233 102.753Z" fill="#231916"/>
<path d="M85.3211 93.6639C83.6798 93.6639 82.2474 92.9627 81.4216 91.7345C80.5941 90.5011 80.5261 88.9232 81.2432 87.5158C82.0418 85.9464 84.475 83.2784 91.8068 83.0327C92.6071 83.0037 93.2732 83.6332 93.2986 84.4349C93.3258 85.235 92.7005 85.9071 91.9019 85.9327C86.9455 86.0982 84.475 87.5414 83.8157 88.8362C83.5778 89.3036 83.5778 89.7574 83.8157 90.1139C84.13 90.583 84.791 90.8201 85.5845 90.7502C86.3814 90.6802 87.0798 91.2705 87.1494 92.0689C87.2191 92.8672 86.6312 93.57 85.836 93.64C85.661 93.6553 85.4877 93.6622 85.3177 93.6622L85.3211 93.6639Z" fill="#231916"/>
<path d="M98.228 124.346C97.7421 124.346 97.2544 124.213 96.7956 123.95C94.2214 122.476 87.9329 115.221 87.0527 113.472C86.7639 112.897 86.3272 112.029 88.0314 103.309C88.8317 99.2162 89.7425 95.267 89.751 95.2278C89.8563 94.7723 90.1724 94.397 90.6022 94.2162L111.763 85.3506C112.499 85.0419 113.345 85.3916 113.653 86.1302C113.96 86.8689 113.612 87.7184 112.876 88.0272L92.3999 96.6061C90.8928 103.232 89.4774 110.818 89.6796 112.253C90.5292 113.744 96.189 120.257 98.2195 121.425C98.663 121.154 99.4021 119.678 99.7522 118.334C99.9544 117.56 100.743 117.096 101.514 117.297C102.286 117.498 102.749 118.29 102.549 119.064C102.299 120.033 101.324 123.264 99.2883 124.127C98.9434 124.272 98.5865 124.346 98.2263 124.346H98.228Z" fill="#231916"/>
<path d="M111.379 126.927C111.031 126.927 110.683 126.802 110.406 126.548L102.099 118.937C101.509 118.396 101.468 117.48 102.005 116.888C102.544 116.296 103.456 116.253 104.046 116.794L112.353 124.406C112.943 124.946 112.983 125.863 112.446 126.454C112.161 126.768 111.77 126.927 111.379 126.927Z" fill="#231916"/>
<path d="M27.9325 62.1711C27.9325 62.1711 22.4222 71.3932 22.2625 73.5341C22.1027 75.675 23.8664 81.6286 23.5589 84.6122C23.2514 87.5958 22.4629 93.314 22.4629 93.314L32.3605 82.4833L27.9325 62.1728V62.1711Z" fill="#FCE4D6"/>
<path d="M69.4716 102.502L57.5708 30.2248C57.2038 28.002 55.2073 26.4258 52.9695 26.5947L28.0158 28.478C25.5453 28.6639 23.768 30.9396 24.1775 33.3927L32.3605 82.4782L41.9183 122.545L69.4716 102.5V102.502Z" fill="white"/>
<path d="M69.4698 103.954C68.7748 103.954 68.1631 103.45 68.0459 102.739L56.145 30.4619C55.8987 28.9692 54.5784 27.9286 53.0781 28.0429L28.1244 29.9262C27.3394 29.9859 26.6393 30.3612 26.1551 30.9822C25.6708 31.6031 25.4737 32.3759 25.6029 33.1555L33.7877 82.241C33.9202 83.0308 33.3883 83.7797 32.6016 83.9111C31.8149 84.0424 31.069 83.5102 30.9382 82.7204L22.7534 33.6348C22.4917 32.0654 22.9029 30.4448 23.8816 29.1927C24.8603 27.9406 26.3284 27.1524 27.9086 27.033L52.8623 25.1497C55.8664 24.9228 58.5052 27.004 58.9979 29.9893L70.8988 102.267C71.0296 103.056 70.4961 103.804 69.7093 103.935C69.6295 103.949 69.5496 103.955 69.4715 103.955L69.4698 103.954Z" fill="#231916"/>
<path d="M19.8377 97.1864C17.8531 99.8732 21.5046 124.602 22.7025 131.323C23.8987 138.044 23.6201 142.55 23.6201 142.55H51.6832L50.7385 134.117L50.6858 133.334C51.571 132.328 52.475 131.18 53.192 129.996C55.3245 126.468 56.976 121.987 56.976 121.987C56.976 121.987 71.6465 113.519 73.0636 111.6C74.4807 109.68 75.7754 106.004 75.6157 104.457C75.4543 102.91 70.4129 95.9428 70.1037 98.9247C69.7961 101.908 68.7613 104.111 68.7613 104.111L51.17 114.448L49.2959 112.814C49.2959 112.814 61.6096 101.76 64.889 99.085C68.1683 96.4119 71.8045 92.9319 75.8349 88.4385C79.8653 83.9452 75.8944 78.2526 70.2855 83.1178C69.949 83.4095 69.548 83.7456 69.0978 84.1141C79.5951 74.1192 71.5972 69.7282 64.8363 74.776C63.7709 75.5709 62.1924 76.6218 60.41 77.7664L60.4372 77.6845C66.0087 73.0291 63.2459 65.3816 56.959 67.9575C52.9932 69.5815 40.4399 75.8814 36.7783 78.2714C36.0136 78.7695 34.9092 79.7828 33.6348 81.0724L23.2106 92.9455C21.6287 94.8783 20.3832 96.4545 19.8428 97.1864H19.8377Z" fill="#FCE4D6"/>
<path d="M47.2483 138.203C46.8371 138.203 46.4293 138.029 46.1439 137.688C45.629 137.076 45.7055 136.161 46.3155 135.644C46.3749 135.595 49.9805 132.507 51.9532 129.24C53.9854 125.878 55.6013 121.525 55.6166 121.48C55.7339 121.163 55.9581 120.895 56.2521 120.726C63.2832 116.668 71.0585 111.818 71.8995 110.731C73.2045 108.966 74.2614 105.662 74.1747 104.629C73.9963 103.862 72.4824 101.629 71.3507 100.402C70.9123 102.901 70.1035 104.645 70.0628 104.728C69.9387 104.993 69.7365 105.213 69.4851 105.361L51.8938 115.699C51.3585 116.013 50.684 115.95 50.2167 115.542L48.3426 113.908C48.0299 113.635 47.8481 113.239 47.8447 112.823C47.8413 112.407 48.018 112.009 48.3273 111.731C48.8302 111.279 60.7039 100.622 63.973 97.9577C67.3662 95.1907 70.9939 91.6612 74.7558 87.4664C76.302 85.7418 76.3037 83.9557 75.517 83.1522C74.6624 82.2771 72.9785 82.6933 71.225 84.215C65.6331 89.0649 43.6597 105.054 42.7269 105.733C42.0812 106.204 41.1772 106.059 40.7083 105.409C40.2393 104.761 40.3837 103.853 41.0311 103.382C41.2588 103.217 63.8371 86.7875 69.3355 82.0178C72.9819 78.8551 76.0557 79.5579 77.5815 81.1205C78.533 82.0963 79.0139 83.519 78.9017 85.027C78.7862 86.5623 78.0963 88.0771 76.9035 89.406C73.0414 93.7117 69.3032 97.3453 65.7945 100.208C63.3613 102.192 55.7763 108.951 52.1809 112.166L67.6109 103.098C67.8913 102.385 68.4554 100.759 68.661 98.7697C68.8156 97.2668 69.8198 96.7346 70.6337 96.7346H70.6405C71.106 96.7346 72.3277 96.7516 74.7388 99.9655C75.2452 100.639 76.9052 102.942 77.0463 104.302C77.2655 106.405 75.6785 110.482 74.2189 112.458C72.795 114.386 62.0802 120.696 58.1381 122.98C57.6386 124.268 56.2062 127.792 54.4238 130.742C52.1945 134.43 48.3426 137.717 48.1794 137.855C47.9076 138.086 47.5762 138.198 47.2483 138.198V138.203Z" fill="#231916"/>
<path d="M34.2244 97.9304C33.7894 97.9304 33.3595 97.7342 33.0757 97.3606C32.5915 96.7243 32.7121 95.8133 33.3459 95.3272C37.9353 91.8062 45.0938 86.2415 46.0063 85.3425C46.7233 84.6363 49.2992 83.0174 53.7934 80.2163C57.5707 77.8622 61.8525 75.1941 63.9696 73.6128C65.7962 72.2481 67.8573 71.4088 69.7688 71.2501C71.801 71.0812 73.5647 71.6971 74.6046 72.9441C75.2588 73.7271 76.195 75.4688 75.128 78.3364C74.3395 80.4534 72.6166 82.7803 70.0033 85.2521C69.4222 85.8014 68.5081 85.7741 67.9609 85.1907C67.4138 84.6073 67.441 83.6895 68.0221 83.1402C72.3702 79.0273 73.3337 75.9379 72.3906 74.8069C71.4493 73.681 68.469 73.8704 65.6943 75.9413C63.4803 77.5943 59.1441 80.2965 55.3193 82.6813C52.3067 84.5595 48.5584 86.8949 48.0316 87.4135C46.6995 88.7253 36.2854 96.7243 35.1011 97.6318C34.8395 97.8331 34.5302 97.9304 34.2244 97.9304Z" fill="#231916"/>
<path d="M43.223 86.0727C42.6504 86.0727 42.1084 85.7281 41.8807 85.1618C41.5833 84.418 41.9435 83.5736 42.6844 83.275L59.8933 76.3406C60.6342 76.042 61.4752 76.4037 61.7726 77.1474C62.0699 77.8912 61.7097 78.7356 60.9689 79.0342L43.7599 85.9686C43.5832 86.0403 43.4014 86.0727 43.223 86.0727Z" fill="#231916"/>
<path d="M22.4646 94.7641C22.3984 94.7641 22.3321 94.759 22.2641 94.7505C21.474 94.6413 20.9218 93.9078 21.0306 93.1145C21.0391 93.0582 21.819 87.3861 22.1214 84.4622C22.2709 83.0139 21.819 80.525 21.4197 78.3278C21.0526 76.3097 20.7366 74.5663 20.8216 73.4267C20.9932 71.1221 25.3583 63.6588 26.6921 61.4257C27.1033 60.7383 27.9903 60.5165 28.675 60.9276C29.3598 61.3404 29.5807 62.2309 29.1712 62.9184C26.6089 67.2087 23.79 72.5277 23.7033 73.6434C23.6455 74.4128 23.9599 76.1391 24.2623 77.8075C24.7177 80.3117 25.1867 82.9013 24.9947 84.7624C24.6871 87.7358 23.9259 93.2783 23.8919 93.5137C23.7917 94.2404 23.1732 94.7658 22.4629 94.7658L22.4646 94.7641Z" fill="#231916"/>
<path d="M147.554 144C146.971 144 146.422 143.643 146.203 143.063C132.695 107.311 124.424 85.8609 123.467 84.1073C121.603 81.731 119.041 80.1087 119.015 80.0916C118.85 79.9875 118.706 79.8511 118.596 79.6924C118.353 79.3444 94.2705 44.7727 91.8645 41.54C91.3344 40.8269 90.5698 40.6325 89.9173 41.0453C88.7721 41.7686 88.3524 44.1091 90.1399 47.5396C94.0887 55.1172 100.297 67.3929 100.359 67.5157C100.377 67.5515 100.394 67.5891 100.408 67.6266L105.493 80.1888C105.794 80.9309 105.437 81.777 104.698 82.079C103.959 82.3809 103.116 82.0244 102.816 81.2806L97.7538 68.7747C97.3001 67.8757 91.3854 56.1885 87.5776 48.8856C86.3814 46.5895 85.8767 44.4741 86.0772 42.5994C86.2675 40.832 87.0831 39.4093 88.3762 38.5922C90.3064 37.3725 92.7464 37.8826 94.1771 39.8068C96.5321 42.9712 118.505 74.5082 120.799 77.8006C121.581 78.3243 123.946 80.0063 125.786 82.3826C126.123 82.8159 126.909 83.8309 148.902 142.036C149.185 142.785 148.81 143.623 148.062 143.908C147.894 143.972 147.721 144.001 147.551 144.001L147.554 144ZM123.503 84.1533L123.508 84.1602L123.503 84.1533Z" fill="#231916"/>
<path d="M122.279 143.999C121.659 143.999 121.086 143.595 120.898 142.969L119.972 139.907C118.643 139.047 115.038 136.459 112.655 132.319C110.018 127.737 110.628 114.01 110.844 110.351L107.813 107.797L103.315 107.445L102.306 110.008C102.722 110.943 103.458 112.843 103.793 115.223C104.063 117.15 103.24 118.831 101.643 119.607C100.022 120.395 98.0613 120.071 96.8719 118.819C95.7811 117.672 94.5679 115.509 93.4974 113.6C93.02 112.749 92.5697 111.946 92.2774 111.512C91.3633 110.153 92.2706 106.981 93.3666 103.573C94.2994 100.67 95.3325 97.9896 95.3767 97.877C95.5585 97.4079 95.9697 97.065 96.4641 96.9746L115.6 93.4588C116.385 93.3138 117.138 93.8358 117.282 94.6239C117.427 95.412 116.907 96.1677 116.122 96.3127L97.7861 99.6819C96.1872 103.931 94.6851 108.822 94.7786 110.044C95.1201 110.572 95.5398 111.321 96.019 112.176C96.9076 113.761 98.1259 115.931 98.9653 116.814C99.2779 117.142 99.9151 117.224 100.387 116.993C100.846 116.77 101.03 116.311 100.935 115.625C100.535 112.783 99.4716 110.767 99.4614 110.746C99.2609 110.371 99.2354 109.924 99.3918 109.528L101.025 105.381C101.257 104.789 101.85 104.419 102.481 104.469L108.504 104.939C108.805 104.963 109.091 105.079 109.32 105.274L113.265 108.597C113.619 108.895 113.809 109.344 113.778 109.806C113.462 114.446 113.095 127.273 115.163 130.864C117.664 135.211 121.877 137.674 121.919 137.698C122.239 137.882 122.476 138.182 122.583 138.535L123.667 142.123C123.899 142.889 123.469 143.699 122.704 143.933C122.565 143.976 122.424 143.996 122.284 143.996L122.279 143.999Z" fill="#231916"/>
<path d="M51.6797 144C50.9541 144 50.3288 143.452 50.2456 142.712L49.3008 134.28C49.2108 133.483 49.7817 132.765 50.5752 132.676C51.367 132.587 52.0841 133.159 52.1724 133.955L53.1171 142.388C53.2072 143.184 52.6363 143.903 51.8428 143.991C51.7884 143.998 51.734 144 51.6797 144Z" fill="#231916"/>
<path d="M23.6183 144C22.8536 144 22.2148 143.396 22.1757 142.621C21.9021 137.101 21.6014 133.385 21.2785 131.579C20.694 128.298 19.4621 120.327 18.6398 112.903C17.0477 98.5271 18.147 97.0379 18.6754 96.3231C20.5955 93.7233 32.0392 79.6309 35.9847 77.0567C39.8264 74.549 52.4783 68.2253 56.4067 66.6166C59.5434 65.3321 62.5271 66.1065 64.0104 68.5869C65.5957 71.2379 65.1913 75.5964 61.3546 78.8035C60.7413 79.3153 59.8305 79.2317 59.3191 78.6159C58.8093 78.0001 58.8926 77.0857 59.506 76.5722C62.0649 74.4347 62.4608 71.6319 61.5331 70.0796C60.7905 68.8394 59.3208 68.5562 57.4976 69.3017C53.751 70.837 41.2129 77.1028 37.5598 79.4876C34.1972 81.6831 23.2614 94.9908 21.0118 98.029C20.8436 98.3617 20.1622 100.552 21.5487 112.92C22.3626 120.184 23.5605 127.906 24.1229 131.067C24.4661 132.995 24.7822 136.833 25.0608 142.476C25.0999 143.276 24.4865 143.957 23.6896 143.998C23.6658 143.998 23.6404 144 23.6166 144H23.6183Z" fill="#231916"/>
</svg>
