<svg width="195" height="125" viewBox="0 0 195 125" fill="none" xmlns="http://www.w3.org/2000/svg">
<path d="M33.8909 89.4062L38.3559 94.8362C47.3316 94.9397 54.5793 102.218 54.6083 111.203H124.73C124.761 102.154 132.108 94.8279 141.173 94.8279C150.237 94.8279 157.585 102.154 157.616 111.203L186.507 106.507V89.4062H33.8909Z" fill="#898989"/>
<path d="M157.614 112.082C157.406 112.082 157.203 112.01 157.044 111.873C156.847 111.708 156.733 111.463 156.733 111.205C156.704 102.659 149.724 95.7055 141.171 95.7055C132.618 95.7055 125.637 102.657 125.61 111.205C125.61 111.689 125.214 112.082 124.73 112.082H54.6084C54.1236 112.082 53.7299 111.689 53.7278 111.205C53.7133 107.093 52.1096 103.224 49.211 100.307C46.3144 97.3927 42.4564 95.7614 38.3456 95.7159C38.0866 95.7138 37.8401 95.5958 37.6743 95.395L33.2092 89.9651C32.9938 89.7022 32.9482 89.3379 33.0932 89.0294C33.2383 88.721 33.5491 88.5264 33.8889 88.5264H186.505C186.992 88.5264 187.386 88.9197 187.386 89.4062V106.507C187.386 106.938 187.073 107.306 186.646 107.377L157.754 112.072C157.707 112.08 157.659 112.082 157.614 112.082ZM55.4641 110.323H123.872C124.361 101.216 131.944 93.948 141.171 93.948C150.397 93.948 157.897 101.138 158.461 110.174L185.624 105.76V90.288H35.7536L38.7787 93.9666C43.1981 94.1198 47.3338 95.9229 50.4604 99.0695C53.4813 102.108 55.2383 106.075 55.4641 110.323Z" fill="#231916"/>
<path d="M186.505 0.879883H59.436C58.1384 0.879883 57.0864 1.9309 57.0864 3.2274V93.3956C57.0864 94.6921 58.1384 95.7431 59.436 95.7431H186.505C187.803 95.7431 188.854 94.6921 188.854 93.3956V3.2274C188.854 1.9309 187.803 0.879883 186.505 0.879883Z" fill="#C7DC72"/>
<path d="M186.505 96.6249H59.436C57.6541 96.6249 56.2058 95.1779 56.2058 93.3976V3.22732C56.2058 1.44701 57.6541 0 59.436 0H186.505C188.287 0 189.735 1.44701 189.735 3.22732V93.3976C189.735 95.1779 188.287 96.6249 186.505 96.6249ZM59.436 1.7596C58.6259 1.7596 57.967 2.4179 57.967 3.22732V93.3976C57.967 94.207 58.6259 94.8653 59.436 94.8653H186.505C187.315 94.8653 187.974 94.207 187.974 93.3976V3.22732C187.974 2.4179 187.315 1.7596 186.505 1.7596H59.436Z" fill="#231916"/>
<path d="M144.801 69.3406C164.692 69.3406 180.818 57.329 180.818 42.5118C180.818 27.6947 164.692 15.6831 144.801 15.6831C124.909 15.6831 108.784 27.6947 108.784 42.5118C108.784 57.329 124.909 69.3406 144.801 69.3406Z" fill="white"/>
<path d="M54.7369 95.7429H36.9699C24.0948 95.7429 23.2908 107.801 23.2908 107.801H19.8908C14.2488 107.801 9.67603 103.233 9.67603 97.5956V63.921C9.67603 62.1221 10.1588 60.3562 11.0725 58.8057L19.781 44.0478C21.4572 41.2076 24.5112 39.4646 27.8098 39.4646H51.5979C53.3301 39.4646 54.7348 40.8681 54.7348 42.5988V95.7429H54.7369Z" fill="white"/>
<path d="M23.293 108.683H19.8929C13.7744 108.683 8.79761 103.711 8.79761 97.5977V63.9231C8.79761 61.9689 9.32181 60.0458 10.3164 58.3607L19.0248 43.6028C20.8502 40.508 24.2171 38.5869 27.8119 38.5869H51.6001C53.815 38.5869 55.6176 40.3879 55.6176 42.6009V95.7429C55.6176 96.2294 55.2239 96.6227 54.737 96.6227H36.97C25.0956 96.6227 24.2026 107.402 24.1694 107.861C24.1363 108.323 23.753 108.681 23.2909 108.681L23.293 108.683ZM27.8119 40.3486C24.8387 40.3486 22.0519 41.9384 20.5414 44.4971L11.833 59.255C11.0001 60.6689 10.5588 62.2815 10.5588 63.9231V97.5977C10.5588 102.74 14.7462 106.924 19.8929 106.924H22.516C22.7025 105.766 23.2101 103.551 24.5486 101.322C26.3181 98.3761 29.9088 94.8652 36.9721 94.8652H53.8585V42.6029C53.8585 41.3609 52.8474 40.3486 51.6021 40.3486H27.814H27.8119Z" fill="#231916"/>
<path d="M16.6854 66.7178C15.4153 66.9558 14.8248 66.194 15.3738 65.0244L24.1734 46.2878C24.7225 45.1181 26.2288 44.1638 27.5196 44.1638H47.688C48.9809 44.1638 50.0376 45.2196 50.0376 46.5113V58.135C50.0376 59.4268 48.9975 60.6772 47.7274 60.9132L16.6833 66.7178H16.6854Z" fill="#C7DC72"/>
<path d="M16.2566 67.6411C15.5749 67.6411 15.0072 67.3968 14.6529 66.9393C14.1991 66.3535 14.1722 65.5192 14.5783 64.6539L23.3779 45.9173C24.0699 44.4413 25.8911 43.2861 27.5218 43.2861H47.6902C49.4721 43.2861 50.9204 44.7331 50.9204 46.5134V58.1372C50.9204 59.8636 49.5902 61.4638 47.8932 61.7806L16.8491 67.5852C16.644 67.6225 16.4472 67.6432 16.2566 67.6432V67.6411ZM16.0514 65.8566C16.1094 65.8773 16.2607 65.9043 16.5238 65.8546L47.5679 60.05C48.4154 59.8926 49.1592 58.9983 49.1592 58.1351V46.5114C49.1592 45.702 48.5003 45.0437 47.6902 45.0437H27.5218C26.5687 45.0437 25.3773 45.7993 24.9712 46.6625L16.1716 65.3991C16.0576 65.6413 16.0452 65.7945 16.0514 65.8566Z" fill="#231916"/>
<path d="M25.2903 111.259C25.2903 104.154 31.0545 98.395 38.1654 98.395C45.2764 98.395 51.0405 104.154 51.0405 111.259C51.0405 118.363 45.2764 124.122 38.1654 124.122C31.0545 124.122 25.2903 118.363 25.2903 111.259Z" fill="#898989"/>
<path d="M38.1654 125C30.58 125 24.4097 118.835 24.4097 111.257C24.4097 103.678 30.58 97.5132 38.1654 97.5132C45.7508 97.5132 51.9211 103.678 51.9211 111.257C51.9211 118.835 45.7508 125 38.1654 125ZM38.1654 99.2749C31.5517 99.2749 26.1729 104.651 26.1729 111.257C26.1729 117.862 31.5538 123.239 38.1654 123.239C44.777 123.239 50.1579 117.862 50.1579 111.257C50.1579 104.651 44.777 99.2749 38.1654 99.2749Z" fill="#231916"/>
<path d="M43.1505 116.237C45.9032 113.487 45.9032 109.028 43.1505 106.277C40.3978 103.527 35.9347 103.527 33.182 106.277C30.4293 109.028 30.4293 113.487 33.182 116.237C35.9347 118.987 40.3978 118.987 43.1505 116.237Z" fill="white"/>
<path d="M38.1655 119.179C33.7936 119.179 30.2361 115.624 30.2361 111.256C30.2361 106.888 33.7936 103.334 38.1655 103.334C42.5373 103.334 46.0948 106.888 46.0948 111.256C46.0948 115.624 42.5373 119.179 38.1655 119.179ZM38.1655 105.096C34.7654 105.096 31.9993 107.859 31.9993 111.256C31.9993 114.653 34.7654 117.417 38.1655 117.417C41.5655 117.417 44.3316 114.653 44.3316 111.256C44.3316 107.859 41.5655 105.096 38.1655 105.096Z" fill="#231916"/>
<path d="M128.297 111.259C128.297 104.154 134.062 98.395 141.17 98.395C148.279 98.395 154.046 104.154 154.046 111.259C154.046 118.363 148.281 124.122 141.17 124.122C134.059 124.122 128.297 118.363 128.297 111.259Z" fill="#898989"/>
<path d="M141.171 125C133.585 125 127.415 118.835 127.415 111.257C127.415 103.678 133.585 97.5132 141.171 97.5132C148.756 97.5132 154.926 103.678 154.926 111.257C154.926 118.835 148.756 125 141.171 125ZM141.171 99.2749C134.557 99.2749 129.178 104.651 129.178 111.257C129.178 117.862 134.559 123.239 141.171 123.239C147.782 123.239 153.163 117.862 153.163 111.257C153.163 104.651 147.782 99.2749 141.171 99.2749Z" fill="#231916"/>
<path d="M147.977 113.106C148.996 109.352 146.777 105.484 143.02 104.465C139.263 103.447 135.391 105.664 134.371 109.418C133.352 113.172 135.571 117.04 139.328 118.059C143.086 119.077 146.958 116.86 147.977 113.106Z" fill="white"/>
<path d="M141.171 119.179C136.799 119.179 133.241 115.625 133.241 111.257C133.241 106.889 136.799 103.334 141.171 103.334C145.542 103.334 149.1 106.889 149.1 111.257C149.1 115.625 145.542 119.179 141.171 119.179ZM141.171 105.096C137.771 105.096 135.004 107.86 135.004 111.257C135.004 114.654 137.771 117.417 141.171 117.417C144.571 117.417 147.337 114.654 147.337 111.257C147.337 107.86 144.571 105.096 141.171 105.096Z" fill="#231916"/>
<path d="M194.12 103.446H186.505V106.508H194.12V103.446Z" fill="#898989"/>
<path d="M194.12 107.387H186.505C186.018 107.387 185.625 106.994 185.625 106.507V103.446C185.625 102.959 186.018 102.566 186.505 102.566H194.12C194.606 102.566 195 102.959 195 103.446V106.507C195 106.994 194.606 107.387 194.12 107.387ZM187.388 105.628H193.239V104.326H187.388V105.628Z" fill="#231916"/>
<path d="M3.36903 50.5151H3.23021C1.93257 50.5151 0.880615 51.5662 0.880615 52.8627V61.7869C0.880615 63.0834 1.93257 64.1344 3.23021 64.1344H3.36903C4.66668 64.1344 5.71863 63.0834 5.71863 61.7869V52.8627C5.71863 51.5662 4.66668 50.5151 3.36903 50.5151Z" fill="white"/>
<path d="M3.369 65.0142H3.23018C1.4483 65.0142 0 63.5672 0 61.7869V52.8626C0 51.0823 1.4483 49.6353 3.23018 49.6353H3.369C5.15088 49.6353 6.59918 51.0823 6.59918 52.8626V61.7869C6.59918 63.5672 5.15088 65.0142 3.369 65.0142ZM3.23018 51.3949C2.42004 51.3949 1.76116 52.0532 1.76116 52.8626V61.7869C1.76116 62.5963 2.42004 63.2546 3.23018 63.2546H3.369C4.17913 63.2546 4.83802 62.5963 4.83802 61.7869V52.8626C4.83802 52.0532 4.17913 51.3949 3.369 51.3949H3.23018Z" fill="#231916"/>
<path d="M9.42532 70.9574H3.29855C2.81164 70.9574 2.41797 70.5641 2.41797 70.0776V64.3661C2.41797 63.8797 2.81164 63.4863 3.29855 63.4863C3.78546 63.4863 4.17913 63.8797 4.17913 64.3661V69.1978H9.42325C9.91016 69.1978 10.3038 69.5911 10.3038 70.0776C10.3038 70.5641 9.91016 70.9574 9.42325 70.9574H9.42532Z" fill="#231916"/>
<path d="M50.0399 76.876H40.8052V80.8299H50.0399V76.876Z" fill="#898989"/>
<path d="M50.0398 81.7096H40.8051C40.3182 81.7096 39.9246 81.3163 39.9246 80.8298V76.8759C39.9246 76.3894 40.3182 75.9961 40.8051 75.9961H50.0398C50.5268 75.9961 50.9204 76.3894 50.9204 76.8759V80.8298C50.9204 81.3163 50.5268 81.7096 50.0398 81.7096ZM41.6857 79.95H49.1572V77.7557H41.6857V79.95Z" fill="#231916"/>
<path d="M101.043 91.9299H62.9604C61.827 91.9299 60.905 91.0087 60.905 89.8763V6.74863C60.905 5.61627 61.827 4.69507 62.9604 4.69507H101.043C102.176 4.69507 103.098 5.61627 103.098 6.74863V89.8763C103.098 91.0087 102.176 91.9299 101.043 91.9299ZM62.9604 6.45467C62.8009 6.45467 62.6662 6.58923 62.6662 6.74863V89.8763C62.6662 90.0357 62.8009 90.1703 62.9604 90.1703H101.043C101.202 90.1703 101.337 90.0357 101.337 89.8763V6.74863C101.337 6.58923 101.202 6.45467 101.043 6.45467H62.9604Z" fill="#231916"/>
<path d="M71.267 73.3628H65.9897C65.5028 73.3628 65.1091 72.9694 65.1091 72.483V67.2104C65.1091 66.7239 65.5028 66.3306 65.9897 66.3306H71.267C71.7539 66.3306 72.1476 66.7239 72.1476 67.2104V72.483C72.1476 72.9694 71.7539 73.3628 71.267 73.3628ZM66.8724 71.6032H70.3864V68.0922H66.8724V71.6032Z" fill="#231916"/>
<path d="M142.627 39.465C143.483 37.8793 144.051 36.3287 142.08 35.1777C141.137 34.6271 140.039 34.3228 139.215 33.6086C137.313 31.9608 138.013 28.307 140.387 27.4769C140.941 27.2844 141.643 27.1312 141.796 26.5661C141.854 26.357 141.815 26.1355 141.784 25.9202C141.351 22.875 143.021 19.4925 145.926 18.476C148.831 17.4596 152.556 19.5007 152.8 22.5666C152.908 23.9163 152.597 25.6738 153.812 26.2742C154.261 26.4957 154.792 26.4563 155.287 26.5391C156.748 26.7834 157.854 28.1725 158.028 29.6402C158.202 31.11 157.568 32.5922 156.588 33.7018C155.695 34.712 154.427 35.6891 154.526 37.0305C154.727 39.7341 157.17 40.707 156.163 43.9281C155.658 45.547 154.64 46.9505 153.58 48.2733C152.436 49.6955 150.818 51.2005 149.044 50.7595C147.301 50.3289 143.632 48.0704 142.472 46.7683C141.405 45.5697 140.862 43.8619 141.251 42.3072C141.479 41.4026 142.105 40.4276 142.623 39.4629L142.627 39.465Z" fill="#A1C371"/>
<path d="M149.682 51.7201C149.398 51.7201 149.115 51.6849 148.835 51.6166C146.978 51.157 143.11 48.8074 141.817 47.3563C140.499 45.8782 139.956 43.8619 140.4 42.094C140.607 41.2701 141.067 40.4524 141.51 39.6616C141.624 39.4567 141.74 39.2517 141.85 39.0489C142.812 37.2686 142.764 36.5999 141.635 35.9395C141.322 35.7574 140.978 35.6 140.617 35.4324C139.946 35.1239 139.25 34.8051 138.637 34.2752C137.52 33.3084 137.021 31.6979 137.331 30.0728C137.642 28.4478 138.701 27.1353 140.095 26.6468C140.174 26.6199 140.253 26.593 140.336 26.566C140.516 26.506 140.843 26.4004 140.947 26.3156C140.945 26.268 140.93 26.1644 140.92 26.0941L140.914 26.0444C140.402 22.4403 142.476 18.7513 145.638 17.6459C147.384 17.0352 149.427 17.3209 151.102 18.4098C152.614 19.3931 153.553 20.8836 153.681 22.4983C153.706 22.8171 153.71 23.1483 153.714 23.4691C153.727 24.5477 153.768 25.2722 154.205 25.4875C154.363 25.5662 154.618 25.5869 154.885 25.6097C155.061 25.6241 155.241 25.6407 155.434 25.6718C157.216 25.9678 158.675 27.5949 158.905 29.5387C159.095 31.1493 158.492 32.8799 157.249 34.2855C157.067 34.4925 156.87 34.6954 156.681 34.8921C156 35.6021 155.353 36.2728 155.405 36.9684C155.471 37.873 155.859 38.5707 156.269 39.3076C156.949 40.5311 157.717 41.9201 157.007 44.1931C156.455 45.9569 155.366 47.4618 154.267 48.826C152.72 50.7512 151.182 51.7201 149.682 51.7201ZM143.402 39.8831C143.288 40.0963 143.168 40.3096 143.048 40.5228C142.642 41.2453 142.258 41.9284 142.109 42.5225C141.807 43.7315 142.198 45.135 143.133 46.1846C144.192 47.3728 147.743 49.5299 149.26 49.9066C150.3 50.1633 151.524 49.4305 152.896 47.7227C153.884 46.493 154.862 45.1516 155.326 43.6673C155.813 42.1126 155.335 41.2515 154.73 40.1605C154.27 39.3283 153.745 38.3864 153.65 37.0967C153.54 35.6187 154.578 34.5401 155.411 33.6728C155.596 33.4802 155.77 33.3001 155.927 33.12C156.839 32.0891 157.284 30.8595 157.154 29.7437C157.017 28.5803 156.151 27.5742 155.142 27.4065C155.02 27.3858 154.879 27.3734 154.732 27.361C154.332 27.3258 153.878 27.2885 153.422 27.0629C151.984 26.3528 151.966 24.6967 151.951 23.4878C151.947 23.1835 151.945 22.8957 151.924 22.6349C151.839 21.5688 151.189 20.5668 150.14 19.8837C148.938 19.1012 147.436 18.8797 146.22 19.3061C143.825 20.1445 142.26 22.9951 142.658 25.798L142.665 25.8436C142.7 26.0899 142.749 26.4294 142.648 26.8C142.389 27.746 141.486 28.042 140.887 28.2387C140.816 28.2615 140.746 28.2842 140.68 28.3091C139.876 28.5906 139.256 29.3918 139.063 30.404C138.871 31.4143 139.15 32.3893 139.793 32.9462C140.215 33.3126 140.769 33.5651 141.353 33.8342C141.738 34.0102 142.136 34.1944 142.526 34.4201C145.435 36.1196 144.011 38.757 143.402 39.8831Z" fill="#231916"/>
<path d="M149.943 64.0497C149.929 64.0497 149.916 64.0497 149.902 64.0497C149.415 64.027 149.04 63.615 149.063 63.1306C149.657 50.2503 148.856 37.2769 146.68 24.5684C146.597 24.0902 146.92 23.6348 147.399 23.552C147.88 23.4712 148.333 23.7921 148.416 24.2703C150.613 37.103 151.423 50.2048 150.822 63.2113C150.801 63.6833 150.409 64.0518 149.943 64.0518V64.0497Z" fill="#231916"/>
<path d="M148.853 33.4015C148.725 33.4015 148.592 33.3725 148.47 33.3125C148.033 33.0993 147.851 32.5735 148.062 32.1367C148.88 30.4537 149.875 28.8472 151.019 27.365C151.317 26.98 151.868 26.9096 152.253 27.2056C152.639 27.5017 152.709 28.0544 152.413 28.4394C151.342 29.8264 150.411 31.3293 149.645 32.9047C149.492 33.2173 149.179 33.4015 148.851 33.4015H148.853Z" fill="#231916"/>
<path d="M149.595 41.7317C149.365 41.7317 149.135 41.6427 148.961 41.4626C147.822 40.2847 146.589 39.1751 145.292 38.1628C144.908 37.8626 144.84 37.3099 145.14 36.9269C145.441 36.544 145.994 36.4757 146.377 36.7758C147.737 37.8378 149.034 39.0012 150.229 40.2391C150.567 40.589 150.557 41.1458 150.208 41.4833C150.037 41.6489 149.817 41.7296 149.597 41.7296L149.595 41.7317Z" fill="#231916"/>
<path d="M150.105 46.5488C149.927 46.5488 149.744 46.495 149.589 46.3811C149.195 46.0955 149.106 45.5448 149.392 45.1515C150.275 43.9343 151.253 42.7688 152.301 41.6903C152.639 41.3425 153.198 41.3321 153.547 41.6716C153.897 42.0091 153.905 42.568 153.565 42.9158C152.577 43.9343 151.653 45.0335 150.82 46.1845C150.648 46.4225 150.378 46.5488 150.105 46.5488Z" fill="#231916"/>
<path d="M149.121 37.5684C150.627 36.581 151.866 35.4859 150.681 33.5379C150.113 32.6043 149.293 31.8176 148.907 30.795C148.021 28.4413 150.374 25.5597 152.859 25.9592C153.437 26.0523 154.127 26.2511 154.533 25.8288C154.684 25.6714 154.754 25.4582 154.831 25.2553C155.9 22.3717 158.979 20.1898 162.021 20.6762C165.06 21.1627 167.364 24.7295 166.119 27.5428C165.57 28.7808 164.462 30.1802 165.243 31.2856C165.533 31.6955 166.018 31.9108 166.413 32.2192C167.582 33.128 167.895 34.8752 167.348 36.2497C166.801 37.6243 165.537 38.6283 164.147 39.1376C162.881 39.6013 161.3 39.858 160.749 41.0876C159.636 43.5614 161.323 45.5798 158.905 47.9335C157.688 49.1155 156.126 49.8691 154.562 50.5253C152.879 51.2333 150.739 51.786 149.388 50.5563C148.062 49.3495 145.907 45.6191 145.507 43.9237C145.138 42.3628 145.474 40.6032 146.56 39.4191C147.19 38.7318 148.205 38.1708 149.121 37.5705V37.5684Z" fill="#A1C371"/>
<path d="M151.447 52.1566C150.376 52.1566 149.489 51.8398 148.793 51.2043C147.38 49.9188 145.095 46.0124 144.649 44.1224C144.196 42.1972 144.676 40.1644 145.909 38.8209C146.483 38.1957 147.277 37.6947 148.045 37.2103C148.244 37.084 148.443 36.9598 148.638 36.8315C150.331 35.7219 150.608 35.1133 149.929 33.9954C149.74 33.6849 149.514 33.3847 149.274 33.0659C148.831 32.4759 148.371 31.8653 148.085 31.1076C147.565 29.7268 147.89 28.0728 148.938 26.7914C149.987 25.51 151.543 24.8579 153.001 25.0918C153.082 25.1042 153.165 25.1187 153.25 25.1353C153.437 25.1684 153.776 25.2285 153.907 25.2057C153.928 25.1622 153.963 25.0649 153.988 24.9987L154.004 24.9511C155.27 21.5395 158.851 19.2789 162.157 19.8089C163.985 20.1008 165.645 21.3242 166.6 23.0776C167.462 24.6612 167.578 26.4188 166.923 27.8989C166.792 28.1929 166.639 28.4848 166.49 28.7684C165.988 29.7227 165.68 30.3789 165.962 30.7764C166.063 30.9192 166.276 31.06 166.5 31.207C166.647 31.3043 166.801 31.4036 166.954 31.5237C168.38 32.6312 168.889 34.7551 168.166 36.5748C167.567 38.0818 166.212 39.3177 164.449 39.9636C164.19 40.0588 163.921 40.1437 163.662 40.2265C162.723 40.5266 161.836 40.8102 161.55 41.4458C161.179 42.2738 161.188 43.0708 161.196 43.9133C161.211 45.3127 161.227 46.8985 159.518 48.5608C158.194 49.8484 156.518 50.6557 154.904 51.3347C153.598 51.8833 152.446 52.1566 151.45 52.1566H151.447ZM149.601 38.3033C149.398 38.4358 149.191 38.5662 148.984 38.6987C148.284 39.1417 147.621 39.5599 147.206 40.0112C146.363 40.9303 146.04 42.3525 146.363 43.7188C146.728 45.2693 148.824 48.8526 149.978 49.9043C150.77 50.6267 152.198 50.5605 154.216 49.7117C155.67 49.099 157.17 48.3848 158.285 47.3001C159.454 46.1636 159.443 45.1782 159.431 43.932C159.42 42.9818 159.41 41.9053 159.94 40.7254C160.548 39.3736 161.975 38.9161 163.123 38.5497C163.376 38.4689 163.614 38.3923 163.84 38.3095C165.133 37.8355 166.111 36.966 166.525 35.9227C166.958 34.8338 166.676 33.5379 165.87 32.9107C165.771 32.8341 165.655 32.7575 165.531 32.6767C165.195 32.4552 164.814 32.2068 164.519 31.7907C163.593 30.4824 164.364 29.0168 164.928 27.9465C165.069 27.6774 165.203 27.4228 165.309 27.1826C165.742 26.2055 165.647 25.0132 165.05 23.9139C164.366 22.6553 163.15 21.7465 161.878 21.5416C159.373 21.14 156.638 22.9058 155.654 25.5576L155.637 25.6011C155.55 25.835 155.432 26.1559 155.167 26.4333C154.487 27.1412 153.553 26.9736 152.933 26.8618C152.861 26.8494 152.788 26.8349 152.718 26.8245C151.876 26.69 150.95 27.1019 150.3 27.8989C149.649 28.6959 149.429 29.6854 149.73 30.4824C149.927 31.0062 150.293 31.4906 150.679 32.004C150.934 32.3435 151.197 32.6933 151.431 33.0783C153.18 35.9558 150.673 37.5995 149.601 38.3013V38.3033Z" fill="#231916"/>
<path d="M144.264 62.7742C144.109 62.7742 143.953 62.7328 143.81 62.6479C143.394 62.3974 143.259 61.8571 143.51 61.439C150.165 50.3928 155.639 38.6014 159.777 26.3877C159.932 25.9282 160.432 25.6797 160.894 25.8371C161.354 25.9923 161.602 26.4933 161.445 26.9529C157.266 39.2846 151.738 51.194 145.018 62.3478C144.853 62.6231 144.562 62.7742 144.262 62.7742H144.264Z" fill="#231916"/>
<path d="M157.902 35.2997C157.628 35.2997 157.357 35.1714 157.185 34.9333C156.901 34.5379 156.992 33.9893 157.386 33.7057C158.909 32.6127 160.548 31.6749 162.259 30.9152C162.705 30.7185 163.225 30.9173 163.421 31.3623C163.618 31.8074 163.419 32.327 162.974 32.5237C161.372 33.2337 159.837 34.1135 158.414 35.1362C158.258 35.2479 158.078 35.3018 157.9 35.3018L157.902 35.2997Z" fill="#231916"/>
<path d="M154.587 42.9777C154.201 42.9777 153.847 42.723 153.739 42.3338C153.298 40.7543 152.741 39.1914 152.084 37.6885C151.889 37.2434 152.092 36.7238 152.537 36.5292C152.983 36.3346 153.503 36.5375 153.698 36.9826C154.388 38.56 154.972 40.2016 155.436 41.8598C155.567 42.3276 155.293 42.8141 154.825 42.9445C154.746 42.9673 154.665 42.9777 154.587 42.9777Z" fill="#231916"/>
<path d="M152.743 47.4594C152.415 47.4594 152.1 47.2752 151.949 46.9605C151.738 46.5217 151.922 45.9959 152.361 45.7868C153.719 45.1347 155.134 44.5758 156.57 44.1245C157.034 43.9775 157.529 44.2363 157.674 44.7C157.819 45.1637 157.562 45.6584 157.098 45.8033C155.743 46.2298 154.406 46.7577 153.126 47.3725C153.004 47.4325 152.873 47.4594 152.745 47.4594H152.743Z" fill="#231916"/>
<path d="M169.173 43.5366C166.877 41.9198 163.881 41.7853 161.074 41.7832C160.015 41.7832 158.931 41.7956 157.937 42.1579C156.942 42.5202 155.511 43.0129 155.289 44.0479L155.335 44.1473C154.808 43.5946 153.895 43.4724 153.149 43.7126C152.312 43.9817 151.638 44.5965 150.994 45.1927C147.685 48.2606 144.832 54.4213 148.681 58.2965C151.452 61.085 159.648 63.6437 162.97 61.0229C166.664 59.7125 170.062 57.7045 171.62 54.1128C173.178 50.5212 172.378 45.793 169.175 43.5366H169.173Z" fill="#C7DC72"/>
<path d="M159.037 63.0018C154.943 63.0018 150.037 60.9152 148.054 58.9175C146.636 57.4891 145.909 55.6384 145.951 53.5642C146.027 49.8773 148.389 46.4036 150.391 44.5488C151.035 43.9526 151.835 43.2094 152.875 42.8761C153.996 42.5159 155.515 42.7499 156.248 43.8926C156.375 44.0913 156.46 44.2859 156.534 44.4598C156.594 44.5985 156.65 44.7289 156.706 44.8034C156.899 45.056 157.454 45.1388 157.995 45.2175C158.882 45.3458 159.984 45.5073 160.527 46.561C160.657 46.8177 160.72 47.0723 160.769 47.2793C160.796 47.3931 160.838 47.565 160.869 47.6064C160.9 47.6436 161.039 47.7244 161.13 47.7761C161.18 47.8051 161.229 47.8341 161.277 47.8631C162.783 48.7718 163.62 50.6536 163.339 52.3801C164.3 53.8312 164.886 55.5059 165.04 57.2448C165.139 58.3875 165.073 60.4867 163.513 61.7163C162.356 62.6292 160.769 63.0039 159.037 63.0039V63.0018ZM153.901 44.4764C153.733 44.4764 153.563 44.5012 153.414 44.5509C152.747 44.7641 152.158 45.3106 151.588 45.8385C149.703 47.5877 147.772 50.666 147.712 53.6014C147.679 55.2099 148.213 56.5824 149.303 57.6796C151.835 60.23 159.565 62.5899 162.421 60.3355C163.365 59.5903 163.339 58.0336 163.285 57.398C163.148 55.8413 162.595 54.3487 161.683 53.0798C161.528 52.8645 161.478 52.5891 161.548 52.3325C161.847 51.2518 161.327 49.9497 160.365 49.3701C160.328 49.3473 160.289 49.3246 160.249 49.3018C160.013 49.1652 159.719 48.9975 159.481 48.6911C159.213 48.3495 159.124 47.9831 159.054 47.6871C159.023 47.5608 158.992 47.4304 158.956 47.3621C158.838 47.1323 158.397 47.0536 157.738 46.9564C156.932 46.8384 155.927 46.6914 155.299 45.8633C155.115 45.6211 155.005 45.3624 154.916 45.1553C154.864 45.0332 154.814 44.9194 154.765 44.8407C154.603 44.5902 154.255 44.4784 153.901 44.4784V44.4764Z" fill="#231916"/>
<path d="M162.968 61.9047C162.605 61.9047 162.265 61.679 162.137 61.3188C161.973 60.8613 162.213 60.3583 162.671 60.1948C166.983 58.6649 169.567 56.6217 170.808 53.7629C172.298 50.3286 171.355 46.1531 168.663 44.2569C166.581 42.7913 163.771 42.665 161.07 42.6629C159.965 42.6691 159.058 42.6857 158.233 42.9859L158.152 43.0148C157.444 43.2715 156.259 43.7021 156.145 44.2341C156.043 44.7103 155.573 45.0104 155.098 44.9111C154.622 44.8096 154.319 44.3418 154.421 43.8657C154.74 42.3814 156.431 41.7686 157.549 41.3608L157.63 41.3318C158.724 40.9344 159.833 40.9116 161.07 40.9033C164.053 40.9054 167.174 41.0565 169.677 42.8182C173.025 45.176 174.231 50.2913 172.422 54.4626C170.994 57.7541 167.996 60.172 163.26 61.8529C163.162 61.8881 163.063 61.9047 162.965 61.9047H162.968Z" fill="#231916"/>
<path d="M167.636 57.3855C167.584 57.3855 167.534 57.3855 167.482 57.3814C166.842 57.3462 166.266 57.1185 165.794 56.8597C165.39 57.1681 164.901 57.342 164.397 57.342H164.387C163.9 57.34 163.508 56.9425 163.511 56.4581C163.513 55.9737 163.906 55.5824 164.391 55.5824H164.397C164.578 55.5824 164.785 55.452 164.901 55.2657C165.029 55.0608 165.234 54.9159 165.473 54.8682C165.711 54.8186 165.957 54.8703 166.154 55.009C166.724 55.4065 167.176 55.6031 167.578 55.6238C167.936 55.6445 168.299 55.4706 168.39 55.2367C168.502 54.9531 168.75 54.7482 169.049 54.6923C169.339 54.6385 169.635 54.7337 169.84 54.9428C169.892 54.951 170.012 54.9303 170.099 54.8641C170.228 54.7544 170.603 54.181 171.023 53.2556C171.224 52.8126 171.749 52.618 172.19 52.8188C172.633 53.0196 172.828 53.5413 172.627 53.9843C172.086 55.1725 171.595 55.9385 171.166 56.2656C170.708 56.6134 170.074 56.7852 169.492 56.6713C169.02 57.1185 168.351 57.3876 167.638 57.3876L167.636 57.3855Z" fill="#231916"/>
<path d="M166.761 60.2342C164.797 57.6714 165.524 53.5726 168.1 51.6246C170.675 49.6766 174.599 49.9602 177.059 52.0552C178.188 53.0157 179.046 54.3385 179.263 55.8042C179.603 58.0792 178.292 60.4247 176.319 61.6067C173.458 63.3229 168.885 63.0082 166.759 60.2342H166.761Z" fill="#E83929"/>
<path d="M172.266 63.53C169.919 63.53 167.526 62.6771 166.063 60.7685C165.015 59.4001 164.577 57.6198 164.83 55.7567C165.095 53.8005 166.094 52.0388 167.569 50.923C170.395 48.7846 174.815 48.9874 177.633 51.3846C179.011 52.5584 179.9 54.0799 180.138 55.6739C180.515 58.1974 179.133 60.9486 176.775 62.3625C175.513 63.1202 173.901 63.5321 172.266 63.5321V63.53ZM167.462 59.6982C169.324 62.1286 173.435 62.3107 175.868 60.8513C177.629 59.7935 178.669 57.771 178.393 55.9327C178.219 54.761 177.542 53.6204 176.489 52.724C174.276 50.8423 170.826 50.6663 168.632 52.3266C167.528 53.1608 166.778 54.4981 166.575 55.9927C166.386 57.3901 166.699 58.7067 167.462 59.6982Z" fill="#231916"/>
<path d="M172.608 50.1693C172.834 49.6497 173.058 49.128 173.284 48.6084C173.651 48.6871 174.015 48.7678 174.382 48.8465C174.301 49.3392 174.22 49.8318 174.142 50.3245C175.422 50.5667 176.645 51.1091 177.681 51.8978C176.587 52.08 175.493 52.2622 174.399 52.4443C174.343 53.4173 174.16 54.384 173.856 55.3094C173.408 54.1315 172.959 52.9536 172.511 51.7778C171.326 51.8668 170.149 52.0821 169.009 52.4195C169.708 51.9061 170.34 51.3016 170.88 50.6247C169.871 50.161 168.862 49.6973 167.853 49.2315C168.641 49.3826 169.422 49.0121 170.193 48.7864C170.963 48.5608 171.931 48.5359 172.422 49.1715L172.613 50.1713L172.608 50.1693Z" fill="#A1C371"/>
<path d="M173.856 56.1893C173.491 56.1893 173.164 55.9636 173.033 55.6221L171.927 52.7156C171.025 52.8212 170.13 53.0034 169.26 53.2621C168.85 53.3822 168.411 53.1938 168.22 52.8088C168.029 52.4258 168.143 51.9621 168.487 51.7075C168.817 51.4653 169.127 51.2024 169.42 50.9188L167.482 50.0286C167.078 49.8423 166.875 49.3848 167.012 48.9604C167.149 48.5361 167.58 48.2814 168.017 48.3642C168.413 48.4408 168.902 48.2773 169.42 48.1055C169.594 48.0475 169.768 47.9895 169.942 47.9399C170.957 47.6418 171.881 47.7142 172.548 48.1241C172.745 47.8239 173.11 47.6687 173.472 47.7473L174.57 47.9854C175.028 48.0848 175.329 48.5257 175.252 48.9873L175.142 49.6581C176.249 49.9769 177.297 50.5006 178.213 51.1941C178.493 51.4073 178.619 51.7654 178.536 52.107C178.453 52.4486 178.174 52.7073 177.825 52.7632L175.217 53.198C175.122 54.0074 174.948 54.8064 174.693 55.5807C174.577 55.9347 174.249 56.1769 173.876 56.1872C173.87 56.1872 173.862 56.1872 173.856 56.1872V56.1893ZM172.915 50.9954C173.104 51.0926 173.255 51.2562 173.334 51.4653L173.58 52.1153C173.692 51.8379 173.943 51.6288 174.251 51.5771L174.983 51.4549C174.653 51.3431 174.316 51.2562 173.976 51.1899C173.677 51.1341 173.443 50.9332 173.331 50.6724C173.228 50.8215 173.081 50.9333 172.915 50.9933V50.9954ZM170.69 49.569L171.247 49.8257C171.494 49.9396 171.674 50.159 171.736 50.4219C171.78 50.6082 171.763 50.8028 171.688 50.9747C171.844 50.956 171.999 50.9395 172.155 50.925C171.945 50.7987 171.792 50.5875 171.744 50.335L171.608 49.6146C171.415 49.509 171.077 49.4924 170.692 49.569H170.69Z" fill="#231916"/>
<path d="M128.273 30.0337C127.85 28.4024 126.161 21.9043 125.848 20.2482C125.424 18.0042 125.759 17.1223 127.713 15.9382C128.399 15.5221 129.476 15.5263 129.822 16.2508C129.914 16.4413 129.938 16.6566 129.963 16.8677C130.72 23.3596 131.476 29.8515 132.232 36.3434C131.161 37.2522 130.411 35.4284 129.727 34.2008C128.438 31.8926 128.952 32.6503 128.273 30.0337Z" fill="url(#paint0_linear_260_1711)"/>
<path d="M131.662 37.4674C131.555 37.4674 131.457 37.457 131.372 37.4405C130.357 37.2459 129.775 36.1528 129.211 35.0971C129.126 34.9377 129.041 34.7783 128.959 34.6313C128.047 33.0001 127.97 32.7827 127.782 31.8387C127.713 31.4971 127.62 31.0272 127.421 30.2571L127.409 30.2054C126.01 24.8148 125.194 21.5192 124.985 20.4137C124.483 17.7681 125.016 16.5467 127.257 15.1887C127.91 14.7934 128.741 14.6754 129.429 14.8803C129.968 15.0418 130.39 15.3937 130.62 15.874C130.776 16.201 130.813 16.5281 130.842 16.7682L133.111 36.2439C133.144 36.5358 133.03 36.8256 132.806 37.0161C132.388 37.3701 131.986 37.4715 131.667 37.4715L131.662 37.4674ZM128.726 16.5385C128.542 16.5385 128.329 16.5944 128.169 16.6896C126.568 17.6605 126.35 18.1676 126.713 20.0825C126.851 20.8174 127.38 23.0925 129.11 29.7603L129.122 29.8121C129.336 30.6318 129.433 31.1307 129.506 31.493C129.651 32.2258 129.663 32.2859 130.492 33.7701C130.581 33.9295 130.67 34.0972 130.761 34.267C130.873 34.4781 131.028 34.77 131.19 35.037L129.085 16.9649C129.07 16.8469 129.054 16.6875 129.023 16.6254C129.019 16.6171 129.004 16.5881 128.917 16.5612C128.859 16.5447 128.793 16.5364 128.72 16.5364L128.726 16.5385Z" fill="#231916"/>
<path d="M125.965 32.0725C133.413 40.4006 140.147 54.7134 145.139 67.0782C146.699 68.016 147.747 66.8381 148.744 66.0246C145.366 58.5763 140.916 49.1614 136.71 42.1457C132.773 35.5752 124.697 25.3032 122.94 22.8646C122.56 22.3388 120.903 19.9582 119.84 18.9728C119.092 18.2793 117.87 19.2337 117.267 20.0058C116.073 21.5336 115.064 22.6183 116.734 24.026C117.801 24.9244 124.597 30.5406 125.965 32.0725Z" fill="url(#paint1_linear_260_1711)"/>
<path d="M146.264 68.31C145.781 68.31 145.254 68.1755 144.685 67.8318C144.521 67.7325 144.393 67.5834 144.322 67.4075C137.735 51.0929 131.337 39.4008 125.308 32.6605C124.164 31.3812 118.866 26.9573 116.873 25.293C116.554 25.0259 116.309 24.821 116.166 24.7009C113.937 22.8192 115.294 21.0927 116.386 19.7036L116.572 19.4656C117.138 18.741 118.091 17.9378 119.067 17.8592C119.589 17.8157 120.064 17.9792 120.439 18.327C121.348 19.1696 122.558 20.8132 123.511 22.1505L123.654 22.3513C124.044 22.8916 124.763 23.8418 125.672 25.0425C128.934 29.3525 134.391 36.5627 137.466 41.6945C140.818 47.29 144.77 55.1296 149.546 65.6624C149.711 66.0267 149.61 66.4552 149.299 66.7078C149.191 66.7947 149.083 66.8879 148.976 66.9789C148.313 67.5441 147.411 68.31 146.264 68.31ZM145.835 66.449C146.427 66.6995 146.869 66.4469 147.664 65.7804C143.04 55.614 139.206 48.027 135.953 42.5971C132.928 37.5481 127.506 30.3834 124.266 26.1024C123.35 24.8914 122.627 23.935 122.225 23.3781L122.076 23.1711C121.545 22.4259 120.134 20.4447 119.241 19.6167C119.075 19.5753 118.462 19.9044 117.961 20.5462L117.77 20.7905C116.502 22.4031 116.458 22.6411 117.302 23.3533C117.443 23.4713 117.685 23.6741 118.002 23.9391C121.444 26.8124 125.532 30.2675 126.621 31.4847C132.748 38.3368 139.213 50.0971 145.835 66.4469V66.449Z" fill="#231916"/>
<path d="M116.788 23.6308C116.506 23.6308 116.228 23.4942 116.056 23.2437C115.783 22.84 115.891 22.2935 116.293 22.0223C117.302 21.3413 118.068 20.331 118.452 19.1759C118.605 18.7143 119.104 18.4659 119.566 18.617C120.028 18.7702 120.279 19.2691 120.126 19.7307C119.62 21.2502 118.611 22.5833 117.283 23.4797C117.132 23.5811 116.96 23.6308 116.79 23.6308H116.788Z" fill="#231916"/>
<path d="M115.433 44.9549C115.416 44.9363 115.406 44.9135 115.402 44.8887C115.393 44.8431 115.414 44.7976 115.435 44.7541C115.613 44.4125 116.094 44.0461 116.384 43.7957C116.429 43.7543 116.483 43.7128 116.545 43.7149C116.608 43.7149 116.657 43.7605 116.705 43.8019C117.575 44.603 118.445 45.4041 119.318 46.2053C119.477 46.3522 119.034 46.698 118.93 46.7352C118.636 46.8429 118.222 46.551 117.986 46.4206C117.173 45.9672 116.39 45.4745 115.557 45.0419C115.514 45.0191 115.464 44.9901 115.433 44.9528V44.9549Z" fill="#C7DC72"/>
<path d="M118.796 47.6419C118.321 47.6419 117.901 47.3935 117.648 47.2445C117.615 47.2258 117.586 47.2072 117.557 47.1927C117.242 47.0167 116.929 46.8346 116.618 46.6524C116.119 46.3605 115.646 46.0852 115.151 45.8285C115.043 45.7726 114.884 45.6794 114.749 45.5138C114.635 45.3731 114.561 45.2075 114.532 45.0315C114.494 44.8079 114.536 44.5781 114.654 44.3525C114.884 43.9116 115.315 43.5493 115.661 43.2574C115.713 43.2139 115.762 43.1725 115.806 43.1353C116.038 42.9324 116.295 42.8351 116.568 42.8392C116.962 42.8496 117.215 43.0814 117.3 43.158L119.915 45.5635C120.169 45.7974 120.281 46.1431 120.213 46.4889C120.095 47.083 119.455 47.4867 119.235 47.5674C119.086 47.6212 118.939 47.644 118.796 47.644V47.6419Z" fill="#231916"/>
<path d="M116.266 42.8062C116.206 42.744 116.143 42.6799 116.11 42.5991C116.073 42.5039 116.079 42.3963 116.092 42.2948C116.156 41.7421 116.328 41.2039 116.593 40.7153C117.961 42.1458 119.249 43.6508 120.451 45.2241C120.571 45.3793 120.691 45.5429 120.743 45.7312C120.795 45.9196 120.762 46.1453 120.611 46.2715C119.794 46.9567 116.788 43.3423 116.266 42.8082V42.8062Z" fill="#C7DC72"/>
<path d="M120.372 47.2445C119.191 47.2445 117.668 45.6775 115.976 43.7957C115.822 43.626 115.704 43.4935 115.634 43.421C115.549 43.332 115.389 43.1685 115.292 42.9242C115.168 42.6095 115.203 42.3156 115.217 42.1914C115.296 41.5248 115.497 40.8872 115.818 40.2951C115.953 40.0467 116.197 39.8791 116.475 39.8418C116.755 39.8045 117.034 39.9018 117.229 40.1068C118.615 41.5538 119.935 43.096 121.151 44.69C121.288 44.868 121.495 45.1392 121.593 45.5015C121.74 46.0439 121.576 46.6111 121.176 46.9464C120.93 47.1535 120.662 47.2466 120.372 47.2466V47.2445Z" fill="#231916"/>
<path d="M118.694 47.3647C119.235 46.4746 120.014 45.7542 120.824 45.1C121.446 44.5991 122.204 44.1022 122.983 44.272C123.422 44.3672 123.789 44.6612 124.131 44.953C128.807 48.936 132.471 54.0036 135.371 59.4149C135.945 60.4872 136.925 62.8409 134.806 62.8202C134.18 62.814 133.598 62.5159 133.049 62.2137C127.912 59.3901 123.337 55.6245 119.247 51.4284C117.936 50.0828 117.704 48.9939 118.692 47.3647H118.694Z" fill="#F8B62D"/>
<path d="M134.832 63.7C134.82 63.7 134.808 63.7 134.797 63.7C133.977 63.6917 133.274 63.3418 132.624 62.9858C127.844 60.3567 123.13 56.676 118.617 52.0431C116.981 50.3622 116.777 48.8262 117.94 46.9092C118.582 45.8514 119.477 45.0544 120.269 44.4168C121.01 43.8165 122.013 43.1623 123.167 43.4128C123.797 43.5494 124.27 43.9179 124.699 44.2843C129.041 47.9836 132.893 52.9353 136.146 59.0008C136.757 60.1394 137.348 61.723 136.699 62.7953C136.449 63.2093 135.92 63.702 134.83 63.702L134.832 63.7ZM122.668 45.1186C122.256 45.1186 121.742 45.4912 121.377 45.7852C120.704 46.3275 119.948 46.9941 119.448 47.8201C118.7 49.0539 118.793 49.6977 119.881 50.8135C124.274 55.3222 128.847 58.8973 133.475 61.4415C133.948 61.7002 134.406 61.9342 134.816 61.9383C135.067 61.9383 135.181 61.8927 135.199 61.8762C135.292 61.7333 135.214 60.9819 134.596 59.8288C131.449 53.958 127.736 49.176 123.559 45.6216C123.29 45.3918 123.026 45.1807 122.796 45.131C122.755 45.1227 122.712 45.1186 122.668 45.1186Z" fill="#231916"/>
<path d="M124.141 50.0393C123.936 50.0393 123.729 49.9669 123.561 49.822C123.194 49.5011 123.157 48.9463 123.478 48.5799C124.251 47.698 124.881 47.1163 125.643 46.4642C126.012 46.1475 126.57 46.191 126.887 46.5615C127.204 46.9321 127.16 47.4869 126.789 47.8036C125.958 48.5136 125.42 49.0395 124.804 49.7412C124.63 49.94 124.386 50.0414 124.141 50.0414V50.0393Z" fill="#231916"/>
<path d="M124.17 56.7567C123.969 56.7567 123.766 56.6884 123.601 56.5476C123.23 56.233 123.184 55.6782 123.497 55.3076C123.978 54.7404 124.518 54.2167 125.099 53.7509C125.478 53.4466 126.033 53.5087 126.338 53.8875C126.642 54.2663 126.58 54.8211 126.201 55.1254C125.708 55.5208 125.25 55.9638 124.842 56.4462C124.668 56.6511 124.419 56.7567 124.168 56.7567H124.17Z" fill="#231916"/>
<path d="M127.204 51.2524C126.887 51.2524 126.58 51.0806 126.423 50.7804C126.197 50.3519 126.36 49.822 126.787 49.5942C126.955 49.4928 127.485 48.9877 127.682 48.7517C127.995 48.3791 128.553 48.3315 128.923 48.6461C129.296 48.9587 129.342 49.5156 129.029 49.8861C128.925 50.0083 128.126 50.8798 127.61 51.1489C127.479 51.2172 127.338 51.2503 127.202 51.2503L127.204 51.2524Z" fill="#231916"/>
<defs>
<linearGradient id="paint0_linear_260_1711" x1="132.682" y1="38.163" x2="129.972" y2="27.0185" gradientUnits="userSpaceOnUse">
<stop offset="0.53" stop-color="white"/>
<stop offset="0.76" stop-color="#C9DD78"/>
<stop offset="1" stop-color="#C7DC72"/>
</linearGradient>
<linearGradient id="paint1_linear_260_1711" x1="148.744" y1="43.0773" x2="115.854" y2="43.0773" gradientUnits="userSpaceOnUse">
<stop offset="0.53" stop-color="white"/>
<stop offset="0.76" stop-color="#C9DD78"/>
<stop offset="1" stop-color="#C7DC72"/>
</linearGradient>
</defs>
</svg>
