<svg width="193" height="188" viewBox="0 0 193 188" fill="none" xmlns="http://www.w3.org/2000/svg">
<path d="M87.3401 13.3877L90.5448 20.331L90.9955 21.3158C91.2041 21.7748 91.8718 21.8916 92.2807 21.6496C92.7564 21.3742 92.8316 20.8234 92.6146 20.3644L89.4098 13.4211L88.9592 12.4364C88.7505 11.9774 88.0828 11.8605 87.6739 12.1026C87.1982 12.378 87.1231 12.9287 87.3401 13.3877Z" fill="#FFBA31"/>
<path d="M80.3629 21.785L87.5235 24.4222L88.55 24.7977C89.0257 24.973 89.5766 24.5974 89.7017 24.1384C89.8436 23.6127 89.5265 23.162 89.0424 22.9868L81.8818 20.3496L80.8553 19.9741C80.3796 19.7988 79.8288 20.1744 79.7036 20.6334C79.5617 21.1591 79.8789 21.6098 80.3629 21.785Z" fill="#FFBA31"/>
<path d="M81.3897 32.6591L88.3334 29.4545L89.3181 29.0039C89.7772 28.7952 89.894 28.1276 89.652 27.7187C89.3766 27.243 88.8258 27.1679 88.3667 27.3849L81.4231 30.5895L80.4383 31.0401C79.9793 31.2488 79.8625 31.9164 80.1045 32.3253C80.3799 32.801 80.9307 32.8761 81.3897 32.6591Z" fill="#FFBA31"/>
<path d="M89.7939 39.6357L92.4311 32.4754L92.8067 31.4489C92.982 30.9732 92.6064 30.4224 92.1474 30.2972C91.6216 30.1554 91.1709 30.4725 90.9957 30.9565L88.3584 38.1168L87.9829 39.1433C87.8076 39.619 88.1832 40.1698 88.6422 40.295C89.168 40.4368 89.6186 40.1197 89.7939 39.6357Z" fill="#FFBA31"/>
<path d="M100.668 38.6013L97.4634 31.6579L97.0127 30.6732C96.8041 30.2142 96.1364 30.0974 95.7275 30.3394C95.2518 30.6148 95.1767 31.1656 95.3937 31.6246L98.5984 38.5679L99.0491 39.5526C99.2577 40.0116 99.9254 40.1284 100.334 39.8864C100.81 39.611 100.885 39.0603 100.668 38.6013Z" fill="#FFBA31"/>
<path d="M107.637 30.1967L100.476 27.5596L99.4499 27.1841C98.9742 27.0088 98.4234 27.3844 98.2982 27.8433C98.1563 28.3691 98.4735 28.8198 98.9575 28.995L106.118 31.6321L107.145 32.0077C107.62 32.1829 108.171 31.8074 108.296 31.3484C108.438 30.8226 108.121 30.372 107.637 30.1967Z" fill="#FFBA31"/>
<path d="M106.611 19.3307L99.667 22.5353L98.6822 22.9859C98.2232 23.1945 98.1064 23.8622 98.3484 24.2711C98.6238 24.7468 99.1746 24.8219 99.6336 24.6049L106.577 21.4003L107.562 20.9497C108.021 20.741 108.138 20.0734 107.896 19.6645C107.62 19.1888 107.07 19.1137 106.611 19.3307Z" fill="#FFBA31"/>
<path d="M98.2065 12.3545L95.5693 19.5148L95.1937 20.5412C95.0184 21.0169 95.394 21.5677 95.853 21.6929C96.3788 21.8348 96.8295 21.5176 97.0047 21.0336L99.642 13.8733L100.018 12.8468C100.193 12.3712 99.8172 11.8204 99.3582 11.6952C98.8324 11.5533 98.3818 11.8704 98.2065 12.3545Z" fill="#FFBA31"/>
<path d="M92.4895 0.904428L92.9485 14.257L93.0152 16.1764C93.057 17.3781 94.9347 17.3865 94.893 16.1764L94.434 2.82387L94.3672 0.904428C94.3255 -0.2973 92.4477 -0.305645 92.4895 0.904428Z" fill="#FFBA31"/>
<path d="M75.1888 9.31638L84.995 18.4712L86.3637 19.748C87.2483 20.5742 88.5753 19.2473 87.6907 18.4211L77.8845 9.26629L76.5158 7.98945C75.6312 7.16326 74.3042 8.49019 75.1888 9.31638Z" fill="#FFBA31"/>
<path d="M68.9045 27.5008L82.2576 27.0418L84.1771 26.9751C85.3789 26.9333 85.3872 25.0556 84.1771 25.0974L70.824 25.5564L68.9045 25.6231C67.7027 25.6649 67.6943 27.5426 68.9045 27.5008Z" fill="#FFBA31"/>
<path d="M77.3253 44.7999L86.4722 34.9941L87.7491 33.6255C88.5753 32.7409 87.2484 31.414 86.4221 32.2986L77.2753 42.1043L75.9984 43.473C75.1722 44.3576 76.4991 45.6845 77.3253 44.7999Z" fill="#FFBA31"/>
<path d="M93.9997 70.6035L94.8593 40.093L94.9761 35.8119C95.0095 34.6018 93.1317 34.6018 93.0983 35.8119L92.2387 66.3224L92.1219 70.6035C92.0885 71.8136 93.9663 71.8136 93.9997 70.6035Z" fill="#FFA19F"/>
<path d="M112.811 42.6735L103.005 33.527L101.637 32.2502C100.752 31.424 99.4249 32.7509 100.31 33.5771L110.116 42.7236L111.484 44.0004C112.369 44.8266 113.696 43.4997 112.811 42.6735Z" fill="#FFBA31"/>
<path d="M119.096 24.4875L105.742 24.9465L103.823 25.0133C102.621 25.055 102.613 26.9327 103.823 26.891L117.176 26.432L119.096 26.3652C120.297 26.3235 120.306 24.4458 119.096 24.4875Z" fill="#FFBA31"/>
<path d="M110.675 7.18821L101.528 16.994L100.251 18.3626C99.4248 19.2472 100.752 20.5741 101.578 19.6895L110.725 9.88376L112.002 8.51512C112.828 7.63051 111.501 6.30361 110.675 7.18821Z" fill="#FFBA31"/>
<path d="M162.435 144.868V185.324H26.5038V144.868C26.5038 130.397 38.23 118.644 52.7279 118.644H136.211C150.695 118.644 162.435 130.397 162.435 144.868Z" fill="#774D28"/>
<path d="M129.934 91.3953V119.805H59.0039V91.3953C59.0039 82.9338 65.8797 76.0713 74.3546 76.0713H114.584C123.045 76.0713 129.934 82.9338 129.934 91.3953Z" fill="#774D28"/>
<path d="M189.312 187.87H3.05147C1.37249 187.87 0 186.498 0 184.819C0 183.14 1.37249 181.767 3.05147 181.767H189.299C190.977 181.767 192.35 183.14 192.35 184.819C192.35 186.498 190.977 187.87 189.299 187.87H189.312Z" fill="#B3B3B3"/>
<path d="M162.435 144.868V146.414H26.5038V144.868C26.5038 130.397 38.23 118.644 52.7279 118.644H136.211C150.695 118.644 162.435 130.397 162.435 144.868Z" fill="#1AC6C1"/>
<path d="M129.934 91.3953V95.726H59.0039V91.3953C59.0039 82.9338 65.8797 76.0713 74.3546 76.0713H114.584C123.045 76.0713 129.934 82.9338 129.934 91.3953Z" fill="#1AC6C1"/>
<path d="M26.5177 144.869C26.5177 144.869 22.6267 161.685 26.5177 162.458C30.4086 163.231 29.6358 146.414 32.7539 146.414C35.872 146.414 33.5267 150.332 36.6448 151.984C39.763 153.637 42.6146 146.494 44.4401 144.869C46.2524 143.243 46.2524 150.252 48.3311 149.732C50.4098 149.213 53.2614 144.629 53.2614 144.629L26.5043 144.869H26.5177Z" fill="#1AC6C1"/>
<path d="M129.935 91.3945C129.935 91.3945 134.305 111.382 130.414 112.169C126.523 112.941 127.296 96.125 124.178 96.125C121.06 96.125 123.405 100.043 120.287 101.695C117.169 103.347 114.318 96.2049 112.492 94.5792C110.68 92.9536 110.68 99.9627 108.601 99.443C106.522 98.9233 103.671 94.3394 103.671 94.3394L129.948 91.4078L129.935 91.3945Z" fill="#1AC6C1"/>
<path d="M85.4685 143.497C84.9488 147.907 84.1759 151.665 86.761 153.557C89.3594 155.449 88.5733 150.252 90.3988 149.999C92.211 149.746 91.5181 164.804 94.463 165.07C97.4079 165.323 99.2201 144.643 99.2201 144.643L85.4552 143.523L85.4685 143.497Z" fill="#1AC6C1"/>
<path d="M73.7287 90.5566C73.209 94.9673 72.4362 98.725 75.0213 100.617C77.6197 102.509 76.8335 97.3125 78.6591 97.0594C80.4713 96.8062 79.7784 111.864 82.7233 112.13C85.6681 112.383 87.4804 91.7026 87.4804 91.7026L73.7154 90.5833L73.7287 90.5566Z" fill="#1AC6C1"/>
<path d="M129.934 143.497C131.96 145.309 133.785 146.348 132.479 149.986C131.187 153.624 131.014 156.476 132.919 157.262C134.825 158.035 137.157 154.344 136.637 150.373C136.117 146.415 141.048 148.787 140.794 150.426C140.541 152.065 136.144 169.468 140.794 168.682C145.458 167.909 146.498 160.726 143.646 155.569C140.794 150.413 143.952 147.121 145.232 148.161C146.498 149.2 151.441 148.334 150.402 144.616C149.363 140.898 129.934 143.497 129.934 143.497Z" fill="#1AC6C1"/>
<path d="M61.5094 91.1018C63.5348 92.914 65.3604 93.9534 64.0545 97.5912C62.762 101.229 62.5887 104.081 64.4942 104.867C66.3998 105.64 68.7317 101.949 68.212 97.9776C67.6923 94.02 72.6226 96.3919 72.3695 98.0309C72.1163 99.6699 67.719 117.073 72.3695 116.287C77.0333 115.514 78.0727 108.331 75.2211 103.174C72.3695 98.0176 75.5276 94.7263 76.8068 95.7656C78.0727 96.805 83.0163 95.9389 81.977 92.2211C80.9376 88.5034 61.5094 91.1018 61.5094 91.1018Z" fill="#1AC6C1"/>
<path d="M41.3083 129.277C51.089 132.422 57.4318 120.203 50.2628 116.565C43.2537 113.02 47.198 110.062 47.198 110.062C47.198 110.062 42.5342 107.81 36.1914 116.965C32.5402 122.242 35.2053 127.305 41.3083 129.264V129.277Z" fill="#EF2E2E"/>
<path d="M96.9949 130.49C106.896 133.208 112.012 121.949 105.376 117.405C99.9265 113.674 103.418 108.69 103.418 108.69C103.418 108.69 94.5164 112.195 91.345 118.431C88.4401 124.147 90.812 128.798 96.9949 130.49Z" fill="#FF8F8F"/>
<path d="M77.7261 130.837C87.5068 133.982 93.8496 121.762 86.6807 118.125C79.6716 114.58 83.6159 111.622 83.6159 111.622C83.6159 111.622 78.952 109.37 72.6092 118.524C68.9581 123.801 71.6231 128.865 77.7261 130.824V130.837Z" fill="#9ADBD9"/>
<path d="M62.0424 131.131C72.3029 131.664 74.9946 119.285 67.4391 116.553C59.5639 113.701 63.6548 108.451 63.6548 108.451C63.6548 108.451 57.7117 110.077 53.9407 120.537C51.7686 126.574 55.633 130.784 62.0424 131.117V131.131Z" fill="#FF9933"/>
<path d="M82.3229 79.5888C92.1036 82.7335 98.4464 70.5143 91.2775 66.8765C84.2684 63.332 88.2127 60.3738 88.2127 60.3738C88.2127 60.3738 83.5488 58.1218 77.206 67.2763C73.5549 72.5531 76.2199 77.6167 82.3229 79.5755V79.5888Z" fill="#EF2E2E"/>
<path d="M111.266 81.1616C121.047 84.3063 127.39 72.0871 120.221 68.4493C113.212 64.9048 117.156 61.9465 117.156 61.9465C117.156 61.9465 112.492 59.6946 106.149 68.849C102.498 74.1258 105.163 79.1894 111.266 81.1482V81.1616Z" fill="#9ADBD9"/>
<path d="M97.5274 81.5487C107.788 82.0817 110.48 69.7025 102.924 66.9709C95.0489 64.1193 99.1397 58.8691 99.1397 58.8691C99.1397 58.8691 93.1967 60.4948 89.4256 70.9552C87.2536 76.9915 91.118 81.2023 97.5274 81.5354V81.5487Z" fill="#FF9933"/>
<path d="M115.144 129.277C124.924 132.422 131.267 120.203 124.098 116.565C117.089 113.02 121.033 110.062 121.033 110.062C121.033 110.062 116.37 107.81 110.027 116.965C106.376 122.242 109.041 127.305 115.144 129.264V129.277Z" fill="#EF2E2E"/>
<path d="M67.8253 80.9207C77.726 83.639 82.8429 72.3792 76.2069 67.8353C70.7569 64.1043 74.2481 59.1206 74.2481 59.1206C74.2481 59.1206 65.3469 62.6251 62.1754 68.8614C59.2705 74.5779 61.6424 79.2284 67.8253 80.9207Z" fill="#FF8F8F"/>
<path d="M151.562 130.837C161.342 133.982 167.685 121.762 160.516 118.125C153.507 114.58 157.451 111.622 157.451 111.622C157.451 111.622 152.788 109.37 146.445 118.524C142.794 123.801 145.459 128.865 151.562 130.824V130.837Z" fill="#9ADBD9"/>
<path d="M135.878 131.131C146.138 131.664 148.83 119.285 141.275 116.553C133.399 113.701 137.49 108.451 137.49 108.451C137.49 108.451 131.547 110.077 127.776 120.537C125.604 126.574 129.469 130.784 135.878 131.117V131.131Z" fill="#FF9933"/>
</svg>
