<svg width="594" height="596" viewBox="0 0 594 596" fill="none" xmlns="http://www.w3.org/2000/svg">
<path d="M311.181 595C308.208 595 305.707 592.658 305.549 589.662C305.392 586.554 307.78 583.919 310.889 583.761C320.553 583.266 330.263 582.297 339.747 580.856C342.834 580.383 345.695 582.5 346.168 585.563C346.641 588.649 344.523 591.509 341.459 591.982C331.592 593.491 321.499 594.505 311.452 595.023C311.362 595.023 311.249 595.023 311.159 595.023L311.181 595ZM281.625 594.527C281.489 594.527 281.332 594.527 281.196 594.527C271.126 593.761 261.079 592.59 251.369 591.059C248.305 590.586 246.21 587.703 246.683 584.617C247.156 581.554 250.04 579.459 253.126 579.932C262.543 581.419 272.275 582.545 282.053 583.288C285.161 583.536 287.482 586.239 287.234 589.324C287.009 592.275 284.531 594.527 281.625 594.527V594.527ZM369.597 586.081C367.096 586.081 364.798 584.392 364.145 581.847C363.379 578.829 365.181 575.766 368.178 574.977C377.504 572.568 386.809 569.64 395.865 566.284C398.771 565.203 402.015 566.689 403.096 569.595C404.178 572.5 402.691 575.743 399.785 576.824C390.368 580.315 380.703 583.356 371.016 585.856C370.543 585.968 370.07 586.036 369.597 586.036V586.081ZM223.254 585.27C222.803 585.27 222.353 585.225 221.902 585.113C212.08 582.68 202.37 579.797 193.044 576.554C190.115 575.518 188.561 572.32 189.574 569.392C190.611 566.464 193.81 564.91 196.738 565.923C205.75 569.077 215.099 571.847 224.583 574.189C227.602 574.932 229.449 577.996 228.706 581.014C228.075 583.581 225.777 585.293 223.254 585.293V585.27ZM167.497 565.743C166.708 565.743 165.897 565.563 165.131 565.225C155.985 560.969 147.019 556.216 138.481 551.104C135.822 549.505 134.944 546.036 136.543 543.378C138.143 540.721 141.612 539.842 144.27 541.441C152.471 546.351 161.076 550.923 169.885 555.023C172.701 556.329 173.917 559.685 172.611 562.5C171.665 564.55 169.615 565.766 167.497 565.766V565.743ZM425.016 565.541C422.944 565.541 420.939 564.392 419.947 562.387C418.573 559.595 419.722 556.216 422.516 554.842C431.166 550.586 439.682 545.833 447.86 540.743C450.496 539.099 453.965 539.887 455.632 542.523C457.277 545.158 456.488 548.626 453.852 550.293C445.359 555.608 436.506 560.541 427.494 564.955C426.706 565.338 425.85 565.541 425.016 565.541V565.541ZM116.854 535.338C115.66 535.338 114.466 534.955 113.452 534.189C105.432 528.131 97.6821 521.554 90.4055 514.685C88.1527 512.545 88.04 508.987 90.1802 506.734C92.3204 504.482 95.8799 504.369 98.1327 506.509C105.116 513.108 112.551 519.414 120.233 525.225C122.711 527.095 123.207 530.631 121.314 533.108C120.21 534.572 118.521 535.338 116.809 535.338H116.854ZM475.119 534.212C473.429 534.212 471.785 533.468 470.658 532.027C468.743 529.572 469.194 526.036 471.65 524.122C479.264 518.221 486.676 511.847 493.66 505.203C495.912 503.063 499.472 503.153 501.635 505.405C503.775 507.658 503.685 511.216 501.432 513.378C494.178 520.293 486.473 526.892 478.566 533.041C477.529 533.829 476.313 534.212 475.119 534.212ZM73.9374 494.752C72.3379 494.752 70.7609 494.077 69.6345 492.77C63.1464 485.135 57.0188 477.05 51.3642 468.739C49.6295 466.171 50.2829 462.658 52.8736 460.923C55.4418 459.189 58.9562 459.842 60.6909 462.432C66.0976 470.428 72 478.176 78.2178 485.496C80.2228 487.86 79.9299 491.419 77.5645 493.423C76.5056 494.324 75.2215 494.752 73.9149 494.752H73.9374ZM517.945 493.491C516.638 493.491 515.332 493.041 514.273 492.14C511.907 490.113 511.637 486.554 513.665 484.189C519.95 476.869 525.92 469.167 531.439 461.261C533.219 458.716 536.733 458.086 539.279 459.865C541.825 461.644 542.456 465.158 540.676 467.703C534.954 475.923 528.736 483.941 522.203 491.532C521.099 492.838 519.522 493.491 517.922 493.491H517.945ZM40.7309 445.901C38.7259 445.901 36.766 444.82 35.7522 442.928C31.0438 434.122 26.7409 424.932 22.9337 415.631C21.7622 412.748 23.1364 409.459 26.02 408.288C28.9036 407.117 32.1927 408.491 33.3642 411.374C37.0138 420.338 41.1815 429.167 45.7096 437.635C47.174 440.383 46.1377 443.784 43.3892 445.248C42.5332 445.698 41.632 445.923 40.7309 445.923V445.901ZM551.737 445.045C550.814 445.045 549.867 444.82 549.011 444.347C546.285 442.838 545.317 439.414 546.826 436.689C551.512 428.243 555.815 419.482 559.622 410.653C560.839 407.793 564.173 406.464 567.011 407.703C569.872 408.919 571.201 412.23 569.962 415.09C566.02 424.279 561.537 433.378 556.671 442.162C555.635 444.009 553.72 445.068 551.737 445.068V445.045ZM18.3154 391.216C15.8824 391.216 13.6521 389.64 12.9086 387.185C10.0701 377.613 7.65957 367.77 5.74468 357.905C5.15895 354.842 7.14143 351.892 10.2053 351.306C13.2466 350.721 16.2203 352.703 16.806 355.766C18.6533 365.27 20.9737 374.752 23.6996 383.964C24.5782 386.937 22.8886 390.09 19.9149 390.968C19.3742 391.126 18.8335 391.194 18.3154 391.194V391.216ZM575.054 390.743C574.491 390.743 573.927 390.653 573.364 390.473C570.39 389.55 568.746 386.374 569.67 383.423C572.553 374.234 574.986 364.775 576.924 355.338C577.554 352.297 580.506 350.315 583.569 350.946C586.611 351.577 588.593 354.55 587.962 357.59C585.957 367.41 583.412 377.23 580.438 386.779C579.695 389.189 577.464 390.721 575.076 390.721L575.054 390.743ZM7.05131 333.198C4.19024 333.198 1.73467 331.014 1.4418 328.108C0.49562 318.131 0 308.018 0 298.018C0 294.91 2.52315 292.387 5.63204 292.387C8.74093 292.387 11.2641 294.91 11.2641 298.018C11.2641 307.68 11.7372 317.432 12.6608 327.027C12.9537 330.135 10.6783 332.883 7.59199 333.176C7.41176 333.176 7.23154 333.198 7.05131 333.198V333.198ZM586.881 332.86C586.701 332.86 586.498 332.86 586.318 332.838C583.232 332.523 580.956 329.775 581.272 326.667C582.24 317.095 582.713 307.365 582.713 297.703V297.005C582.713 293.896 585.237 291.374 588.345 291.374C591.454 291.374 593.977 293.896 593.977 297.005V297.703C593.977 307.748 593.482 317.86 592.468 327.793C592.175 330.698 589.72 332.86 586.881 332.86V332.86ZM7.00626 274.077C6.82603 274.077 6.64581 274.077 6.46558 274.054C3.3567 273.761 1.10388 271.014 1.37422 267.928C2.3204 257.928 3.73967 247.905 5.60951 238.108C6.19524 235.045 9.14643 233.063 12.2103 233.649C15.2741 234.234 17.2566 237.185 16.6708 240.248C14.8686 249.685 13.4944 259.369 12.5707 269.009C12.3004 271.914 9.84481 274.122 6.9612 274.122L7.00626 274.077ZM586.814 273.086C583.952 273.086 581.519 270.923 581.227 268.041C580.235 258.423 578.748 248.784 576.811 239.369C576.18 236.329 578.14 233.333 581.181 232.703C584.223 232.072 587.219 234.032 587.85 237.072C589.877 246.847 591.409 256.869 592.446 266.869C592.761 269.955 590.508 272.725 587.422 273.041C587.219 273.041 587.039 273.063 586.836 273.063L586.814 273.086ZM18.1352 216.036C17.617 216.036 17.0763 215.968 16.5357 215.811C13.562 214.932 11.8498 211.802 12.7284 208.829C15.567 199.167 18.9237 189.595 22.6633 180.383C23.8348 177.5 27.1239 176.126 30.0075 177.297C32.8911 178.468 34.2653 181.757 33.1164 184.64C29.5119 193.514 26.2904 202.748 23.5419 212.027C22.821 214.482 20.5682 216.059 18.1352 216.059V216.036ZM574.851 215.248C572.463 215.248 570.233 213.716 569.489 211.306C566.583 202.117 563.181 192.973 559.352 184.122C558.113 181.261 559.442 177.95 562.28 176.712C565.141 175.473 568.453 176.802 569.692 179.64C573.657 188.829 577.217 198.333 580.235 207.883C581.181 210.856 579.537 214.009 576.563 214.955C576 215.135 575.437 215.225 574.874 215.225L574.851 215.248ZM40.393 161.306C39.4919 161.306 38.5907 161.104 37.7572 160.653C35.0088 159.189 33.9725 155.788 35.4143 153.041C40.1452 144.144 45.3717 135.45 50.9587 127.185C52.6934 124.595 56.2078 123.919 58.776 125.676C61.3442 127.432 62.0426 130.923 60.2854 133.491C54.9237 141.419 49.8999 149.775 45.3717 158.333C44.3579 160.248 42.398 161.329 40.393 161.329V161.306ZM551.399 161.014C549.417 161.014 547.502 159.977 546.488 158.131C541.78 149.73 536.598 141.464 531.056 133.559C529.277 131.014 529.885 127.5 532.431 125.721C534.976 123.941 538.491 124.55 540.27 127.095C546.015 135.315 551.422 143.896 556.288 152.635C557.797 155.36 556.829 158.784 554.125 160.293C553.247 160.788 552.323 161.014 551.377 161.014H551.399ZM517.494 112.613C515.917 112.613 514.34 111.959 513.237 110.653C506.929 103.356 500.193 96.2838 493.186 89.6622C490.934 87.5225 490.821 83.964 492.961 81.7117C495.101 79.4595 498.661 79.3694 500.914 81.4865C508.19 88.3784 515.196 95.6982 521.73 103.288C523.757 105.631 523.509 109.189 521.144 111.239C520.085 112.162 518.778 112.613 517.472 112.613H517.494ZM73.4643 112.365C72.1802 112.365 70.8961 111.937 69.8373 111.036C67.4718 109.032 67.1564 105.473 69.1615 103.108C75.6496 95.4505 82.6108 88.0405 89.8874 81.1486C92.1402 79.009 95.6996 79.0991 97.8398 81.3514C99.98 83.6036 99.8899 87.1622 97.637 89.3018C90.6758 95.9234 83.985 103.018 77.7672 110.36C76.6408 111.689 75.0638 112.365 73.4643 112.365ZM474.578 71.982C473.384 71.982 472.168 71.5991 471.131 70.8108C463.494 64.9099 455.474 59.3468 447.297 54.2568C444.661 52.6126 443.85 49.1441 445.494 46.509C447.139 43.8739 450.608 43.0631 453.244 44.7072C461.737 50 470.073 55.7883 478.025 61.9144C480.481 63.8063 480.931 67.3423 479.039 69.8198C477.935 71.2613 476.268 72.0045 474.578 72.0045V71.982ZM116.29 71.6667C114.601 71.6667 112.911 70.9009 111.807 69.4369C109.915 66.9595 110.411 63.4234 112.889 61.5541C120.841 55.4955 129.244 49.7973 137.85 44.6171C140.508 43.018 143.977 43.8739 145.577 46.5315C147.176 49.1892 146.32 52.6577 143.662 54.2568C135.394 59.2568 127.329 64.7297 119.692 70.518C118.678 71.2838 117.484 71.6667 116.29 71.6667V71.6667ZM166.866 41.1487C164.748 41.1487 162.721 39.955 161.752 37.9054C160.423 35.0901 161.64 31.7342 164.456 30.4279C173.444 26.2162 182.839 22.3874 192.345 19.0315C195.274 17.9955 198.496 19.5495 199.532 22.4775C200.568 25.4054 199.014 28.6261 196.085 29.6622C186.916 32.8829 177.882 36.5766 169.232 40.6306C168.466 40.991 167.655 41.1712 166.844 41.1712L166.866 41.1487ZM424.385 40.7658C423.552 40.7658 422.718 40.5856 421.907 40.2027C413.257 35.9685 404.268 32.1396 395.234 28.8063C392.328 27.7252 390.819 24.5045 391.9 21.5766C392.981 18.6486 396.203 17.1622 399.131 18.2432C408.526 21.7117 417.852 25.6982 426.864 30.0901C429.657 31.464 430.806 34.8198 429.454 37.6126C428.486 39.6171 426.481 40.7658 424.385 40.7658V40.7658ZM222.556 21.509C220.033 21.509 217.735 19.7973 217.104 17.2297C216.36 14.2117 218.185 11.1486 221.204 10.4054C230.756 8.01802 240.668 6.01351 250.671 4.41441C253.735 3.91892 256.618 6.01351 257.114 9.0991C257.609 12.1847 255.514 15.0676 252.428 15.5405C242.763 17.0721 233.166 19.0315 223.93 21.3288C223.479 21.4414 223.006 21.4865 222.556 21.4865V21.509ZM368.921 20.3829C368.448 20.3829 367.997 20.3153 367.524 20.2027C358.198 17.8153 348.623 15.8784 339.094 14.4369C336.008 13.9865 333.89 11.1036 334.363 8.04054C334.836 4.97748 337.675 2.83784 340.761 3.31081C350.673 4.7973 360.631 6.8018 370.318 9.3018C373.337 10.0676 375.139 13.1532 374.373 16.1486C373.72 18.6937 371.422 20.3829 368.921 20.3829V20.3829ZM280.904 12.1622C277.997 12.1622 275.519 9.93243 275.294 6.98198C275.046 3.87387 277.367 1.17117 280.476 0.923423C285.589 0.518018 290.793 0.202703 295.997 0C300.954 0 305.932 0.112613 310.753 0.337838C313.862 0.495496 316.25 3.13063 316.115 6.23874C315.957 9.34685 313.277 11.7342 310.213 11.5991C305.572 11.3739 300.864 11.2613 296.223 11.2613C291.402 11.464 286.31 11.7568 281.354 12.1396C281.196 12.1396 281.061 12.1396 280.904 12.1396V12.1622Z" fill="#CFE869"/>
</svg>
