<svg width="88" height="20" viewBox="0 0 88 20" fill="none" xmlns="http://www.w3.org/2000/svg">
<path d="M85.7801 19.07C84.1801 20.12 81.8701 19.08 80.6201 16.76L77.6101 11.15C76.3601 8.83 76.6501 6.09 78.2501 5.05C79.8501 4 82.1601 5.04 83.4101 7.36L86.4201 12.97C87.6701 15.29 87.3801 18.03 85.7801 19.07Z" fill="#C4C4C4"/>
<path d="M73.4202 19.07C71.8202 18.02 71.5402 15.28 72.7902 12.95L75.8102 7.32C77.0602 4.99 79.3702 3.95 80.9702 4.99C82.5702 6.04 82.8502 8.78 81.6002 11.11L78.5802 16.74C77.3302 19.07 75.0202 20.11 73.4202 19.07Z" fill="#C4C4C4"/>
<path d="M74.7402 19.83C76.5793 19.83 78.0702 18.3391 78.0702 16.5C78.0702 14.6609 76.5793 13.17 74.7402 13.17C72.901 13.17 71.4102 14.6609 71.4102 16.5C71.4102 18.3391 72.901 19.83 74.7402 19.83Z" fill="#C4C4C4"/>
<path d="M84.3901 19.83C86.2292 19.83 87.7201 18.3391 87.7201 16.5C87.7201 14.6609 86.2292 13.17 84.3901 13.17C82.551 13.17 81.0601 14.6609 81.0601 16.5C81.0601 18.3391 82.551 19.83 84.3901 19.83Z" fill="#C4C4C4"/>
<path d="M71.4201 16.77C71.4201 16.77 71.3001 15.94 71.7801 14.96C72.2601 13.98 72.7101 13.1 72.7101 13.1L75.1401 13.98L73.1901 17L71.4101 16.77H71.4201Z" fill="#C4C4C4"/>
<path d="M76.43 19.38C76.43 19.38 77.08 19 77.52 18.35C77.96 17.7 78.28 17.26 78.28 17.26L77.44 16.23L76.27 18.74L76.44 19.37L76.43 19.38Z" fill="#C4C4C4"/>
<path d="M82.4301 19.2C82.4301 19.2 81.9801 18.89 81.6601 18.42C81.3401 17.95 80.8101 17.09 80.8101 17.09L82.0701 16.44L83.0501 18.77L82.4201 19.19L82.4301 19.2Z" fill="#C4C4C4"/>
<path d="M87.62 17.32C87.62 17.32 87.88 16.44 87.57 15.49C87.26 14.54 86.55 13.23 86.55 13.23L85.96 13.06L86.19 16.27L87.62 17.32Z" fill="#C4C4C4"/>
<path d="M38.47 19.07C36.87 20.12 34.56 19.08 33.31 16.76L30.3 11.15C29.05 8.83 29.34 6.09 30.94 5.05C32.54 4 34.85 5.04 36.1 7.36L39.11 12.97C40.36 15.29 40.07 18.03 38.47 19.07Z" fill="#F7D134"/>
<path d="M26.1201 19.07C24.5201 18.02 24.2401 15.28 25.4901 12.95L28.5101 7.32C29.7601 4.99 32.0701 3.95 33.6701 4.99C35.2701 6.04 35.5501 8.78 34.3001 11.11L31.2801 16.74C30.0301 19.07 27.7201 20.11 26.1201 19.07Z" fill="#F7D134"/>
<path d="M27.4401 19.83C29.2792 19.83 30.7701 18.3391 30.7701 16.5C30.7701 14.6609 29.2792 13.17 27.4401 13.17C25.601 13.17 24.1101 14.6609 24.1101 16.5C24.1101 18.3391 25.601 19.83 27.4401 19.83Z" fill="#F7D134"/>
<path d="M37.09 19.83C38.9291 19.83 40.42 18.3391 40.42 16.5C40.42 14.6609 38.9291 13.17 37.09 13.17C35.2509 13.17 33.76 14.6609 33.76 16.5C33.76 18.3391 35.2509 19.83 37.09 19.83Z" fill="#F7D134"/>
<path d="M24.11 16.77C24.11 16.77 23.99 15.94 24.47 14.96C24.95 13.98 25.4 13.1 25.4 13.1L27.83 13.98L25.88 17L24.1 16.77H24.11Z" fill="#F7D134"/>
<path d="M29.13 19.38C29.13 19.38 29.78 19 30.22 18.35C30.66 17.7 30.98 17.26 30.98 17.26L30.14 16.23L28.97 18.74L29.14 19.37L29.13 19.38Z" fill="#F7D134"/>
<path d="M35.13 19.2C35.13 19.2 34.68 18.89 34.36 18.42C34.04 17.95 33.51 17.09 33.51 17.09L34.77 16.44L35.75 18.77L35.12 19.19L35.13 19.2Z" fill="#F7D134"/>
<path d="M40.3199 17.32C40.3199 17.32 40.5799 16.44 40.2699 15.49C39.9599 14.54 39.2499 13.23 39.2499 13.23L38.6599 13.06L38.8899 16.27L40.3199 17.32Z" fill="#F7D134"/>
<path d="M12.7801 2.98C12.7801 1.33419 11.4481 0 9.80508 0C8.16203 0 6.83008 1.33419 6.83008 2.98V6.94C6.83008 8.58581 8.16203 9.92 9.80508 9.92C11.4481 9.92 12.7801 8.58581 12.7801 6.94V2.98Z" fill="#C4C4C4"/>
<path d="M9.50988 11.1C8.94988 12.65 7.23988 13.44 5.68988 12.88L1.95988 11.52C0.409881 10.95 -0.38012 9.25 0.179881 7.7C0.739881 6.15 2.44988 5.36 3.99988 5.92L7.72988 7.28C9.27988 7.84 10.0699 9.55 9.50988 11.1Z" fill="#C4C4C4"/>
<path d="M10.1 11.1C9.54005 9.55 10.33 7.85 11.88 7.28L15.61 5.92C17.16 5.36 18.86 6.15 19.43 7.7C19.99 9.25 19.2 10.95 17.65 11.52L13.92 12.88C12.37 13.44 10.67 12.65 10.1 11.1Z" fill="#C4C4C4"/>
<path d="M15.26 19.44C13.84 20.26 12.02 19.77 11.19 18.35L9.20999 14.91C8.38999 13.49 8.87999 11.67 10.3 10.84C11.72 10.02 13.54 10.51 14.37 11.93L16.35 15.37C17.17 16.79 16.68 18.61 15.26 19.44Z" fill="#C4C4C4"/>
<path d="M4.35003 19.44C2.93003 18.62 2.44003 16.8 3.26003 15.37L5.24003 11.93C6.06003 10.51 7.88003 10.02 9.31003 10.84C10.73 11.66 11.22 13.48 10.4 14.91L8.42003 18.35C7.60003 19.77 5.78003 20.26 4.35003 19.44Z" fill="#C4C4C4"/>
<path d="M9.91001 13.06C10.9594 13.06 11.81 12.1243 11.81 10.97C11.81 9.81572 10.9594 8.88 9.91001 8.88C8.86067 8.88 8.01001 9.81572 8.01001 10.97C8.01001 12.1243 8.86067 13.06 9.91001 13.06Z" fill="#C4C4C4"/>
<path d="M59.6199 2.98C59.6199 1.33419 58.288 0 56.6449 0C55.0019 0 53.6699 1.33419 53.6699 2.98V6.94C53.6699 8.58581 55.0019 9.92 56.6449 9.92C58.288 9.92 59.6199 8.58581 59.6199 6.94V2.98Z" fill="#C4C4C4"/>
<path d="M56.35 10.98C55.79 12.53 54.08 13.32 52.53 12.76L48.8 11.4C47.25 10.84 46.46 9.13 47.02 7.58C47.58 6.03 49.29 5.24 50.84 5.8L54.57 7.16C56.12 7.72 56.91 9.43 56.35 10.98Z" fill="#C4C4C4"/>
<path d="M56.9499 10.98C56.3899 9.43 57.1799 7.73 58.7299 7.16L62.4599 5.8C64.0099 5.24 65.7099 6.03 66.2799 7.58C66.8399 9.13 66.0499 10.83 64.4999 11.4L60.7699 12.76C59.2199 13.32 57.5199 12.53 56.9499 10.98Z" fill="#C4C4C4"/>
<path d="M56.6499 19.84C59.8145 19.84 62.3799 17.2746 62.3799 14.11C62.3799 10.9454 59.8145 8.38 56.6499 8.38C53.4853 8.38 50.9199 10.9454 50.9199 14.11C50.9199 17.2746 53.4853 19.84 56.6499 19.84Z" fill="#C4C4C4"/>
<path d="M56.6499 15.05C57.1912 15.05 57.6299 14.6112 57.6299 14.07C57.6299 13.5288 57.1912 13.09 56.6499 13.09C56.1087 13.09 55.6699 13.5288 55.6699 14.07C55.6699 14.6112 56.1087 15.05 56.6499 15.05Z" fill="white"/>
</svg>
