<svg width="302" height="303" viewBox="0 0 302 303" fill="none" xmlns="http://www.w3.org/2000/svg">
<path d="M158.216 302.989C156.704 302.989 155.433 301.796 155.353 300.27C155.272 298.688 156.487 297.346 158.067 297.265C162.981 297.013 167.918 296.52 172.74 295.786C174.309 295.545 175.764 296.623 176.004 298.183C176.245 299.754 175.168 301.211 173.61 301.452C168.594 302.22 163.462 302.736 158.354 303C158.308 303 158.25 303 158.205 303L158.216 302.989ZM143.188 302.748C143.12 302.748 143.039 302.748 142.971 302.748C137.851 302.358 132.742 301.761 127.805 300.981C126.248 300.741 125.182 299.273 125.423 297.701C125.663 296.142 127.13 295.075 128.699 295.316C133.487 296.073 138.435 296.646 143.406 297.025C144.987 297.151 146.166 298.527 146.04 300.098C145.926 301.601 144.666 302.748 143.188 302.748V302.748ZM187.917 298.447C186.645 298.447 185.477 297.587 185.145 296.291C184.755 294.754 185.672 293.194 187.195 292.793C191.937 291.565 196.668 290.074 201.272 288.366C202.75 287.815 204.399 288.572 204.949 290.051C205.499 291.531 204.743 293.183 203.265 293.733C198.477 295.511 193.564 297.059 188.638 298.332C188.398 298.389 188.157 298.424 187.917 298.424V298.447ZM113.511 298.034C113.282 298.034 113.052 298.011 112.823 297.954C107.829 296.715 102.893 295.247 98.1506 293.595C96.6615 293.068 95.8712 291.439 96.3866 289.948C96.9135 288.457 98.54 287.666 100.029 288.182C104.611 289.788 109.364 291.198 114.186 292.391C115.721 292.77 116.66 294.329 116.282 295.866C115.962 297.174 114.793 298.045 113.511 298.045V298.034ZM85.1616 288.09C84.7607 288.09 84.3483 287.999 83.9589 287.826C79.3085 285.659 74.7498 283.239 70.4086 280.635C69.057 279.821 68.6103 278.055 69.4236 276.702C70.2368 275.348 72.0008 274.901 73.3524 275.715C77.5217 278.215 81.8971 280.544 86.3757 282.631C87.8075 283.296 88.426 285.005 87.7617 286.439C87.2806 287.482 86.2383 288.102 85.1616 288.102V288.09ZM216.094 287.987C215.04 287.987 214.021 287.402 213.517 286.381C212.818 284.959 213.402 283.239 214.823 282.539C219.221 280.372 223.551 277.952 227.708 275.36C229.049 274.522 230.812 274.924 231.66 276.266C232.496 277.608 232.095 279.374 230.755 280.223C226.437 282.929 221.936 285.441 217.354 287.689C216.953 287.884 216.518 287.987 216.094 287.987V287.987ZM59.4127 272.607C58.8056 272.607 58.1985 272.412 57.6831 272.022C53.6054 268.937 49.6652 265.588 45.9655 262.09C44.8201 261 44.7628 259.188 45.8509 258.041C46.9391 256.895 48.7488 256.837 49.8943 257.927C53.445 261.287 57.2249 264.499 61.1308 267.458C62.3907 268.409 62.6427 270.21 61.6806 271.472C61.1193 272.217 60.2603 272.607 59.3897 272.607H59.4127ZM241.568 272.034C240.709 272.034 239.873 271.655 239.3 270.921C238.326 269.671 238.555 267.87 239.804 266.896C243.676 263.891 247.444 260.645 250.995 257.262C252.14 256.172 253.95 256.218 255.049 257.365C256.138 258.512 256.092 260.324 254.946 261.425C251.258 264.946 247.341 268.306 243.32 271.437C242.794 271.839 242.175 272.034 241.568 272.034ZM37.5925 251.94C36.7793 251.94 35.9775 251.596 35.4048 250.931C32.106 247.043 28.9904 242.925 26.1155 238.693C25.2335 237.386 25.5657 235.597 26.8829 234.713C28.1887 233.83 29.9755 234.163 30.8575 235.482C33.6065 239.553 36.6075 243.499 39.7688 247.226C40.7882 248.43 40.6393 250.243 39.4366 251.263C38.8983 251.722 38.2454 251.94 37.5811 251.94H37.5925ZM263.342 251.298C262.678 251.298 262.014 251.068 261.475 250.61C260.273 249.577 260.135 247.765 261.166 246.561C264.362 242.834 267.397 238.911 270.203 234.886C271.108 233.59 272.895 233.268 274.189 234.174C275.484 235.08 275.804 236.87 274.9 238.166C271.99 242.352 268.829 246.435 265.507 250.3C264.946 250.965 264.144 251.298 263.331 251.298H263.342ZM20.7091 227.064C19.6897 227.064 18.6932 226.513 18.1777 225.55C15.7838 221.065 13.5961 216.386 11.6603 211.649C11.0647 210.181 11.7634 208.507 13.2295 207.91C14.6957 207.314 16.368 208.014 16.9636 209.482C18.8192 214.046 20.9382 218.542 23.2405 222.854C23.985 224.254 23.4581 225.986 22.0607 226.731C21.6254 226.96 21.1673 227.075 20.7091 227.075V227.064ZM280.523 226.628C280.054 226.628 279.573 226.513 279.138 226.272C277.752 225.504 277.259 223.761 278.026 222.373C280.409 218.072 282.597 213.61 284.532 209.115C285.151 207.658 286.846 206.981 288.289 207.612C289.744 208.232 290.42 209.917 289.79 211.374C287.785 216.053 285.506 220.687 283.032 225.16C282.505 226.1 281.531 226.639 280.523 226.639V226.628ZM9.31222 199.217C8.07517 199.217 6.94121 198.414 6.56323 197.164C5.12 192.29 3.89441 187.278 2.92081 182.254C2.623 180.694 3.63096 179.192 5.18873 178.894C6.73504 178.596 8.24699 179.605 8.54479 181.165C9.48403 186.005 10.6638 190.833 12.0498 195.524C12.4965 197.038 11.6374 198.643 10.1255 199.091C9.85057 199.171 9.57567 199.205 9.31222 199.205V199.217ZM292.379 198.976C292.092 198.976 291.806 198.93 291.519 198.838C290.008 198.368 289.171 196.751 289.641 195.249C291.107 190.569 292.344 185.752 293.329 180.947C293.65 179.398 295.15 178.389 296.708 178.71C298.255 179.031 299.262 180.545 298.942 182.094C297.922 187.094 296.628 192.095 295.116 196.957C294.738 198.185 293.604 198.965 292.39 198.965L292.379 198.976ZM3.58515 169.673C2.13047 169.673 0.881969 168.56 0.733065 167.081C0.251991 162 0 156.85 0 151.758C0 150.175 1.28286 148.891 2.86354 148.891C4.44421 148.891 5.72707 150.175 5.72707 151.758C5.72707 156.678 5.96761 161.644 6.43723 166.53C6.58613 168.113 5.42927 169.512 3.86005 169.661C3.76841 169.661 3.67678 169.673 3.58515 169.673V169.673ZM298.392 169.501C298.3 169.501 298.197 169.501 298.106 169.489C296.536 169.329 295.38 167.929 295.54 166.347C296.032 161.472 296.273 156.518 296.273 151.597V151.242C296.273 149.659 297.556 148.375 299.136 148.375C300.717 148.375 302 149.659 302 151.242V151.597C302 156.713 301.748 161.862 301.233 166.92C301.084 168.4 299.835 169.501 298.392 169.501V169.501ZM3.56224 139.566C3.47061 139.566 3.37897 139.566 3.28734 139.555C1.70667 139.406 0.561253 138.007 0.698703 136.435C1.17978 131.343 1.90139 126.239 2.85208 121.25C3.14989 119.691 4.65038 118.681 6.20815 118.98C7.76591 119.278 8.77388 120.78 8.47607 122.34C7.55974 127.146 6.86103 132.077 6.39141 136.986C6.25396 138.465 5.00546 139.589 3.53933 139.589L3.56224 139.566ZM298.358 139.062C296.903 139.062 295.666 137.961 295.517 136.493C295.013 131.596 294.257 126.687 293.272 121.893C292.951 120.344 293.948 118.819 295.494 118.498C297.04 118.177 298.564 119.175 298.884 120.723C299.915 125.7 300.694 130.804 301.221 135.896C301.381 137.468 300.236 138.878 298.667 139.039C298.564 139.039 298.472 139.05 298.369 139.05L298.358 139.062ZM9.22059 110.011C8.95714 110.011 8.68224 109.976 8.40734 109.896C6.8954 109.449 6.02488 107.855 6.47159 106.341C7.91481 101.421 9.62148 96.5462 11.5229 91.8554C12.1185 90.3873 13.7908 89.6877 15.2569 90.2841C16.7231 90.8805 17.4218 92.555 16.8376 94.023C15.0049 98.5418 13.367 103.244 11.9696 107.969C11.603 109.219 10.4576 110.022 9.22059 110.022V110.011ZM292.275 109.609C291.061 109.609 289.927 108.83 289.549 107.602C288.072 102.923 286.342 98.2666 284.395 93.7592C283.765 92.3027 284.441 90.6167 285.884 89.9859C287.339 89.3551 289.022 90.0318 289.652 91.4769C291.668 96.1563 293.478 100.996 295.013 105.859C295.494 107.373 294.658 108.979 293.146 109.46C292.86 109.552 292.573 109.598 292.287 109.598L292.275 109.609ZM20.5373 82.1411C20.0791 82.1411 19.621 82.0379 19.1971 81.8085C17.7997 81.063 17.2729 79.3312 18.0059 77.932C20.4113 73.4017 23.0687 68.9747 25.9093 64.7655C26.7912 63.4466 28.5781 63.1025 29.8839 63.9971C31.1896 64.8917 31.5447 66.6694 30.6513 67.9769C27.9252 72.014 25.3709 76.269 23.0686 80.6272C22.5532 81.6021 21.5567 82.1526 20.5373 82.1526V82.1411ZM280.352 81.992C279.344 81.992 278.37 81.4644 277.855 80.524C275.461 76.246 272.826 72.0369 270.009 68.0113C269.104 66.7153 269.413 64.9261 270.707 64.0201C272.002 63.114 273.788 63.4237 274.693 64.7197C277.614 68.9059 280.363 73.2756 282.837 77.7255C283.605 79.1133 283.112 80.8566 281.738 81.625C281.291 81.8773 280.821 81.992 280.34 81.992H280.352ZM263.113 57.3451C262.311 57.3451 261.51 57.0125 260.948 56.3473C257.741 52.6313 254.316 49.0301 250.754 45.6582C249.609 44.5686 249.551 42.7565 250.64 41.6096C251.728 40.4627 253.538 40.4168 254.683 41.4949C258.383 45.0044 261.945 48.7319 265.267 52.5969C266.297 53.7897 266.171 55.6018 264.969 56.6455C264.43 57.1157 263.766 57.3451 263.102 57.3451H263.113ZM37.352 57.2189C36.6991 57.2189 36.0462 57.001 35.5079 56.5423C34.3052 55.5215 34.1448 53.7094 35.1642 52.5052C38.463 48.6057 42.0024 44.8324 45.702 41.3229C46.8475 40.2333 48.6572 40.2792 49.7454 41.4261C50.8335 42.573 50.7877 44.3851 49.6423 45.4747C46.1029 48.8466 42.7011 52.4593 39.5397 56.1982C38.967 56.8749 38.1652 57.2189 37.352 57.2189ZM241.293 36.655C240.686 36.655 240.067 36.46 239.541 36.0586C235.658 33.0537 231.58 30.2209 227.422 27.6289C226.082 26.7916 225.67 25.0254 226.506 23.6835C227.342 22.3416 229.106 21.9288 230.446 22.766C234.764 25.4612 239.002 28.4088 243.046 31.5283C244.294 32.4917 244.523 34.2924 243.561 35.554C243 36.288 242.152 36.6665 241.293 36.6665V36.655ZM59.1263 36.4944C58.2672 36.4944 57.4082 36.1045 56.8469 35.359C55.8848 34.0974 56.1368 32.2968 57.3967 31.3448C61.44 28.2597 65.7124 25.358 70.0879 22.7201C71.4395 21.9058 73.2034 22.3416 74.0167 23.695C74.8299 25.0483 74.3947 26.8146 73.0431 27.6289C68.8394 30.175 64.7388 32.962 60.8559 35.9095C60.3404 36.2994 59.7334 36.4944 59.1263 36.4944V36.4944ZM84.8409 20.9539C83.7642 20.9539 82.7333 20.346 82.2408 19.3024C81.565 17.8687 82.1835 16.1598 83.6153 15.4946C88.1855 13.3499 92.9618 11.4002 97.7955 9.69132C99.2845 9.16375 100.922 9.95511 101.449 11.4461C101.976 12.9371 101.186 14.5771 99.6969 15.1047C95.035 16.7448 90.4419 18.6257 86.0435 20.6901C85.6541 20.8736 85.2418 20.9654 84.8294 20.9654L84.8409 20.9539ZM215.773 20.7589C215.349 20.7589 214.926 20.6672 214.513 20.4722C210.115 18.316 205.545 16.3663 200.952 14.6689C199.474 14.1184 198.707 12.4783 199.256 10.9873C199.806 9.49635 201.444 8.73939 202.933 9.28991C207.709 11.0561 212.451 13.0861 217.033 15.3226C218.453 16.0222 219.038 17.7311 218.35 19.1533C217.858 20.174 216.838 20.7589 215.773 20.7589V20.7589ZM113.156 10.9529C111.873 10.9529 110.704 10.0813 110.384 8.7738C110.006 7.23695 110.933 5.67716 112.468 5.29869C117.325 4.08297 122.365 3.06223 127.45 2.24793C129.008 1.99561 130.474 3.06223 130.726 4.63348C130.978 6.20474 129.913 7.67277 128.344 7.91362C123.43 8.69352 118.55 9.69132 113.854 10.8612C113.625 10.9185 113.385 10.9414 113.156 10.9414V10.9529ZM187.573 10.3795C187.333 10.3795 187.103 10.3451 186.863 10.2877C182.121 9.07199 177.253 8.08566 172.408 7.35164C170.839 7.12226 169.762 5.65423 170.002 4.09444C170.243 2.53465 171.686 1.4451 173.255 1.68595C178.295 2.4429 183.358 3.46364 188.283 4.7367C189.818 5.12665 190.734 6.69791 190.345 8.22329C190.013 9.51929 188.844 10.3795 187.573 10.3795V10.3795ZM142.822 6.19327C141.344 6.19327 140.084 5.05784 139.97 3.5554C139.844 1.97267 141.023 0.596389 142.604 0.47023C145.204 0.263787 147.85 0.103221 150.496 0C153.016 0 155.547 0.0573451 157.998 0.172035C159.579 0.252318 160.793 1.59419 160.725 3.17692C160.644 4.75964 159.281 5.97536 157.724 5.90654C155.364 5.79185 152.97 5.73451 150.611 5.73451C148.159 5.83773 145.571 5.98683 143.051 6.1818C142.971 6.1818 142.902 6.1818 142.822 6.1818V6.19327Z" fill="#CFE869"/>
</svg>
