<svg width="88" height="20" viewBox="0 0 88 20" fill="none" xmlns="http://www.w3.org/2000/svg">
<path d="M85.7801 19.07C84.1801 20.12 81.8701 19.08 80.6201 16.76L77.6101 11.15C76.3601 8.83 76.6501 6.09 78.2501 5.05C79.8501 4 82.1601 5.04 83.4101 7.36L86.4201 12.97C87.6701 15.29 87.3801 18.03 85.7801 19.07Z" fill="#C4C4C4"/>
<path d="M73.4202 19.07C71.8202 18.02 71.5402 15.28 72.7902 12.95L75.8102 7.32C77.0602 4.99 79.3702 3.95 80.9702 4.99C82.5702 6.04 82.8502 8.78 81.6002 11.11L78.5802 16.74C77.3302 19.07 75.0202 20.11 73.4202 19.07Z" fill="#C4C4C4"/>
<path d="M74.7402 19.83C76.5793 19.83 78.0702 18.3391 78.0702 16.5C78.0702 14.6609 76.5793 13.17 74.7402 13.17C72.901 13.17 71.4102 14.6609 71.4102 16.5C71.4102 18.3391 72.901 19.83 74.7402 19.83Z" fill="#C4C4C4"/>
<path d="M84.3901 19.83C86.2292 19.83 87.7201 18.3391 87.7201 16.5C87.7201 14.6609 86.2292 13.17 84.3901 13.17C82.551 13.17 81.0601 14.6609 81.0601 16.5C81.0601 18.3391 82.551 19.83 84.3901 19.83Z" fill="#C4C4C4"/>
<path d="M71.4201 16.77C71.4201 16.77 71.3001 15.94 71.7801 14.96C72.2601 13.98 72.7101 13.1 72.7101 13.1L75.1401 13.98L73.1901 17L71.4101 16.77H71.4201Z" fill="#C4C4C4"/>
<path d="M76.43 19.38C76.43 19.38 77.08 19 77.52 18.35C77.96 17.7 78.28 17.26 78.28 17.26L77.44 16.23L76.27 18.74L76.44 19.37L76.43 19.38Z" fill="#C4C4C4"/>
<path d="M82.4301 19.2C82.4301 19.2 81.9801 18.89 81.6601 18.42C81.3401 17.95 80.8101 17.09 80.8101 17.09L82.0701 16.44L83.0501 18.77L82.4201 19.19L82.4301 19.2Z" fill="#C4C4C4"/>
<path d="M87.62 17.32C87.62 17.32 87.88 16.44 87.57 15.49C87.26 14.54 86.55 13.23 86.55 13.23L85.96 13.06L86.19 16.27L87.62 17.32Z" fill="#C4C4C4"/>
<path d="M38.47 19.07C36.87 20.12 34.56 19.08 33.31 16.76L30.3 11.15C29.05 8.83 29.34 6.09 30.94 5.05C32.54 4 34.85 5.04 36.1 7.36L39.11 12.97C40.36 15.29 40.07 18.03 38.47 19.07Z" fill="#C4C4C4"/>
<path d="M26.1199 19.07C24.5199 18.02 24.2399 15.28 25.4899 12.95L28.5099 7.32C29.7599 4.99 32.0699 3.95 33.6699 4.99C35.2699 6.04 35.5499 8.78 34.2999 11.11L31.2799 16.74C30.0299 19.07 27.7199 20.11 26.1199 19.07Z" fill="#C4C4C4"/>
<path d="M27.4399 19.83C29.279 19.83 30.7699 18.3391 30.7699 16.5C30.7699 14.6609 29.279 13.17 27.4399 13.17C25.6008 13.17 24.1099 14.6609 24.1099 16.5C24.1099 18.3391 25.6008 19.83 27.4399 19.83Z" fill="#C4C4C4"/>
<path d="M37.0903 19.83C38.9294 19.83 40.4203 18.3391 40.4203 16.5C40.4203 14.6609 38.9294 13.17 37.0903 13.17C35.2511 13.17 33.7603 14.6609 33.7603 16.5C33.7603 18.3391 35.2511 19.83 37.0903 19.83Z" fill="#C4C4C4"/>
<path d="M24.11 16.77C24.11 16.77 23.99 15.94 24.47 14.96C24.95 13.98 25.4 13.1 25.4 13.1L27.83 13.98L25.88 17L24.1 16.77H24.11Z" fill="#C4C4C4"/>
<path d="M29.1302 19.38C29.1302 19.38 29.7802 19 30.2202 18.35C30.6602 17.7 30.9802 17.26 30.9802 17.26L30.1402 16.23L28.9702 18.74L29.1402 19.37L29.1302 19.38Z" fill="#C4C4C4"/>
<path d="M35.1303 19.2C35.1303 19.2 34.6803 18.89 34.3603 18.42C34.0403 17.95 33.5103 17.09 33.5103 17.09L34.7703 16.44L35.7503 18.77L35.1203 19.19L35.1303 19.2Z" fill="#C4C4C4"/>
<path d="M40.3202 17.32C40.3202 17.32 40.5802 16.44 40.2702 15.49C39.9602 14.54 39.2502 13.23 39.2502 13.23L38.6602 13.06L38.8902 16.27L40.3202 17.32Z" fill="#C4C4C4"/>
<path d="M12.7801 2.98C12.7801 1.33419 11.4481 0 9.80508 0C8.16203 0 6.83008 1.33419 6.83008 2.98V6.94C6.83008 8.58581 8.16203 9.92 9.80508 9.92C11.4481 9.92 12.7801 8.58581 12.7801 6.94V2.98Z" fill="#C4C4C4"/>
<path d="M9.50988 11.1C8.94988 12.65 7.23988 13.44 5.68988 12.88L1.95988 11.52C0.409881 10.95 -0.38012 9.25 0.179881 7.7C0.739881 6.15 2.44988 5.36 3.99988 5.92L7.72988 7.28C9.27988 7.84 10.0699 9.55 9.50988 11.1Z" fill="#C4C4C4"/>
<path d="M10.0998 11.1C9.5398 9.55 10.3298 7.85 11.8798 7.28L15.6098 5.92C17.1598 5.36 18.8598 6.15 19.4298 7.7C19.9898 9.25 19.1998 10.95 17.6498 11.52L13.9198 12.88C12.3698 13.44 10.6698 12.65 10.0998 11.1Z" fill="#C4C4C4"/>
<path d="M15.26 19.44C13.84 20.26 12.02 19.77 11.19 18.35L9.20999 14.91C8.38999 13.49 8.87999 11.67 10.3 10.84C11.72 10.02 13.54 10.51 14.37 11.93L16.35 15.37C17.17 16.79 16.68 18.61 15.26 19.44Z" fill="#C4C4C4"/>
<path d="M4.34979 19.44C2.92979 18.62 2.43979 16.8 3.25979 15.37L5.23979 11.93C6.05979 10.51 7.87979 10.02 9.30979 10.84C10.7298 11.66 11.2198 13.48 10.3998 14.91L8.41979 18.35C7.59979 19.77 5.77979 20.26 4.34979 19.44Z" fill="#C4C4C4"/>
<path d="M9.90977 13.06C10.9591 13.06 11.8098 12.1243 11.8098 10.97C11.8098 9.81572 10.9591 8.88 9.90977 8.88C8.86042 8.88 8.00977 9.81572 8.00977 10.97C8.00977 12.1243 8.86042 13.06 9.90977 13.06Z" fill="#C4C4C4"/>
<path d="M59.6204 2.98C59.6204 1.33419 58.2885 0 56.6454 0C55.0024 0 53.6704 1.33419 53.6704 2.98V6.94C53.6704 8.58581 55.0024 9.92 56.6454 9.92C58.2885 9.92 59.6204 8.58581 59.6204 6.94V2.98Z" fill="#EC6C16"/>
<path d="M56.3502 10.98C55.7902 12.53 54.0802 13.32 52.5302 12.76L48.8002 11.4C47.2502 10.84 46.4602 9.13 47.0202 7.58C47.5802 6.03 49.2902 5.24 50.8402 5.8L54.5702 7.16C56.1202 7.72 56.9102 9.43 56.3502 10.98Z" fill="#EC6C16"/>
<path d="M56.9504 10.98C56.3904 9.43 57.1804 7.73 58.7304 7.16L62.4604 5.8C64.0104 5.24 65.7104 6.03 66.2804 7.58C66.8404 9.13 66.0504 10.83 64.5004 11.4L60.7704 12.76C59.2204 13.32 57.5204 12.53 56.9504 10.98Z" fill="#EC6C16"/>
<path d="M56.6504 19.84C59.815 19.84 62.3804 17.2746 62.3804 14.11C62.3804 10.9454 59.815 8.38 56.6504 8.38C53.4858 8.38 50.9204 10.9454 50.9204 14.11C50.9204 17.2746 53.4858 19.84 56.6504 19.84Z" fill="#EC6C16"/>
<path d="M56.6504 15.05C57.1917 15.05 57.6304 14.6112 57.6304 14.07C57.6304 13.5288 57.1917 13.09 56.6504 13.09C56.1092 13.09 55.6704 13.5288 55.6704 14.07C55.6704 14.6112 56.1092 15.05 56.6504 15.05Z" fill="#F3E3FF"/>
</svg>
