<svg width="142" height="33" viewBox="0 0 142 33" fill="none" xmlns="http://www.w3.org/2000/svg">
<g clip-path="url(#clip0_260_1750)">
<path d="M138.59 30.81C136.01 32.5 132.28 30.83 130.26 27.07L125.39 18C123.37 14.24 123.83 9.83 126.42 8.14C129 6.45 132.73 8.12 134.75 11.88L139.62 20.95C141.64 24.71 141.18 29.12 138.59 30.81Z" fill="#41BFED"/>
<path d="M118.619 30.81C116.039 29.12 115.579 24.69 117.609 20.92L122.499 11.82C124.519 8.04999 128.259 6.36999 130.839 8.05999C133.419 9.74999 133.879 14.18 131.849 17.95L126.959 27.05C124.939 30.82 121.199 32.5 118.619 30.81Z" fill="#41BFED"/>
<path d="M120.759 32.05C123.736 32.05 126.149 29.6368 126.149 26.66C126.149 23.6832 123.736 21.27 120.759 21.27C117.782 21.27 115.369 23.6832 115.369 26.66C115.369 29.6368 117.782 32.05 120.759 32.05Z" fill="#41BFED"/>
<path d="M136.339 32.05C139.316 32.05 141.729 29.6368 141.729 26.66C141.729 23.6832 139.316 21.27 136.339 21.27C133.362 21.27 130.949 23.6832 130.949 26.66C130.949 29.6368 133.362 32.05 136.339 32.05Z" fill="#41BFED"/>
<path d="M115.39 27.1C115.39 27.1 115.2 25.77 115.98 24.18C116.76 22.59 117.49 21.17 117.49 21.17L121.42 22.59L118.27 27.48L115.4 27.11L115.39 27.1Z" fill="#41BFED"/>
<path d="M123.48 31.3C123.48 31.3 124.53 30.68 125.24 29.64C125.95 28.6 126.47 27.87 126.47 27.87L125.11 26.21L123.22 30.27L123.49 31.29L123.48 31.3Z" fill="#41BFED"/>
<path d="M133.189 31.03C133.189 31.03 132.469 30.53 131.949 29.78C131.429 29.03 130.579 27.64 130.579 27.64L132.619 26.59L134.209 30.35L133.189 31.04V31.03Z" fill="#41BFED"/>
<path d="M141.57 27.98C141.57 27.98 141.99 26.56 141.48 25.03C140.97 23.5 139.83 21.37 139.83 21.37L138.88 21.09L139.26 26.28L141.57 27.98Z" fill="#41BFED"/>
<path d="M62.1599 30.81C59.5799 32.5 55.8499 30.83 53.8299 27.07L48.9599 18C46.9399 14.24 47.3999 9.83 49.9899 8.14C52.5699 6.45 56.2999 8.12 58.3199 11.88L63.1899 20.95C65.2099 24.71 64.7499 29.12 62.1599 30.81Z" fill="#F7D134"/>
<path d="M42.1994 30.81C39.6194 29.12 39.1594 24.69 41.1894 20.92L46.0794 11.82C48.0994 8.04999 51.8394 6.36999 54.4194 8.05999C56.9994 9.74999 57.4594 14.18 55.4294 17.95L50.5394 27.05C48.5194 30.82 44.7794 32.5 42.1994 30.81Z" fill="#F7D134"/>
<path d="M44.3295 32.05C47.3063 32.05 49.7195 29.6368 49.7195 26.66C49.7195 23.6832 47.3063 21.27 44.3295 21.27C41.3526 21.27 38.9395 23.6832 38.9395 26.66C38.9395 29.6368 41.3526 32.05 44.3295 32.05Z" fill="#F7D134"/>
<path d="M59.9203 32.05C62.8971 32.05 65.3103 29.6368 65.3103 26.66C65.3103 23.6832 62.8971 21.27 59.9203 21.27C56.9435 21.27 54.5303 23.6832 54.5303 26.66C54.5303 29.6368 56.9435 32.05 59.9203 32.05Z" fill="#F7D134"/>
<path d="M38.9598 27.1C38.9598 27.1 38.7698 25.77 39.5498 24.18C40.3298 22.59 41.0598 21.17 41.0598 21.17L44.9898 22.59L41.8398 27.48L38.9698 27.11L38.9598 27.1Z" fill="#F7D134"/>
<path d="M47.0598 31.3C47.0598 31.3 48.1098 30.68 48.8198 29.64C49.5298 28.6 50.0498 27.87 50.0498 27.87L48.6898 26.21L46.7998 30.27L47.0698 31.29L47.0598 31.3Z" fill="#F7D134"/>
<path d="M56.7594 31.03C56.7594 31.03 56.0394 30.53 55.5194 29.78C54.9994 29.03 54.1494 27.64 54.1494 27.64L56.1894 26.59L57.7794 30.35L56.7594 31.04V31.03Z" fill="#F7D134"/>
<path d="M65.1402 27.98C65.1402 27.98 65.5602 26.56 65.0502 25.03C64.5402 23.5 63.4002 21.37 63.4002 21.37L62.4502 21.09L62.8302 26.28L65.1402 27.98Z" fill="#F7D134"/>
<path d="M20.6503 4.81C20.6503 2.15351 18.4968 0 15.8403 0C13.1838 0 11.0303 2.15351 11.0303 4.81V11.22C11.0303 13.8765 13.1838 16.03 15.8403 16.03C18.4968 16.03 20.6503 13.8765 20.6503 11.22V4.81Z" fill="#CFE869"/>
<path d="M6.45762 9.56908C3.96133 8.66051 1.20115 9.9476 0.292578 12.4439C-0.615995 14.9402 0.671098 17.7003 3.16738 18.6089L9.19081 20.8013C11.6871 21.7098 14.4473 20.4228 15.3559 17.9265C16.2644 15.4302 14.9773 12.67 12.481 11.7614L6.45762 9.56908Z" fill="#CFE869"/>
<path d="M28.5184 18.6084C31.0146 17.6998 32.3017 14.9396 31.3932 12.4434C30.4846 9.94707 27.7244 8.65998 25.2281 9.56855L19.2047 11.7609C16.7084 12.6695 15.4213 15.4297 16.3299 17.9259C17.2385 20.4222 19.9986 21.7093 22.4949 20.8007L28.5184 18.6084Z" fill="#CFE869"/>
<path d="M23.2088 19.2817C21.8806 16.9811 18.9388 16.1929 16.6382 17.5211C14.3377 18.8494 13.5494 21.7911 14.8777 24.0917L18.0827 29.6429C19.4109 31.9435 22.3526 32.7317 24.6532 31.4035C26.9538 30.0753 27.7421 27.1335 26.4138 24.8329L23.2088 19.2817Z" fill="#CFE869"/>
<path d="M16.7982 24.0917C18.1265 21.7911 17.3382 18.8494 15.0377 17.5211C12.7371 16.1929 9.79532 16.9811 8.46707 19.2817L5.26207 24.8329C3.93383 27.1335 4.72207 30.0753 7.02265 31.4035C9.32324 32.7318 12.265 31.9435 13.5932 29.6429L16.7982 24.0917Z" fill="#CFE869"/>
<path d="M16.0104 21.1C17.7059 21.1 19.0804 19.5912 19.0804 17.73C19.0804 15.8688 17.7059 14.36 16.0104 14.36C14.3149 14.36 12.9404 15.8688 12.9404 17.73C12.9404 19.5912 14.3149 21.1 16.0104 21.1Z" fill="#CFE869"/>
<path d="M96.3397 4.81C96.3397 2.15351 94.1862 0 91.5297 0C88.8732 0 86.7197 2.15351 86.7197 4.81V11.22C86.7197 13.8765 88.8732 16.03 91.5297 16.03C94.1862 16.03 96.3397 13.8765 96.3397 11.22V4.81Z" fill="#EC6C16"/>
<path d="M82.1451 9.39218C79.6488 8.48361 76.8887 9.7707 75.9801 12.267C75.0715 14.7633 76.3586 17.5235 78.8549 18.432L84.8783 20.6244C87.3746 21.5329 90.1348 20.2459 91.0434 17.7496C91.9519 15.2533 90.6648 12.4931 88.1685 11.5845L82.1451 9.39218Z" fill="#EC6C16"/>
<path d="M104.201 18.4228C106.697 17.5142 107.984 14.754 107.076 12.2577C106.167 9.76144 103.407 8.47435 100.911 9.38293L94.8873 11.5753C92.391 12.4838 91.1039 15.244 92.0125 17.7403C92.9211 20.2366 95.6813 21.5237 98.1775 20.6151L104.201 18.4228Z" fill="#EC6C16"/>
<path d="M91.5293 32.04C96.6379 32.04 100.779 27.8986 100.779 22.79C100.779 17.6814 96.6379 13.54 91.5293 13.54C86.4207 13.54 82.2793 17.6814 82.2793 22.79C82.2793 27.8986 86.4207 32.04 91.5293 32.04Z" fill="#EC6C16"/>
<path d="M91.5292 24.32C92.4018 24.32 93.1092 23.6126 93.1092 22.74C93.1092 21.8674 92.4018 21.16 91.5292 21.16C90.6566 21.16 89.9492 21.8674 89.9492 22.74C89.9492 23.6126 90.6566 24.32 91.5292 24.32Z" fill="white"/>
</g>
<defs>
<clipPath id="clip0_260_1750">
<rect width="141.73" height="32.06" fill="white"/>
</clipPath>
</defs>
</svg>
