<?xml version="1.0" encoding="utf-8"?>
<!-- Generator: Adobe Illustrator 26.3.0, SVG Export Plug-In . SVG Version: 6.00 Build 0)  -->
<svg version="1.1" id="Layer_1" xmlns="http://www.w3.org/2000/svg" xmlns:xlink="http://www.w3.org/1999/xlink" x="0px" y="0px"
	 viewBox="0 0 188.12 98.12" style="enable-background:new 0 0 188.12 98.12;" xml:space="preserve">
<style type="text/css">
	.st0{fill:#41BFED;}
	.st1{fill:#F7D134;}
	.st2{fill:#CFE869;}
	.st3{fill:#EC6C16;}
	.st4{fill:#1D1D1B;}
</style>
<g>
	<g>
		<g>
			<path class="st0" d="M134.35,25.75L134.35,25.75c-1.6,1.05-3.91,0.01-5.16-2.31l-3.01-5.61c-1.25-2.32-0.96-5.06,0.64-6.1l0,0
				c1.6-1.05,3.91-0.01,5.16,2.31l3.01,5.61C136.23,21.97,135.95,24.7,134.35,25.75z"/>
			<path class="st0" d="M121.99,25.75L121.99,25.75c-1.6-1.05-1.88-3.79-0.63-6.12l3.02-5.63c1.25-2.33,3.56-3.37,5.16-2.33v0
				c1.6,1.05,1.88,3.79,0.63,6.12l-3.02,5.63C125.9,25.75,123.59,26.79,121.99,25.75z"/>
			<circle class="st0" cx="123.31" cy="23.18" r="3.33"/>
			<circle class="st0" cx="132.96" cy="23.18" r="3.33"/>
			<path class="st0" d="M119.99,23.45c0,0-0.12-0.83,0.36-1.81c0.48-0.98,0.93-1.86,0.93-1.86l2.43,0.88l-1.95,3.02L119.99,23.45z"
				/>
			<path class="st0" d="M125,26.05c0,0,0.65-0.38,1.09-1.03c0.44-0.65,0.76-1.09,0.76-1.09l-0.84-1.03l-1.17,2.51L125,26.05z"/>
			<path class="st0" d="M131.01,25.88c0,0-0.45-0.31-0.77-0.78c-0.32-0.47-0.85-1.33-0.85-1.33l1.26-0.65l0.98,2.33L131.01,25.88z"
				/>
			<path class="st0" d="M136.19,24c0,0,0.26-0.88-0.05-1.83c-0.31-0.95-1.02-2.26-1.02-2.26l-0.59-0.17l0.23,3.21L136.19,24z"/>
		</g>
		<g>
			<path class="st1" d="M87.05,25.75L87.05,25.75c-1.6,1.05-3.91,0.01-5.16-2.31l-3.01-5.61c-1.25-2.32-0.96-5.06,0.64-6.1l0,0
				c1.6-1.05,3.91-0.01,5.16,2.31l3.01,5.61C88.93,21.97,88.65,24.7,87.05,25.75z"/>
			<path class="st1" d="M74.69,25.75L74.69,25.75c-1.6-1.05-1.88-3.79-0.63-6.12L77.09,14c1.25-2.33,3.56-3.37,5.16-2.33l0,0
				c1.6,1.05,1.88,3.79,0.63,6.12l-3.02,5.63C78.6,25.75,76.29,26.79,74.69,25.75z"/>
			<circle class="st1" cx="76.01" cy="23.18" r="3.33"/>
			<circle class="st1" cx="85.66" cy="23.18" r="3.33"/>
			<path class="st1" d="M72.69,23.45c0,0-0.12-0.83,0.36-1.81c0.48-0.98,0.93-1.86,0.93-1.86l2.43,0.88l-1.95,3.02L72.69,23.45z"/>
			<path class="st1" d="M77.7,26.05c0,0,0.65-0.38,1.09-1.03c0.44-0.65,0.76-1.09,0.76-1.09l-0.84-1.03l-1.17,2.51L77.7,26.05z"/>
			<path class="st1" d="M83.71,25.88c0,0-0.45-0.31-0.77-0.78c-0.32-0.47-0.85-1.33-0.85-1.33l1.26-0.65l0.98,2.33L83.71,25.88z"/>
			<path class="st1" d="M88.89,24c0,0,0.26-0.88-0.05-1.83c-0.31-0.95-1.02-2.26-1.02-2.26l-0.59-0.17l0.23,3.21L88.89,24z"/>
		</g>
		<g>
			<path class="st2" d="M58.38,16.6L58.38,16.6c-1.64,0-2.98-1.33-2.98-2.98V9.66c0-1.64,1.33-2.98,2.98-2.98h0
				c1.64,0,2.98,1.33,2.98,2.98v3.97C61.36,15.27,60.02,16.6,58.38,16.6z"/>
			<path class="st2" d="M58.08,17.77L58.08,17.77c-0.56,1.55-2.27,2.34-3.82,1.78l-3.73-1.36c-1.55-0.56-2.34-2.27-1.78-3.82l0,0
				c0.56-1.55,2.27-2.34,3.82-1.78l3.73,1.36C57.84,14.52,58.64,16.23,58.08,17.77z"/>
			<path class="st2" d="M58.68,17.77L58.68,17.77c-0.56-1.55,0.23-3.25,1.78-3.82l3.73-1.36c1.55-0.56,3.25,0.23,3.82,1.78v0
				c0.56,1.55-0.23,3.25-1.78,3.82l-3.73,1.36C60.95,20.12,59.24,19.32,58.68,17.77z"/>
			<path class="st2" d="M63.84,26.12L63.84,26.12c-1.42,0.82-3.24,0.33-4.07-1.09l-1.98-3.44c-0.82-1.42-0.33-3.24,1.09-4.07l0,0
				c1.42-0.82,3.24-0.33,4.07,1.09l1.98,3.44C65.75,23.48,65.26,25.3,63.84,26.12z"/>
			<path class="st2" d="M52.92,26.12L52.92,26.12c-1.42-0.82-1.91-2.64-1.09-4.07l1.98-3.44c0.82-1.42,2.64-1.91,4.07-1.09l0,0
				c1.42,0.82,1.91,2.64,1.09,4.07l-1.98,3.44C56.17,26.46,54.34,26.94,52.92,26.12z"/>
			<ellipse class="st2" cx="58.48" cy="17.65" rx="1.9" ry="2.09"/>
		</g>
		<g>
			<path class="st3" d="M105.22,16.6L105.22,16.6c-1.64,0-2.98-1.33-2.98-2.98V9.66c0-1.64,1.33-2.98,2.98-2.98h0
				c1.64,0,2.98,1.33,2.98,2.98v3.97C108.2,15.27,106.87,16.6,105.22,16.6z"/>
			<path class="st3" d="M104.92,17.66L104.92,17.66c-0.56,1.55-2.27,2.34-3.82,1.78l-3.73-1.36c-1.55-0.56-2.34-2.27-1.78-3.82v0
				c0.56-1.55,2.27-2.34,3.82-1.78l3.73,1.36C104.69,14.41,105.49,16.12,104.92,17.66z"/>
			<path class="st3" d="M105.52,17.66L105.52,17.66c-0.56-1.55,0.23-3.25,1.78-3.82l3.73-1.36c1.55-0.56,3.25,0.23,3.82,1.78l0,0
				c0.56,1.55-0.23,3.25-1.78,3.82l-3.73,1.36C107.79,20,106.08,19.21,105.52,17.66z"/>
			<path class="st3" d="M105.22,15.06c-3.16,0-5.73,2.56-5.73,5.73s2.56,5.73,5.73,5.73s5.73-2.56,5.73-5.73
				S108.39,15.06,105.22,15.06z M105.22,21.73c-0.54,0-0.98-0.44-0.98-0.98s0.44-0.98,0.98-0.98s0.98,0.44,0.98,0.98
				S105.76,21.73,105.22,21.73z"/>
		</g>
	</g>
	<g>
		<path class="st4" d="M26.39,54.6h-7.2v3.24c0,1.9,0.27,3.65,0.8,5.25c0.53,1.6,1.22,3.07,2.05,4.4c0.87,1.4,1.82,2.61,2.88,3.62
			c1.05,1.02,2.11,1.88,3.17,2.58l-3.5,3.6c-0.8-0.6-1.59-1.27-2.38-2c-0.78-0.73-1.53-1.53-2.23-2.38
			c-0.7-0.85-1.34-1.73-1.92-2.65c-0.58-0.92-1.08-1.86-1.47-2.83c-0.4,1-0.9,1.99-1.5,2.98c-0.6,0.98-1.26,1.94-1.98,2.88
			s-1.47,1.81-2.27,2.62s-1.6,1.54-2.4,2.17l-3.6-3.45c1.03-0.7,2.08-1.62,3.15-2.75c1.07-1.13,2.05-2.45,2.95-3.95
			c0.87-1.43,1.58-2.98,2.15-4.65c0.57-1.67,0.85-3.4,0.85-5.2V54.6h-7.3V50h19.75V54.6z M14.21,43.24h4.7v12.88h-4.7V43.24z
			 M29.43,43.24h5.2v17.2h4.65v-17.2h5.2v43.5h-5.2V64.99h-4.65v20.15h-5.2V43.24z"/>
		<path class="st4" d="M96.39,52.05V47.6h26v4.45H96.39z M107.08,40.76h4.55v9.94h-4.55V40.76z M120.72,60.64
			c0,1.4-0.29,2.71-0.88,3.92c-0.58,1.21-1.38,2.26-2.4,3.16c-1.01,0.9-2.21,1.6-3.59,2.1c-1.38,0.51-2.87,0.76-4.47,0.76
			c-1.6,0-3.09-0.25-4.47-0.76c-1.38-0.51-2.58-1.21-3.59-2.1c-1.01-0.89-1.81-1.95-2.4-3.16c-0.58-1.21-0.88-2.51-0.88-3.92
			s0.29-2.71,0.88-3.92c0.58-1.21,1.38-2.26,2.4-3.16c1.01-0.9,2.21-1.6,3.59-2.1c1.38-0.51,2.87-0.76,4.47-0.76
			c1.6,0,3.09,0.25,4.47,0.76c1.38,0.51,2.58,1.21,3.59,2.1c1.01,0.9,1.81,1.95,2.4,3.16C120.43,57.93,120.72,59.24,120.72,60.64z
			 M114.94,60.64c0-0.7-0.15-1.34-0.44-1.93c-0.29-0.58-0.69-1.1-1.2-1.55c-0.51-0.45-1.1-0.8-1.78-1.05
			c-0.68-0.25-1.39-0.38-2.13-0.38c-0.78,0-1.5,0.13-2.16,0.38c-0.66,0.25-1.25,0.6-1.75,1.05c-0.51,0.45-0.91,0.96-1.2,1.55
			c-0.29,0.58-0.44,1.23-0.44,1.93c0,0.7,0.15,1.34,0.44,1.93c0.29,0.58,0.69,1.1,1.2,1.55c0.51,0.45,1.09,0.8,1.75,1.05
			c0.66,0.25,1.38,0.38,2.16,0.38c0.74,0,1.45-0.13,2.13-0.38c0.68-0.25,1.28-0.6,1.78-1.05c0.51-0.45,0.91-0.96,1.2-1.55
			S114.94,61.34,114.94,60.64z M131.96,89.29h-28.33V74.83h5.5v9.85h22.83V89.29z M139.09,60.21h-7.05v12.38h-5.4V43.24h5.4v12.38
			h7.05V60.21z"/>
		<path class="st4" d="M164.38,67.49c-2.3-1.1-4.38-2.46-6.22-4.07c-1.85-1.62-3.28-3.38-4.28-5.28c-0.93,2.1-2.34,4.06-4.22,5.88
			c-1.88,1.82-4.08,3.39-6.58,4.72l-3.35-4.2c3.33-1.57,6.02-3.65,8.05-6.25c2.1-2.63,3.15-5.67,3.15-9.1v-5.95h5.75v5.8
			c0,3.27,1.02,6.12,3.05,8.55c2.03,2.4,4.67,4.27,7.9,5.6L164.38,67.49z M162.51,70.52c1.67,0,3.29,0.25,4.87,0.76
			c1.58,0.51,2.98,1.23,4.22,2.18c1.23,0.94,2.22,2.11,2.97,3.51c0.74,1.4,1.12,1.88,1.12,3.62s-0.37,4.4-1.12,5.8
			c-0.74,1.4-1.73,2.57-2.97,3.51c-1.23,0.94-2.64,1.67-4.22,2.18s-3.2,0.76-4.87,0.76c-1.67,0-3.29-0.25-4.87-0.76
			s-2.98-1.23-4.22-2.18c-1.23-0.94-2.22-2.11-2.97-3.51c-0.74-1.4-1.12-2.97-1.12-4.71s0.37-3.31,1.12-4.71
			c0.74-1.4,1.73-2.57,2.97-3.51c1.23-0.94,2.64-1.67,4.22-2.18C159.22,70.78,160.84,70.52,162.51,70.52z M162.51,75.58
			c-0.98,0-1.9,0.15-2.78,0.46c-0.87,0.31-1.63,0.73-2.29,1.28s-1.17,1.19-1.55,1.93c-0.38,0.74-0.57,1.55-0.57,2.42
			c0,0.94,0.19,1.79,0.57,2.53c0.38,0.74,0.9,1.38,1.55,1.9c0.65,0.53,1.41,0.93,2.29,1.22c0.87,0.29,1.8,0.43,2.78,0.43
			c0.98,0,1.9-0.14,2.78-0.43c0.87-0.29,1.63-0.7,2.29-1.22c0.65-0.53,1.17-1.16,1.55-1.9c0.38-0.74,0.57-1.59,0.57-2.53
			c0-0.87-0.19-1.68-0.57-2.42c-0.38-0.74-0.9-1.39-1.55-1.93c-0.65-0.54-1.41-0.97-2.29-1.28
			C164.42,75.74,163.49,75.58,162.51,75.58z M182.66,56.82h-7.05v12h-5.4V43.24h5.4v8.99h7.05V56.82z"/>
		<g>
			<path class="st4" d="M75.79,67.49c-2.3-1.1-4.38-2.46-6.23-4.07c-1.85-1.62-3.27-3.38-4.27-5.28c-0.93,2.1-2.34,4.06-4.23,5.88
				c-1.88,1.82-4.08,3.39-6.58,4.72l-3.35-4.2c3.33-1.57,6.02-3.65,8.05-6.25c2.1-2.63,3.15-5.67,3.15-9.1v-5.95h5.75v5.8
				c0,3.27,1.02,6.12,3.05,8.55c2.03,2.4,4.67,4.27,7.9,5.6L75.79,67.49z"/>
			<polygon class="st4" points="60.48,72.04 88.89,72.04 88.89,89.29 83.48,89.29 83.48,76.64 60.48,76.64 			"/>
			<rect x="83.48" y="43.24" class="st4" width="5.4" height="25.65"/>
		</g>
	</g>
</g>
</svg>
