<svg width="222" height="49" viewBox="0 0 222 49" fill="none" xmlns="http://www.w3.org/2000/svg">
<g clip-path="url(#clip0_181_1320)">
<path d="M54.95 32.45C56.52 31.35 58.0099 30.14 59.4199 28.83C60.8399 27.51 62.1299 26.14 63.2999 24.71C64.4699 23.28 65.48 21.8 66.33 20.29C67.18 18.77 67.82 17.26 68.25 15.76C68.35 15.39 68.3599 15.09 68.2799 14.86C68.1999 14.63 67.9199 14.51 67.4499 14.51H56.25V8.86001H62.5499C62.8799 8.29001 63.0699 7.70001 63.0999 7.08001C63.1299 6.46001 63.0499 5.86001 62.8499 5.25001L62.25 3.45001L68.5999 1.60001C68.7299 2.00001 68.8699 2.44001 69.0199 2.93001C69.1699 3.41001 69.29 3.84001 69.4 4.20001C69.53 5.10001 69.52 5.95001 69.37 6.75001C69.22 7.55001 68.9599 8.25001 68.5999 8.85001H72.1999C73.8299 8.85001 74.9099 9.37001 75.4199 10.43C75.9399 11.48 76.04 12.84 75.75 14.5C75.4799 16 75.03 17.52 74.4 19.05C73.77 20.58 72.9999 22.13 72.0999 23.7C72.3299 23.87 72.57 24.06 72.8 24.28C73.03 24.5 73.2499 24.72 73.4499 24.95C74.2499 26.12 75.09 27.42 75.98 28.85C76.86 30.28 77.82 31.85 78.86 33.55L74.0599 37.15C73.4899 36.25 72.9699 35.39 72.4899 34.57C72.0099 33.75 71.55 32.98 71.11 32.24C70.68 31.54 70.2699 30.91 69.8799 30.34C69.4999 29.77 69.16 29.29 68.86 28.89C68.83 28.89 68.79 28.89 68.76 28.86C68.73 28.84 68.7099 28.82 68.7099 28.79L68.6299 28.71C68.6299 28.71 68.61 28.67 68.61 28.63C67.28 30.23 65.8099 31.79 64.2099 33.3C62.6099 34.82 60.89 36.22 59.06 37.53L54.9599 32.43L54.95 32.45ZM79 42.95V3.65001H85.75V18.4H89.55V3.65001H96.3499V43.95H89.55V24.4H85.75V42.95H79Z" fill="#1D1D1B"/>
<path d="M113.55 2.29999C114.15 3.49999 114.54 4.51999 114.73 5.34999C114.91 6.17999 114.99 7.17999 114.95 8.34999C114.92 9.07999 114.84 9.79999 114.73 10.5C114.61 11.2 114.47 11.85 114.3 12.45C115.4 12.52 116.45 12.72 117.45 13.05C118.45 13.38 119.33 14.02 120.1 14.95C121 16.08 121.94 17.35 122.92 18.75C123.9 20.15 124.8 21.45 125.6 22.65L120.75 26.3C119.75 24.87 118.78 23.51 117.85 22.22C116.92 20.94 116.15 19.88 115.55 19.05C115.05 18.45 114.56 18 114.08 17.7C113.6 17.4 113 17.22 112.3 17.15C110.93 19.42 109.26 21.34 107.28 22.93C105.3 24.51 103.4 25.79 101.61 26.75L98.11 21.85C99.54 20.88 100.85 19.94 102.03 19.02C103.21 18.1 104.2 17.13 105 16.1C105.83 15.07 106.48 13.93 106.92 12.7C107.37 11.47 107.63 10.03 107.7 8.39999C107.7 7.62999 107.64 6.92999 107.53 6.29999C107.41 5.66999 107.19 5.04999 106.86 4.44999L113.56 2.29999H113.55ZM134.75 47.2H127.95V36.45C127.95 35.98 127.83 35.62 127.6 35.37C127.37 35.12 127.02 34.99 126.55 34.99H104.85V29.39H126.1C126.9 28.86 127.48 28.1 127.82 27.11C128.17 26.13 128.35 25.04 128.35 23.84V3.14999H135.6V23.35C135.6 24.85 135.29 26.11 134.67 27.12C134.05 28.14 133.29 28.91 132.4 29.45C133.33 29.55 134.07 29.96 134.62 30.68C135.17 31.4 135.41 32.25 135.35 33.25L134.75 47.2Z" fill="#1D1D1B"/>
<path d="M147.05 6.85C147.22 6.52 147.33 6.11 147.4 5.62C147.47 5.14 147.45 4.56 147.35 3.9C147.28 3.6 147.19 3.27 147.08 2.9C146.96 2.53 146.85 2.2 146.75 1.9L153.55 0C154.08 1.1 154.34 2.26 154.33 3.48C154.31 4.7 154.04 5.82 153.5 6.86H163.5V11.96H137.75V6.85H147.05ZM160.95 25.52C160.32 26.64 159.47 27.56 158.4 28.3C157.37 29.03 156.17 29.58 154.8 29.95C153.43 30.32 152.03 30.5 150.6 30.5C149.17 30.5 147.72 30.33 146.35 29.98C144.98 29.63 143.78 29.09 142.75 28.36C141.72 27.63 140.89 26.7 140.27 25.58C139.65 24.46 139.35 23.16 139.35 21.66C139.35 20.16 139.65 18.96 140.25 17.86C140.85 16.76 141.67 15.84 142.7 15.11C143.73 14.38 144.93 13.82 146.3 13.44C147.67 13.06 149.1 12.86 150.6 12.86C152.1 12.86 153.58 13.05 154.95 13.44C156.32 13.82 157.52 14.38 158.55 15.11C159.58 15.84 160.4 16.76 161 17.86C161.6 18.96 161.9 20.23 161.9 21.66C161.9 23.09 161.58 24.42 160.95 25.54V25.52ZM145.35 45.37C144.35 44.49 143.85 43.28 143.85 41.75V32.95H151.1V39.8C151.1 40.3 151.2 40.65 151.4 40.85C151.6 41.05 151.97 41.15 152.5 41.15H163.4C165.33 41.15 167.22 41.03 169.05 40.77C170.88 40.52 172.65 40.13 174.35 39.6L175.85 44.9C174.12 45.47 172.3 45.91 170.4 46.23C168.5 46.55 166.4 46.7 164.1 46.7H149.6C147.77 46.7 146.35 46.26 145.35 45.37ZM153.77 18.99C152.85 18.49 151.8 18.24 150.6 18.24C149.4 18.24 148.39 18.49 147.48 18.99C146.57 19.49 146.1 20.37 146.1 21.64C146.1 22.91 146.56 23.84 147.48 24.34C148.4 24.84 149.44 25.09 150.6 25.09C151.76 25.09 152.86 24.84 153.77 24.34C154.68 23.84 155.15 22.94 155.15 21.64C155.15 20.34 154.69 19.49 153.77 18.99ZM173.95 15.69H180.15V21.44H173.95V33.74H166.7V3.15H173.95V15.7V15.69Z" fill="#1D1D1B"/>
<path d="M193.65 2.29999C194.25 3.49999 194.64 4.51999 194.83 5.34999C195.01 6.17999 195.09 7.17999 195.05 8.34999C195.02 8.97999 194.96 9.60999 194.88 10.23C194.8 10.85 194.71 11.42 194.6 11.95C195.63 12.02 196.64 12.23 197.63 12.57C198.61 12.92 199.47 13.55 200.21 14.45C201.11 15.58 202.03 16.8 202.96 18.1C203.89 19.4 204.76 20.65 205.56 21.85L200.71 25.5C200.21 24.8 199.73 24.12 199.26 23.45C198.79 22.78 198.34 22.17 197.91 21.6C197.48 21 197.07 20.45 196.69 19.95C196.31 19.45 195.97 18.98 195.66 18.55C195.19 18.02 194.76 17.6 194.36 17.3C193.96 17 193.46 16.8 192.86 16.7C191.53 19.23 189.83 21.37 187.76 23.1C185.69 24.83 183.69 26.22 181.76 27.25L178.21 22.35C179.64 21.38 180.95 20.43 182.13 19.5C183.31 18.57 184.3 17.57 185.1 16.5C185.93 15.47 186.58 14.3 187.02 13C187.47 11.7 187.73 10.17 187.8 8.39999C187.8 7.62999 187.74 6.92999 187.63 6.29999C187.51 5.66999 187.29 5.04999 186.96 4.44999L193.66 2.29999H193.65ZM215.45 3.14999V12.55H221.65V18.1H215.45V24.1C215.45 25.87 215.1 27.3 214.4 28.4C213.7 29.5 212.78 30.37 211.65 31C212.35 31.9 212.92 32.89 213.35 33.98C213.78 35.06 214 36.24 214 37.5C214 39.13 213.66 40.61 212.97 41.93C212.29 43.25 211.36 44.37 210.2 45.31C209.07 46.24 207.73 46.96 206.2 47.46C204.67 47.96 203.05 48.21 201.35 48.21C199.65 48.21 197.97 47.96 196.43 47.46C194.89 46.96 193.54 46.26 192.4 45.36C191.23 44.43 190.32 43.3 189.65 41.98C188.98 40.66 188.65 39.17 188.65 37.5C188.65 35.83 188.98 34.38 189.65 33.05C190.32 31.72 191.23 30.58 192.4 29.65C193.53 28.72 194.88 27.99 196.43 27.48C197.98 26.97 199.62 26.7 201.35 26.7C202.35 26.7 203.33 26.79 204.3 26.98C205.27 27.16 206.18 27.42 207.05 27.75C207.45 27.28 207.74 26.74 207.93 26.13C208.11 25.51 208.21 24.92 208.21 24.36V3.14999H215.46H215.45ZM205.2 33.65C204.23 32.65 202.95 32.15 201.35 32.15C199.75 32.15 198.44 32.65 197.43 33.65C196.41 34.65 195.9 35.93 195.9 37.5C195.9 39.07 196.41 40.37 197.43 41.3C198.45 42.23 199.76 42.7 201.35 42.7C202.94 42.7 204.23 42.23 205.2 41.3C206.17 40.37 206.65 39.1 206.65 37.5C206.65 35.9 206.17 34.65 205.2 33.65Z" fill="#1D1D1B"/>
<path d="M39.8601 45.28C38.2301 46.35 35.8701 45.29 34.5901 42.92L31.5101 37.19C30.2401 34.82 30.5301 32.03 32.1601 30.96C33.7901 29.89 36.1501 30.95 37.4301 33.32L40.5101 39.05C41.7801 41.42 41.4901 44.21 39.8601 45.28Z" fill="#41BFED"/>
<path d="M27.24 45.28C25.61 44.21 25.32 41.41 26.6 39.03L29.69 33.28C30.97 30.9 33.33 29.83 34.96 30.9C36.59 31.97 36.88 34.77 35.6 37.15L32.51 42.9C31.23 45.28 28.87 46.35 27.24 45.28Z" fill="#41BFED"/>
<path d="M28.5901 46.07C30.4733 46.07 32.0001 44.5433 32.0001 42.66C32.0001 40.7767 30.4733 39.25 28.5901 39.25C26.7068 39.25 25.1801 40.7767 25.1801 42.66C25.1801 44.5433 26.7068 46.07 28.5901 46.07Z" fill="#41BFED"/>
<path d="M38.44 46.07C40.3233 46.07 41.85 44.5433 41.85 42.66C41.85 40.7767 40.3233 39.25 38.44 39.25C36.5567 39.25 35.03 40.7767 35.03 42.66C35.03 44.5433 36.5567 46.07 38.44 46.07Z" fill="#41BFED"/>
<path d="M25.2001 42.94C25.2001 42.94 25.0801 42.1 25.5701 41.09C26.0601 40.08 26.5201 39.19 26.5201 39.19L29.0001 40.09L27.0101 43.18L25.2001 42.95V42.94Z" fill="#41BFED"/>
<path d="M30.32 45.6C30.32 45.6 30.98 45.21 31.43 44.55C31.88 43.89 32.21 43.43 32.21 43.43L31.35 42.38L30.15 44.95L30.32 45.6Z" fill="#41BFED"/>
<path d="M36.4501 45.42C36.4501 45.42 35.99 45.11 35.67 44.63C35.35 44.15 34.8 43.28 34.8 43.28L36.09 42.62L37.1 44.99L36.4501 45.42Z" fill="#41BFED"/>
<path d="M41.7501 43.49C41.7501 43.49 42.0101 42.59 41.7001 41.63C41.3901 40.67 40.6601 39.32 40.6601 39.32L40.0601 39.14L40.3001 42.42L41.7601 43.5L41.7501 43.49Z" fill="#41BFED"/>
<path d="M39.8601 20.18C38.2301 21.25 35.8701 20.19 34.5901 17.82L31.5101 12.09C30.2401 9.72001 30.5301 6.93001 32.1601 5.86001C33.7901 4.79001 36.1501 5.85001 37.4301 8.22001L40.5101 13.95C41.7801 16.32 41.4901 19.11 39.8601 20.18Z" fill="#F7D134"/>
<path d="M27.24 20.18C25.61 19.11 25.32 16.31 26.6 13.93L29.69 8.18C30.97 5.8 33.33 4.73 34.96 5.8C36.59 6.87 36.88 9.67 35.6 12.05L32.51 17.8C31.23 20.18 28.87 21.25 27.24 20.18Z" fill="#F7D134"/>
<path d="M28.5901 20.97C30.4733 20.97 32.0001 19.4433 32.0001 17.56C32.0001 15.6767 30.4733 14.15 28.5901 14.15C26.7068 14.15 25.1801 15.6767 25.1801 17.56C25.1801 19.4433 26.7068 20.97 28.5901 20.97Z" fill="#F7D134"/>
<path d="M38.44 20.97C40.3233 20.97 41.85 19.4433 41.85 17.56C41.85 15.6767 40.3233 14.15 38.44 14.15C36.5567 14.15 35.03 15.6767 35.03 17.56C35.03 19.4433 36.5567 20.97 38.44 20.97Z" fill="#F7D134"/>
<path d="M25.2001 17.84C25.2001 17.84 25.0801 17 25.5701 15.99C26.0601 14.98 26.5201 14.09 26.5201 14.09L29.0001 14.99L27.0101 18.08L25.2001 17.85V17.84Z" fill="#F7D134"/>
<path d="M30.32 20.5C30.32 20.5 30.98 20.11 31.43 19.45C31.88 18.79 32.21 18.33 32.21 18.33L31.35 17.28L30.15 19.85L30.32 20.5Z" fill="#F7D134"/>
<path d="M36.4501 20.32C36.4501 20.32 35.99 20.01 35.67 19.53C35.35 19.05 34.8 18.18 34.8 18.18L36.09 17.52L37.1 19.89L36.4501 20.32Z" fill="#F7D134"/>
<path d="M41.7501 18.39C41.7501 18.39 42.0101 17.49 41.7001 16.53C41.3901 15.57 40.6601 14.22 40.6601 14.22L40.0601 14.04L40.3001 17.32L41.7601 18.4L41.7501 18.39Z" fill="#F7D134"/>
<path d="M10.9699 1.42999H10.2099C8.74085 1.42999 7.54993 2.62092 7.54993 4.08999V8.89999C7.54993 10.3691 8.74085 11.56 10.2099 11.56H10.9699C12.439 11.56 13.6299 10.3691 13.6299 8.89999V4.08999C13.6299 2.62092 12.439 1.42999 10.9699 1.42999Z" fill="#CFE869"/>
<path d="M0.888459 8.93426L0.628524 9.64843C0.126069 11.0289 0.837851 12.5553 2.21833 13.0578L6.73825 14.7029C8.11874 15.2054 9.64516 14.4936 10.1476 13.1131L10.4075 12.3989C10.91 11.0184 10.1982 9.49202 8.81774 8.98957L4.29781 7.34445C2.91733 6.842 1.39091 7.55378 0.888459 8.93426Z" fill="#CFE869"/>
<path d="M20.542 9.6417L20.2821 8.92753C19.7796 7.54705 18.2532 6.83527 16.8727 7.33772L12.3528 8.98284C10.9723 9.48529 10.2605 11.0117 10.763 12.3922L11.0229 13.1064C11.5254 14.4868 13.0518 15.1986 14.4323 14.6962L18.9522 13.0511C20.3327 12.5486 21.0445 11.0222 20.542 9.6417Z" fill="#CFE869"/>
<path d="M11.423 12.3114L10.7648 12.6914C9.49255 13.426 9.05664 15.0528 9.79118 16.3251L12.1962 20.4906C12.9307 21.7629 14.5576 22.1988 15.8298 21.4643L16.488 21.0843C17.7602 20.3497 18.1962 18.7229 17.4616 17.4506L15.0566 13.2851C14.3221 12.0128 12.6952 11.5769 11.423 12.3114Z" fill="#CFE869"/>
<path d="M10.4175 12.6914L9.75932 12.3114C8.48706 11.5769 6.86023 12.0128 6.12569 13.285L3.72069 17.4506C2.98615 18.7229 3.42206 20.3497 4.69432 21.0843L5.35249 21.4643C6.62475 22.1988 8.25158 21.7629 8.98612 20.4906L11.3911 16.325C12.1257 15.0528 11.6898 13.426 10.4175 12.6914Z" fill="#CFE869"/>
<path d="M10.7 14.76C11.7714 14.76 12.64 13.8064 12.64 12.63C12.64 11.4536 11.7714 10.5 10.7 10.5C9.62858 10.5 8.76001 11.4536 8.76001 12.63C8.76001 13.8064 9.62858 14.76 10.7 14.76Z" fill="#CFE869"/>
<path d="M10.5001 26.53H9.74008C8.271 26.53 7.08008 27.7209 7.08008 29.19V34C7.08008 35.4691 8.271 36.66 9.74008 36.66H10.5001C11.9692 36.66 13.1601 35.4691 13.1601 34V29.19C13.1601 27.7209 11.9692 26.53 10.5001 26.53Z" fill="#EC6C16"/>
<path d="M0.421296 33.9196L0.161361 34.6337C-0.341094 36.0142 0.370686 37.5407 1.75117 38.0431L6.27109 39.6882C7.65157 40.1907 9.17799 39.4789 9.68045 38.0984L9.94038 37.3842C10.4428 36.0038 9.73105 34.4773 8.35057 33.9749L3.83065 32.3298C2.45017 31.8273 0.92375 32.5391 0.421296 33.9196Z" fill="#EC6C16"/>
<path d="M20.0812 34.6331L19.8213 33.919C19.3188 32.5385 17.7924 31.8267 16.4119 32.3291L11.892 33.9743C10.5115 34.4767 9.79973 36.0031 10.3022 37.3836L10.5621 38.0978C11.0646 39.4783 12.591 40.19 13.9715 39.6876L18.4914 38.0425C19.8719 37.54 20.5837 36.0136 20.0812 34.6331Z" fill="#EC6C16"/>
<path d="M10.12 46.78C13.3509 46.78 15.97 44.1609 15.97 40.93C15.97 37.6991 13.3509 35.08 10.12 35.08C6.88915 35.08 4.27002 37.6991 4.27002 40.93C4.27002 44.1609 6.88915 46.78 10.12 46.78Z" fill="#EC6C16"/>
<path d="M10.12 41.9C10.6723 41.9 11.12 41.4523 11.12 40.9C11.12 40.3477 10.6723 39.9 10.12 39.9C9.56771 39.9 9.12 40.3477 9.12 40.9C9.12 41.4523 9.56771 41.9 10.12 41.9Z" fill="white"/>
</g>
<defs>
<clipPath id="clip0_181_1320">
<rect width="221.65" height="48.2" fill="white"/>
</clipPath>
</defs>
</svg>
